%TF.GenerationSoftware,KiCad,Pcbnew,(6.0.5)*%
%TF.CreationDate,2022-06-08T19:36:40-04:00*%
%TF.ProjectId,first-pcb,66697273-742d-4706-9362-2e6b69636164,rev?*%
%TF.SameCoordinates,Original*%
%TF.FileFunction,Legend,Top*%
%TF.FilePolarity,Positive*%
%FSLAX46Y46*%
G04 Gerber Fmt 4.6, Leading zero omitted, Abs format (unit mm)*
G04 Created by KiCad (PCBNEW (6.0.5)) date 2022-06-08 19:36:40*
%MOMM*%
%LPD*%
G01*
G04 APERTURE LIST*
%ADD10C,0.150000*%
%ADD11C,0.010000*%
%ADD12C,0.120000*%
G04 APERTURE END LIST*
D10*
X99739999Y-119296571D02*
X99739999Y-117796571D01*
X100239999Y-118868000D01*
X100739999Y-117796571D01*
X100739999Y-119296571D01*
X101311428Y-118296571D02*
X101668571Y-119296571D01*
X102025714Y-118296571D02*
X101668571Y-119296571D01*
X101525714Y-119653714D01*
X101454285Y-119725142D01*
X101311428Y-119796571D01*
X104239999Y-118510857D02*
X103739999Y-118510857D01*
X103739999Y-119296571D02*
X103739999Y-117796571D01*
X104454285Y-117796571D01*
X105025714Y-119296571D02*
X105025714Y-118296571D01*
X105025714Y-117796571D02*
X104954285Y-117868000D01*
X105025714Y-117939428D01*
X105097142Y-117868000D01*
X105025714Y-117796571D01*
X105025714Y-117939428D01*
X105739999Y-119296571D02*
X105739999Y-118296571D01*
X105739999Y-118582285D02*
X105811428Y-118439428D01*
X105882857Y-118368000D01*
X106025714Y-118296571D01*
X106168571Y-118296571D01*
X106597142Y-119225142D02*
X106739999Y-119296571D01*
X107025714Y-119296571D01*
X107168571Y-119225142D01*
X107240000Y-119082285D01*
X107240000Y-119010857D01*
X107168571Y-118868000D01*
X107025714Y-118796571D01*
X106811428Y-118796571D01*
X106668571Y-118725142D01*
X106597142Y-118582285D01*
X106597142Y-118510857D01*
X106668571Y-118368000D01*
X106811428Y-118296571D01*
X107025714Y-118296571D01*
X107168571Y-118368000D01*
X107668571Y-118296571D02*
X108240000Y-118296571D01*
X107882857Y-117796571D02*
X107882857Y-119082285D01*
X107954285Y-119225142D01*
X108097142Y-119296571D01*
X108240000Y-119296571D01*
X109882857Y-119296571D02*
X109882857Y-117796571D01*
X110739999Y-119296571D02*
X110097142Y-118439428D01*
X110739999Y-117796571D02*
X109882857Y-118653714D01*
X111382857Y-119296571D02*
X111382857Y-118296571D01*
X111382857Y-117796571D02*
X111311428Y-117868000D01*
X111382857Y-117939428D01*
X111454285Y-117868000D01*
X111382857Y-117796571D01*
X111382857Y-117939428D01*
X112954285Y-119153714D02*
X112882857Y-119225142D01*
X112668571Y-119296571D01*
X112525714Y-119296571D01*
X112311428Y-119225142D01*
X112168571Y-119082285D01*
X112097142Y-118939428D01*
X112025714Y-118653714D01*
X112025714Y-118439428D01*
X112097142Y-118153714D01*
X112168571Y-118010857D01*
X112311428Y-117868000D01*
X112525714Y-117796571D01*
X112668571Y-117796571D01*
X112882857Y-117868000D01*
X112954285Y-117939428D01*
X114239999Y-119296571D02*
X114239999Y-118510857D01*
X114168571Y-118368000D01*
X114025714Y-118296571D01*
X113739999Y-118296571D01*
X113597142Y-118368000D01*
X114239999Y-119225142D02*
X114097142Y-119296571D01*
X113739999Y-119296571D01*
X113597142Y-119225142D01*
X113525714Y-119082285D01*
X113525714Y-118939428D01*
X113597142Y-118796571D01*
X113739999Y-118725142D01*
X114097142Y-118725142D01*
X114239999Y-118653714D01*
X115597142Y-119296571D02*
X115597142Y-117796571D01*
X115597142Y-119225142D02*
X115454285Y-119296571D01*
X115168571Y-119296571D01*
X115025714Y-119225142D01*
X114954285Y-119153714D01*
X114882857Y-119010857D01*
X114882857Y-118582285D01*
X114954285Y-118439428D01*
X115025714Y-118368000D01*
X115168571Y-118296571D01*
X115454285Y-118296571D01*
X115597142Y-118368000D01*
X117454285Y-119296571D02*
X117454285Y-117796571D01*
X118025714Y-117796571D01*
X118168571Y-117868000D01*
X118239999Y-117939428D01*
X118311428Y-118082285D01*
X118311428Y-118296571D01*
X118239999Y-118439428D01*
X118168571Y-118510857D01*
X118025714Y-118582285D01*
X117454285Y-118582285D01*
X119811428Y-119153714D02*
X119739999Y-119225142D01*
X119525714Y-119296571D01*
X119382857Y-119296571D01*
X119168571Y-119225142D01*
X119025714Y-119082285D01*
X118954285Y-118939428D01*
X118882857Y-118653714D01*
X118882857Y-118439428D01*
X118954285Y-118153714D01*
X119025714Y-118010857D01*
X119168571Y-117868000D01*
X119382857Y-117796571D01*
X119525714Y-117796571D01*
X119739999Y-117868000D01*
X119811428Y-117939428D01*
X120954285Y-118510857D02*
X121168571Y-118582285D01*
X121239999Y-118653714D01*
X121311428Y-118796571D01*
X121311428Y-119010857D01*
X121239999Y-119153714D01*
X121168571Y-119225142D01*
X121025714Y-119296571D01*
X120454285Y-119296571D01*
X120454285Y-117796571D01*
X120954285Y-117796571D01*
X121097142Y-117868000D01*
X121168571Y-117939428D01*
X121239999Y-118082285D01*
X121239999Y-118225142D01*
X121168571Y-118368000D01*
X121097142Y-118439428D01*
X120954285Y-118510857D01*
X120454285Y-118510857D01*
%TO.C,K1*%
X160043904Y-107386380D02*
X160043904Y-106386380D01*
X160615333Y-107386380D02*
X160186761Y-106814952D01*
X160615333Y-106386380D02*
X160043904Y-106957809D01*
X161567714Y-107386380D02*
X160996285Y-107386380D01*
X161282000Y-107386380D02*
X161282000Y-106386380D01*
X161186761Y-106529238D01*
X161091523Y-106624476D01*
X160996285Y-106672095D01*
%TO.C,BT1*%
X110994285Y-78298571D02*
X111137142Y-78346190D01*
X111184761Y-78393809D01*
X111232380Y-78489047D01*
X111232380Y-78631904D01*
X111184761Y-78727142D01*
X111137142Y-78774761D01*
X111041904Y-78822380D01*
X110660952Y-78822380D01*
X110660952Y-77822380D01*
X110994285Y-77822380D01*
X111089523Y-77870000D01*
X111137142Y-77917619D01*
X111184761Y-78012857D01*
X111184761Y-78108095D01*
X111137142Y-78203333D01*
X111089523Y-78250952D01*
X110994285Y-78298571D01*
X110660952Y-78298571D01*
X111518095Y-77822380D02*
X112089523Y-77822380D01*
X111803809Y-78822380D02*
X111803809Y-77822380D01*
X112946666Y-78822380D02*
X112375238Y-78822380D01*
X112660952Y-78822380D02*
X112660952Y-77822380D01*
X112565714Y-77965238D01*
X112470476Y-78060476D01*
X112375238Y-78108095D01*
%TO.C,C1*%
X151015142Y-98718666D02*
X151062761Y-98766285D01*
X151110380Y-98909142D01*
X151110380Y-99004380D01*
X151062761Y-99147238D01*
X150967523Y-99242476D01*
X150872285Y-99290095D01*
X150681809Y-99337714D01*
X150538952Y-99337714D01*
X150348476Y-99290095D01*
X150253238Y-99242476D01*
X150158000Y-99147238D01*
X150110380Y-99004380D01*
X150110380Y-98909142D01*
X150158000Y-98766285D01*
X150205619Y-98718666D01*
X151110380Y-97766285D02*
X151110380Y-98337714D01*
X151110380Y-98052000D02*
X150110380Y-98052000D01*
X150253238Y-98147238D01*
X150348476Y-98242476D01*
X150396095Y-98337714D01*
%TO.C,U1*%
X144516095Y-106928380D02*
X144516095Y-107737904D01*
X144563714Y-107833142D01*
X144611333Y-107880761D01*
X144706571Y-107928380D01*
X144897047Y-107928380D01*
X144992285Y-107880761D01*
X145039904Y-107833142D01*
X145087523Y-107737904D01*
X145087523Y-106928380D01*
X146087523Y-107928380D02*
X145516095Y-107928380D01*
X145801809Y-107928380D02*
X145801809Y-106928380D01*
X145706571Y-107071238D01*
X145611333Y-107166476D01*
X145516095Y-107214095D01*
%TO.C,Q1*%
X153828761Y-109259619D02*
X153733523Y-109212000D01*
X153638285Y-109116761D01*
X153495428Y-108973904D01*
X153400190Y-108926285D01*
X153304952Y-108926285D01*
X153352571Y-109164380D02*
X153257333Y-109116761D01*
X153162095Y-109021523D01*
X153114476Y-108831047D01*
X153114476Y-108497714D01*
X153162095Y-108307238D01*
X153257333Y-108212000D01*
X153352571Y-108164380D01*
X153543047Y-108164380D01*
X153638285Y-108212000D01*
X153733523Y-108307238D01*
X153781142Y-108497714D01*
X153781142Y-108831047D01*
X153733523Y-109021523D01*
X153638285Y-109116761D01*
X153543047Y-109164380D01*
X153352571Y-109164380D01*
X154733523Y-109164380D02*
X154162095Y-109164380D01*
X154447809Y-109164380D02*
X154447809Y-108164380D01*
X154352571Y-108307238D01*
X154257333Y-108402476D01*
X154162095Y-108450095D01*
%TO.C,P1*%
X152090380Y-79732095D02*
X151090380Y-79732095D01*
X151090380Y-79351142D01*
X151138000Y-79255904D01*
X151185619Y-79208285D01*
X151280857Y-79160666D01*
X151423714Y-79160666D01*
X151518952Y-79208285D01*
X151566571Y-79255904D01*
X151614190Y-79351142D01*
X151614190Y-79732095D01*
X152090380Y-78208285D02*
X152090380Y-78779714D01*
X152090380Y-78494000D02*
X151090380Y-78494000D01*
X151233238Y-78589238D01*
X151328476Y-78684476D01*
X151376095Y-78779714D01*
%TO.C,R2*%
X161996380Y-79668666D02*
X161520190Y-80002000D01*
X161996380Y-80240095D02*
X160996380Y-80240095D01*
X160996380Y-79859142D01*
X161044000Y-79763904D01*
X161091619Y-79716285D01*
X161186857Y-79668666D01*
X161329714Y-79668666D01*
X161424952Y-79716285D01*
X161472571Y-79763904D01*
X161520190Y-79859142D01*
X161520190Y-80240095D01*
X161091619Y-79287714D02*
X161044000Y-79240095D01*
X160996380Y-79144857D01*
X160996380Y-78906761D01*
X161044000Y-78811523D01*
X161091619Y-78763904D01*
X161186857Y-78716285D01*
X161282095Y-78716285D01*
X161424952Y-78763904D01*
X161996380Y-79335333D01*
X161996380Y-78716285D01*
%TO.C,R1*%
X142946380Y-80684666D02*
X142470190Y-81018000D01*
X142946380Y-81256095D02*
X141946380Y-81256095D01*
X141946380Y-80875142D01*
X141994000Y-80779904D01*
X142041619Y-80732285D01*
X142136857Y-80684666D01*
X142279714Y-80684666D01*
X142374952Y-80732285D01*
X142422571Y-80779904D01*
X142470190Y-80875142D01*
X142470190Y-81256095D01*
X142946380Y-79732285D02*
X142946380Y-80303714D01*
X142946380Y-80018000D02*
X141946380Y-80018000D01*
X142089238Y-80113238D01*
X142184476Y-80208476D01*
X142232095Y-80303714D01*
%TO.C,REF\u002A\u002A*%
G36*
X108838703Y-92503359D02*
G01*
X108875860Y-92444446D01*
X108884128Y-92417164D01*
X108880996Y-92357624D01*
X108871481Y-92222856D01*
X108856200Y-92020614D01*
X108835767Y-91758654D01*
X108810799Y-91444732D01*
X108781911Y-91086604D01*
X108749718Y-90692025D01*
X108714837Y-90268749D01*
X108686726Y-89930464D01*
X108527671Y-88023182D01*
X108936941Y-88023182D01*
X108938704Y-88064342D01*
X108946995Y-88180265D01*
X108961147Y-88362746D01*
X108980494Y-88603580D01*
X109004371Y-88894563D01*
X109032112Y-89227490D01*
X109063049Y-89594157D01*
X109092738Y-89942283D01*
X109126369Y-90337272D01*
X109157694Y-90710131D01*
X109185996Y-91051961D01*
X109210557Y-91353860D01*
X109230659Y-91606929D01*
X109245586Y-91802266D01*
X109254618Y-91930972D01*
X109257125Y-91980957D01*
X109261035Y-92012066D01*
X109276529Y-92024411D01*
X109309579Y-92012839D01*
X109366158Y-91972200D01*
X109452237Y-91897343D01*
X109573790Y-91783117D01*
X109736788Y-91624371D01*
X109947205Y-91415954D01*
X110170465Y-91193238D01*
X111083454Y-90280956D01*
X111077055Y-90274098D01*
X111680550Y-90274098D01*
X111708053Y-90311764D01*
X111785051Y-90400454D01*
X111903824Y-90532017D01*
X112056657Y-90698302D01*
X112235832Y-90891157D01*
X112433632Y-91102433D01*
X112642341Y-91323977D01*
X112854240Y-91547639D01*
X113061614Y-91765268D01*
X113256744Y-91968711D01*
X113431915Y-92149820D01*
X113579408Y-92300441D01*
X113691507Y-92412424D01*
X113760495Y-92477619D01*
X113779308Y-92490900D01*
X113785510Y-92448030D01*
X113798384Y-92329622D01*
X113817223Y-92143087D01*
X113841318Y-91895839D01*
X113869961Y-91595289D01*
X113902444Y-91248851D01*
X113938060Y-90863936D01*
X113976101Y-90447958D01*
X114006473Y-90112536D01*
X114045325Y-89677611D01*
X114081221Y-89267892D01*
X114113556Y-88890812D01*
X114141728Y-88553804D01*
X114165132Y-88264301D01*
X114183165Y-88029734D01*
X114195224Y-87857538D01*
X114200704Y-87755143D01*
X114200077Y-87728558D01*
X114167322Y-87752238D01*
X114083906Y-87828358D01*
X113957123Y-87949550D01*
X113794266Y-88108446D01*
X113602625Y-88297677D01*
X113389495Y-88509878D01*
X113162166Y-88737679D01*
X112927933Y-88973714D01*
X112694086Y-89210613D01*
X112467919Y-89441011D01*
X112256724Y-89657539D01*
X112067794Y-89852829D01*
X111908419Y-90019514D01*
X111785895Y-90150225D01*
X111707511Y-90237596D01*
X111680550Y-90274098D01*
X111077055Y-90274098D01*
X110743006Y-89916090D01*
X110569621Y-89730919D01*
X110375018Y-89524188D01*
X110166891Y-89303959D01*
X109952935Y-89078299D01*
X109740844Y-88855270D01*
X109538313Y-88642937D01*
X109353034Y-88449364D01*
X109192703Y-88282615D01*
X109065014Y-88150755D01*
X108977661Y-88061847D01*
X108938338Y-88023956D01*
X108936941Y-88023182D01*
X108527671Y-88023182D01*
X108487918Y-87546502D01*
X106499254Y-85455079D01*
X104510591Y-83363656D01*
X104512054Y-83071336D01*
X104513518Y-82779017D01*
X104834759Y-83122173D01*
X105014544Y-83313567D01*
X105226807Y-83538430D01*
X105465818Y-83790779D01*
X105725849Y-84064629D01*
X106001173Y-84353997D01*
X106286060Y-84652899D01*
X106574784Y-84955350D01*
X106861615Y-85255368D01*
X107140826Y-85546968D01*
X107406687Y-85824167D01*
X107653472Y-86080980D01*
X107875452Y-86311423D01*
X108066898Y-86509513D01*
X108222082Y-86669266D01*
X108335276Y-86784698D01*
X108400753Y-86849825D01*
X108415103Y-86862318D01*
X108416089Y-86818857D01*
X108410661Y-86707583D01*
X108399762Y-86543636D01*
X108384332Y-86342155D01*
X108377710Y-86261669D01*
X108328384Y-85672951D01*
X108714578Y-85672951D01*
X108734516Y-85766639D01*
X108744685Y-85840734D01*
X108758974Y-85980145D01*
X108775730Y-86167112D01*
X108793303Y-86383874D01*
X108799386Y-86464098D01*
X108817325Y-86694442D01*
X108835431Y-86908352D01*
X108851892Y-87085618D01*
X108864899Y-87206029D01*
X108867832Y-87227880D01*
X108878896Y-87272742D01*
X108902847Y-87325256D01*
X108944775Y-87391308D01*
X109009774Y-87476785D01*
X109102937Y-87587574D01*
X109229355Y-87729562D01*
X109394121Y-87908634D01*
X109602328Y-88130679D01*
X109859069Y-88401582D01*
X110120975Y-88676457D01*
X110381543Y-88948476D01*
X110624777Y-89200395D01*
X110844620Y-89426090D01*
X111035019Y-89619438D01*
X111189917Y-89774312D01*
X111303261Y-89884589D01*
X111368994Y-89944144D01*
X111383012Y-89953004D01*
X111419892Y-89920879D01*
X111506097Y-89837100D01*
X111633260Y-89710073D01*
X111793014Y-89548202D01*
X111976992Y-89359892D01*
X112110042Y-89222705D01*
X112804660Y-88504426D01*
X110756492Y-88504426D01*
X110756492Y-87713279D01*
X113254853Y-87713279D01*
X113254853Y-88065793D01*
X113712886Y-87609180D01*
X114037800Y-87285273D01*
X114670591Y-87285273D01*
X114676644Y-87336368D01*
X114707280Y-87364837D01*
X114781216Y-87377242D01*
X114917168Y-87380143D01*
X114941246Y-87380164D01*
X115211902Y-87380164D01*
X115211902Y-86653881D01*
X114941246Y-86922131D01*
X114788569Y-87085220D01*
X114697251Y-87210164D01*
X114670591Y-87285273D01*
X114037800Y-87285273D01*
X114170918Y-87152568D01*
X114170918Y-86745874D01*
X114172194Y-86558769D01*
X114178030Y-86439738D01*
X114191443Y-86373590D01*
X114215448Y-86345136D01*
X114251646Y-86339180D01*
X114291904Y-86330437D01*
X114321660Y-86295379D01*
X114344511Y-86220770D01*
X114364055Y-86093371D01*
X114383888Y-85899944D01*
X114390252Y-85829098D01*
X114404032Y-85672951D01*
X108714578Y-85672951D01*
X108328384Y-85672951D01*
X107800099Y-85672951D01*
X107800099Y-85298197D01*
X108024601Y-85298197D01*
X108155909Y-85294600D01*
X108227257Y-85277241D01*
X108235986Y-85266909D01*
X108695829Y-85266909D01*
X108720030Y-85290512D01*
X108803860Y-85297797D01*
X108860437Y-85298197D01*
X109049279Y-85298197D01*
X109753499Y-85298197D01*
X114437656Y-85298197D01*
X114279223Y-85135947D01*
X114033152Y-84935729D01*
X113728609Y-84781305D01*
X113360433Y-84670561D01*
X112994607Y-84609311D01*
X112755181Y-84580732D01*
X112755181Y-84881803D01*
X110839771Y-84881803D01*
X110839771Y-84548689D01*
X111172886Y-84548689D01*
X112422066Y-84548689D01*
X112422066Y-84340492D01*
X111172886Y-84340492D01*
X111172886Y-84548689D01*
X110839771Y-84548689D01*
X110839771Y-84540237D01*
X110558705Y-84568722D01*
X110362324Y-84592764D01*
X110153094Y-84624632D01*
X110027804Y-84647392D01*
X109777968Y-84697577D01*
X109765734Y-84997887D01*
X109753499Y-85298197D01*
X109049279Y-85298197D01*
X109049279Y-85131639D01*
X109043773Y-85027298D01*
X109030021Y-84969304D01*
X109024477Y-84965082D01*
X108962833Y-84991790D01*
X108872771Y-85056584D01*
X108782485Y-85136470D01*
X108720167Y-85208454D01*
X108714615Y-85217814D01*
X108695829Y-85266909D01*
X108235986Y-85266909D01*
X108261874Y-85236269D01*
X108275848Y-85191637D01*
X108332884Y-85075812D01*
X108442428Y-84936572D01*
X108585634Y-84793441D01*
X108743655Y-84665943D01*
X108847451Y-84599536D01*
X108965691Y-84526850D01*
X109026304Y-84465787D01*
X109047601Y-84393786D01*
X109049237Y-84350902D01*
X109049240Y-84340492D01*
X109049279Y-84215574D01*
X109399744Y-84215574D01*
X109560989Y-84219471D01*
X109686660Y-84229859D01*
X109756521Y-84244778D01*
X109764088Y-84250819D01*
X109808403Y-84260092D01*
X109916250Y-84256294D01*
X110069100Y-84240547D01*
X110173541Y-84226008D01*
X110362918Y-84197447D01*
X110536115Y-84171662D01*
X110666270Y-84152640D01*
X110704443Y-84147236D01*
X110804176Y-84116349D01*
X110839771Y-84067949D01*
X110850593Y-84048238D01*
X110889305Y-84033200D01*
X110965277Y-84022244D01*
X111087876Y-84014776D01*
X111266474Y-84010205D01*
X111510438Y-84007938D01*
X111797476Y-84007377D01*
X112103819Y-84007695D01*
X112336869Y-84009198D01*
X112506610Y-84012706D01*
X112623028Y-84019043D01*
X112696107Y-84029029D01*
X112735833Y-84043486D01*
X112752189Y-84063237D01*
X112755181Y-84086201D01*
X112780657Y-84159091D01*
X112864107Y-84200569D01*
X113016062Y-84215363D01*
X113043401Y-84215574D01*
X113300732Y-84242120D01*
X113593003Y-84315197D01*
X113893857Y-84424965D01*
X114176936Y-84561582D01*
X114415882Y-84715208D01*
X114446830Y-84739550D01*
X114547701Y-84818745D01*
X114607436Y-84850465D01*
X114649152Y-84840211D01*
X114691973Y-84797903D01*
X114818445Y-84715030D01*
X114983044Y-84683217D01*
X115160295Y-84699762D01*
X115324723Y-84761964D01*
X115450853Y-84867121D01*
X115459987Y-84879344D01*
X115554365Y-85075641D01*
X115571924Y-85278831D01*
X115514602Y-85472527D01*
X115384334Y-85640343D01*
X115368406Y-85654201D01*
X115275917Y-85720027D01*
X115182077Y-85749016D01*
X115050152Y-85751109D01*
X115017195Y-85749252D01*
X114888117Y-85744516D01*
X114821628Y-85755368D01*
X114797559Y-85788114D01*
X114795090Y-85818689D01*
X114790045Y-85907382D01*
X114777525Y-86040770D01*
X114768527Y-86120574D01*
X114755476Y-86247328D01*
X114760905Y-86312216D01*
X114792378Y-86335933D01*
X114848442Y-86339180D01*
X114881692Y-86328457D01*
X114935331Y-86293749D01*
X115013333Y-86231255D01*
X115119673Y-86137169D01*
X115258327Y-86007688D01*
X115433268Y-85839008D01*
X115648473Y-85627326D01*
X115907916Y-85368836D01*
X116215572Y-85059736D01*
X116575416Y-84696222D01*
X116748832Y-84520562D01*
X118543050Y-82701945D01*
X118540999Y-82990316D01*
X118538948Y-83278689D01*
X115547198Y-86318361D01*
X115546107Y-87015820D01*
X115545017Y-87713279D01*
X114634054Y-87713279D01*
X114610581Y-87890246D01*
X114601693Y-87970908D01*
X114586711Y-88122807D01*
X114566436Y-88336882D01*
X114541670Y-88604072D01*
X114513215Y-88915316D01*
X114481871Y-89261553D01*
X114448439Y-89633721D01*
X114413722Y-90022761D01*
X114378520Y-90419610D01*
X114343636Y-90815208D01*
X114309869Y-91200494D01*
X114278022Y-91566406D01*
X114248896Y-91903884D01*
X114223293Y-92203866D01*
X114202012Y-92457292D01*
X114185857Y-92655100D01*
X114175629Y-92788229D01*
X114172127Y-92847619D01*
X114172130Y-92847902D01*
X114197657Y-92895556D01*
X114274330Y-92993953D01*
X114403193Y-93144238D01*
X114585289Y-93347555D01*
X114821661Y-93605052D01*
X115113352Y-93917872D01*
X115461406Y-94287161D01*
X115866866Y-94714065D01*
X115980832Y-94833607D01*
X117788322Y-96728197D01*
X117642194Y-96873935D01*
X117496066Y-97019672D01*
X117259640Y-96762444D01*
X117173147Y-96669483D01*
X117038039Y-96525725D01*
X116863229Y-96340590D01*
X116657634Y-96123493D01*
X116430165Y-95883854D01*
X116189738Y-95631091D01*
X116045903Y-95480127D01*
X115775869Y-95197311D01*
X115557603Y-94970777D01*
X115385539Y-94796405D01*
X115254111Y-94670077D01*
X115157754Y-94587673D01*
X115090901Y-94545074D01*
X115047989Y-94538160D01*
X115023451Y-94562812D01*
X115011721Y-94614912D01*
X115007235Y-94690339D01*
X115006632Y-94710923D01*
X114975443Y-94852724D01*
X114898598Y-95024120D01*
X114791436Y-95198003D01*
X114669295Y-95347270D01*
X114620421Y-95393379D01*
X114369655Y-95554713D01*
X114076726Y-95644981D01*
X113817742Y-95666394D01*
X113524240Y-95626006D01*
X113253175Y-95507578D01*
X113013267Y-95315209D01*
X112969001Y-95267326D01*
X112807141Y-95083443D01*
X110006984Y-95083443D01*
X110006984Y-95666394D01*
X109257476Y-95666394D01*
X109257476Y-95394052D01*
X109248071Y-95208131D01*
X109216470Y-95079083D01*
X109178065Y-95008888D01*
X109150624Y-94958663D01*
X109127127Y-94885842D01*
X109106017Y-94779629D01*
X109085737Y-94629229D01*
X109064729Y-94423846D01*
X109041437Y-94152684D01*
X109025488Y-93950961D01*
X108952322Y-93005857D01*
X107156162Y-94825388D01*
X106831399Y-95154624D01*
X106519634Y-95471158D01*
X106226565Y-95769174D01*
X105957887Y-96042858D01*
X105719299Y-96286395D01*
X105516496Y-96493969D01*
X105355176Y-96659767D01*
X105241034Y-96777973D01*
X105179829Y-96842705D01*
X105079277Y-96945191D01*
X104995404Y-97016672D01*
X104950291Y-97040492D01*
X104892669Y-97012590D01*
X104808674Y-96942875D01*
X104780203Y-96914485D01*
X104659480Y-96788477D01*
X105324134Y-96113062D01*
X105493699Y-95941002D01*
X105712345Y-95719536D01*
X105970480Y-95458357D01*
X106258511Y-95167160D01*
X106566849Y-94855639D01*
X106885901Y-94533490D01*
X107206076Y-94210405D01*
X107435754Y-93978775D01*
X107784886Y-93625789D01*
X108078195Y-93326949D01*
X108319433Y-93078210D01*
X108512351Y-92875527D01*
X108660700Y-92714854D01*
X108734225Y-92630953D01*
X109324654Y-92630953D01*
X109398576Y-93576132D01*
X109420868Y-93853183D01*
X109442433Y-94106538D01*
X109462047Y-94322955D01*
X109478491Y-94489193D01*
X109490541Y-94592008D01*
X109494419Y-94615000D01*
X109516340Y-94708689D01*
X112660500Y-94708689D01*
X112681489Y-94447218D01*
X112744856Y-94138289D01*
X112877462Y-93865012D01*
X113070946Y-93637340D01*
X113316951Y-93465224D01*
X113593064Y-93361907D01*
X113682640Y-93313444D01*
X113727486Y-93209433D01*
X113728425Y-93204845D01*
X113733806Y-93160934D01*
X113727154Y-93115971D01*
X113701978Y-93061614D01*
X113651785Y-92989524D01*
X113570084Y-92891360D01*
X113450381Y-92758783D01*
X113286184Y-92583451D01*
X113071002Y-92357026D01*
X113057098Y-92342441D01*
X112825646Y-92099399D01*
X112579581Y-91840527D01*
X112335810Y-91583648D01*
X112111242Y-91346582D01*
X111922785Y-91147151D01*
X111880754Y-91102566D01*
X111719636Y-90934452D01*
X111576507Y-90790586D01*
X111461643Y-90680863D01*
X111385319Y-90615177D01*
X111359693Y-90600741D01*
X111321478Y-90630955D01*
X111232108Y-90713842D01*
X111098620Y-90842500D01*
X110928053Y-91010029D01*
X110727443Y-91209529D01*
X110503830Y-91434100D01*
X110321069Y-91619083D01*
X109324654Y-92630953D01*
X108734225Y-92630953D01*
X108768234Y-92592146D01*
X108838703Y-92503359D01*
G37*
D11*
X108838703Y-92503359D02*
X108875860Y-92444446D01*
X108884128Y-92417164D01*
X108880996Y-92357624D01*
X108871481Y-92222856D01*
X108856200Y-92020614D01*
X108835767Y-91758654D01*
X108810799Y-91444732D01*
X108781911Y-91086604D01*
X108749718Y-90692025D01*
X108714837Y-90268749D01*
X108686726Y-89930464D01*
X108527671Y-88023182D01*
X108936941Y-88023182D01*
X108938704Y-88064342D01*
X108946995Y-88180265D01*
X108961147Y-88362746D01*
X108980494Y-88603580D01*
X109004371Y-88894563D01*
X109032112Y-89227490D01*
X109063049Y-89594157D01*
X109092738Y-89942283D01*
X109126369Y-90337272D01*
X109157694Y-90710131D01*
X109185996Y-91051961D01*
X109210557Y-91353860D01*
X109230659Y-91606929D01*
X109245586Y-91802266D01*
X109254618Y-91930972D01*
X109257125Y-91980957D01*
X109261035Y-92012066D01*
X109276529Y-92024411D01*
X109309579Y-92012839D01*
X109366158Y-91972200D01*
X109452237Y-91897343D01*
X109573790Y-91783117D01*
X109736788Y-91624371D01*
X109947205Y-91415954D01*
X110170465Y-91193238D01*
X111083454Y-90280956D01*
X111077055Y-90274098D01*
X111680550Y-90274098D01*
X111708053Y-90311764D01*
X111785051Y-90400454D01*
X111903824Y-90532017D01*
X112056657Y-90698302D01*
X112235832Y-90891157D01*
X112433632Y-91102433D01*
X112642341Y-91323977D01*
X112854240Y-91547639D01*
X113061614Y-91765268D01*
X113256744Y-91968711D01*
X113431915Y-92149820D01*
X113579408Y-92300441D01*
X113691507Y-92412424D01*
X113760495Y-92477619D01*
X113779308Y-92490900D01*
X113785510Y-92448030D01*
X113798384Y-92329622D01*
X113817223Y-92143087D01*
X113841318Y-91895839D01*
X113869961Y-91595289D01*
X113902444Y-91248851D01*
X113938060Y-90863936D01*
X113976101Y-90447958D01*
X114006473Y-90112536D01*
X114045325Y-89677611D01*
X114081221Y-89267892D01*
X114113556Y-88890812D01*
X114141728Y-88553804D01*
X114165132Y-88264301D01*
X114183165Y-88029734D01*
X114195224Y-87857538D01*
X114200704Y-87755143D01*
X114200077Y-87728558D01*
X114167322Y-87752238D01*
X114083906Y-87828358D01*
X113957123Y-87949550D01*
X113794266Y-88108446D01*
X113602625Y-88297677D01*
X113389495Y-88509878D01*
X113162166Y-88737679D01*
X112927933Y-88973714D01*
X112694086Y-89210613D01*
X112467919Y-89441011D01*
X112256724Y-89657539D01*
X112067794Y-89852829D01*
X111908419Y-90019514D01*
X111785895Y-90150225D01*
X111707511Y-90237596D01*
X111680550Y-90274098D01*
X111077055Y-90274098D01*
X110743006Y-89916090D01*
X110569621Y-89730919D01*
X110375018Y-89524188D01*
X110166891Y-89303959D01*
X109952935Y-89078299D01*
X109740844Y-88855270D01*
X109538313Y-88642937D01*
X109353034Y-88449364D01*
X109192703Y-88282615D01*
X109065014Y-88150755D01*
X108977661Y-88061847D01*
X108938338Y-88023956D01*
X108936941Y-88023182D01*
X108527671Y-88023182D01*
X108487918Y-87546502D01*
X106499254Y-85455079D01*
X104510591Y-83363656D01*
X104512054Y-83071336D01*
X104513518Y-82779017D01*
X104834759Y-83122173D01*
X105014544Y-83313567D01*
X105226807Y-83538430D01*
X105465818Y-83790779D01*
X105725849Y-84064629D01*
X106001173Y-84353997D01*
X106286060Y-84652899D01*
X106574784Y-84955350D01*
X106861615Y-85255368D01*
X107140826Y-85546968D01*
X107406687Y-85824167D01*
X107653472Y-86080980D01*
X107875452Y-86311423D01*
X108066898Y-86509513D01*
X108222082Y-86669266D01*
X108335276Y-86784698D01*
X108400753Y-86849825D01*
X108415103Y-86862318D01*
X108416089Y-86818857D01*
X108410661Y-86707583D01*
X108399762Y-86543636D01*
X108384332Y-86342155D01*
X108377710Y-86261669D01*
X108328384Y-85672951D01*
X108714578Y-85672951D01*
X108734516Y-85766639D01*
X108744685Y-85840734D01*
X108758974Y-85980145D01*
X108775730Y-86167112D01*
X108793303Y-86383874D01*
X108799386Y-86464098D01*
X108817325Y-86694442D01*
X108835431Y-86908352D01*
X108851892Y-87085618D01*
X108864899Y-87206029D01*
X108867832Y-87227880D01*
X108878896Y-87272742D01*
X108902847Y-87325256D01*
X108944775Y-87391308D01*
X109009774Y-87476785D01*
X109102937Y-87587574D01*
X109229355Y-87729562D01*
X109394121Y-87908634D01*
X109602328Y-88130679D01*
X109859069Y-88401582D01*
X110120975Y-88676457D01*
X110381543Y-88948476D01*
X110624777Y-89200395D01*
X110844620Y-89426090D01*
X111035019Y-89619438D01*
X111189917Y-89774312D01*
X111303261Y-89884589D01*
X111368994Y-89944144D01*
X111383012Y-89953004D01*
X111419892Y-89920879D01*
X111506097Y-89837100D01*
X111633260Y-89710073D01*
X111793014Y-89548202D01*
X111976992Y-89359892D01*
X112110042Y-89222705D01*
X112804660Y-88504426D01*
X110756492Y-88504426D01*
X110756492Y-87713279D01*
X113254853Y-87713279D01*
X113254853Y-88065793D01*
X113712886Y-87609180D01*
X114037800Y-87285273D01*
X114670591Y-87285273D01*
X114676644Y-87336368D01*
X114707280Y-87364837D01*
X114781216Y-87377242D01*
X114917168Y-87380143D01*
X114941246Y-87380164D01*
X115211902Y-87380164D01*
X115211902Y-86653881D01*
X114941246Y-86922131D01*
X114788569Y-87085220D01*
X114697251Y-87210164D01*
X114670591Y-87285273D01*
X114037800Y-87285273D01*
X114170918Y-87152568D01*
X114170918Y-86745874D01*
X114172194Y-86558769D01*
X114178030Y-86439738D01*
X114191443Y-86373590D01*
X114215448Y-86345136D01*
X114251646Y-86339180D01*
X114291904Y-86330437D01*
X114321660Y-86295379D01*
X114344511Y-86220770D01*
X114364055Y-86093371D01*
X114383888Y-85899944D01*
X114390252Y-85829098D01*
X114404032Y-85672951D01*
X108714578Y-85672951D01*
X108328384Y-85672951D01*
X107800099Y-85672951D01*
X107800099Y-85298197D01*
X108024601Y-85298197D01*
X108155909Y-85294600D01*
X108227257Y-85277241D01*
X108235986Y-85266909D01*
X108695829Y-85266909D01*
X108720030Y-85290512D01*
X108803860Y-85297797D01*
X108860437Y-85298197D01*
X109049279Y-85298197D01*
X109753499Y-85298197D01*
X114437656Y-85298197D01*
X114279223Y-85135947D01*
X114033152Y-84935729D01*
X113728609Y-84781305D01*
X113360433Y-84670561D01*
X112994607Y-84609311D01*
X112755181Y-84580732D01*
X112755181Y-84881803D01*
X110839771Y-84881803D01*
X110839771Y-84548689D01*
X111172886Y-84548689D01*
X112422066Y-84548689D01*
X112422066Y-84340492D01*
X111172886Y-84340492D01*
X111172886Y-84548689D01*
X110839771Y-84548689D01*
X110839771Y-84540237D01*
X110558705Y-84568722D01*
X110362324Y-84592764D01*
X110153094Y-84624632D01*
X110027804Y-84647392D01*
X109777968Y-84697577D01*
X109765734Y-84997887D01*
X109753499Y-85298197D01*
X109049279Y-85298197D01*
X109049279Y-85131639D01*
X109043773Y-85027298D01*
X109030021Y-84969304D01*
X109024477Y-84965082D01*
X108962833Y-84991790D01*
X108872771Y-85056584D01*
X108782485Y-85136470D01*
X108720167Y-85208454D01*
X108714615Y-85217814D01*
X108695829Y-85266909D01*
X108235986Y-85266909D01*
X108261874Y-85236269D01*
X108275848Y-85191637D01*
X108332884Y-85075812D01*
X108442428Y-84936572D01*
X108585634Y-84793441D01*
X108743655Y-84665943D01*
X108847451Y-84599536D01*
X108965691Y-84526850D01*
X109026304Y-84465787D01*
X109047601Y-84393786D01*
X109049237Y-84350902D01*
X109049240Y-84340492D01*
X109049279Y-84215574D01*
X109399744Y-84215574D01*
X109560989Y-84219471D01*
X109686660Y-84229859D01*
X109756521Y-84244778D01*
X109764088Y-84250819D01*
X109808403Y-84260092D01*
X109916250Y-84256294D01*
X110069100Y-84240547D01*
X110173541Y-84226008D01*
X110362918Y-84197447D01*
X110536115Y-84171662D01*
X110666270Y-84152640D01*
X110704443Y-84147236D01*
X110804176Y-84116349D01*
X110839771Y-84067949D01*
X110850593Y-84048238D01*
X110889305Y-84033200D01*
X110965277Y-84022244D01*
X111087876Y-84014776D01*
X111266474Y-84010205D01*
X111510438Y-84007938D01*
X111797476Y-84007377D01*
X112103819Y-84007695D01*
X112336869Y-84009198D01*
X112506610Y-84012706D01*
X112623028Y-84019043D01*
X112696107Y-84029029D01*
X112735833Y-84043486D01*
X112752189Y-84063237D01*
X112755181Y-84086201D01*
X112780657Y-84159091D01*
X112864107Y-84200569D01*
X113016062Y-84215363D01*
X113043401Y-84215574D01*
X113300732Y-84242120D01*
X113593003Y-84315197D01*
X113893857Y-84424965D01*
X114176936Y-84561582D01*
X114415882Y-84715208D01*
X114446830Y-84739550D01*
X114547701Y-84818745D01*
X114607436Y-84850465D01*
X114649152Y-84840211D01*
X114691973Y-84797903D01*
X114818445Y-84715030D01*
X114983044Y-84683217D01*
X115160295Y-84699762D01*
X115324723Y-84761964D01*
X115450853Y-84867121D01*
X115459987Y-84879344D01*
X115554365Y-85075641D01*
X115571924Y-85278831D01*
X115514602Y-85472527D01*
X115384334Y-85640343D01*
X115368406Y-85654201D01*
X115275917Y-85720027D01*
X115182077Y-85749016D01*
X115050152Y-85751109D01*
X115017195Y-85749252D01*
X114888117Y-85744516D01*
X114821628Y-85755368D01*
X114797559Y-85788114D01*
X114795090Y-85818689D01*
X114790045Y-85907382D01*
X114777525Y-86040770D01*
X114768527Y-86120574D01*
X114755476Y-86247328D01*
X114760905Y-86312216D01*
X114792378Y-86335933D01*
X114848442Y-86339180D01*
X114881692Y-86328457D01*
X114935331Y-86293749D01*
X115013333Y-86231255D01*
X115119673Y-86137169D01*
X115258327Y-86007688D01*
X115433268Y-85839008D01*
X115648473Y-85627326D01*
X115907916Y-85368836D01*
X116215572Y-85059736D01*
X116575416Y-84696222D01*
X116748832Y-84520562D01*
X118543050Y-82701945D01*
X118540999Y-82990316D01*
X118538948Y-83278689D01*
X115547198Y-86318361D01*
X115546107Y-87015820D01*
X115545017Y-87713279D01*
X114634054Y-87713279D01*
X114610581Y-87890246D01*
X114601693Y-87970908D01*
X114586711Y-88122807D01*
X114566436Y-88336882D01*
X114541670Y-88604072D01*
X114513215Y-88915316D01*
X114481871Y-89261553D01*
X114448439Y-89633721D01*
X114413722Y-90022761D01*
X114378520Y-90419610D01*
X114343636Y-90815208D01*
X114309869Y-91200494D01*
X114278022Y-91566406D01*
X114248896Y-91903884D01*
X114223293Y-92203866D01*
X114202012Y-92457292D01*
X114185857Y-92655100D01*
X114175629Y-92788229D01*
X114172127Y-92847619D01*
X114172130Y-92847902D01*
X114197657Y-92895556D01*
X114274330Y-92993953D01*
X114403193Y-93144238D01*
X114585289Y-93347555D01*
X114821661Y-93605052D01*
X115113352Y-93917872D01*
X115461406Y-94287161D01*
X115866866Y-94714065D01*
X115980832Y-94833607D01*
X117788322Y-96728197D01*
X117642194Y-96873935D01*
X117496066Y-97019672D01*
X117259640Y-96762444D01*
X117173147Y-96669483D01*
X117038039Y-96525725D01*
X116863229Y-96340590D01*
X116657634Y-96123493D01*
X116430165Y-95883854D01*
X116189738Y-95631091D01*
X116045903Y-95480127D01*
X115775869Y-95197311D01*
X115557603Y-94970777D01*
X115385539Y-94796405D01*
X115254111Y-94670077D01*
X115157754Y-94587673D01*
X115090901Y-94545074D01*
X115047989Y-94538160D01*
X115023451Y-94562812D01*
X115011721Y-94614912D01*
X115007235Y-94690339D01*
X115006632Y-94710923D01*
X114975443Y-94852724D01*
X114898598Y-95024120D01*
X114791436Y-95198003D01*
X114669295Y-95347270D01*
X114620421Y-95393379D01*
X114369655Y-95554713D01*
X114076726Y-95644981D01*
X113817742Y-95666394D01*
X113524240Y-95626006D01*
X113253175Y-95507578D01*
X113013267Y-95315209D01*
X112969001Y-95267326D01*
X112807141Y-95083443D01*
X110006984Y-95083443D01*
X110006984Y-95666394D01*
X109257476Y-95666394D01*
X109257476Y-95394052D01*
X109248071Y-95208131D01*
X109216470Y-95079083D01*
X109178065Y-95008888D01*
X109150624Y-94958663D01*
X109127127Y-94885842D01*
X109106017Y-94779629D01*
X109085737Y-94629229D01*
X109064729Y-94423846D01*
X109041437Y-94152684D01*
X109025488Y-93950961D01*
X108952322Y-93005857D01*
X107156162Y-94825388D01*
X106831399Y-95154624D01*
X106519634Y-95471158D01*
X106226565Y-95769174D01*
X105957887Y-96042858D01*
X105719299Y-96286395D01*
X105516496Y-96493969D01*
X105355176Y-96659767D01*
X105241034Y-96777973D01*
X105179829Y-96842705D01*
X105079277Y-96945191D01*
X104995404Y-97016672D01*
X104950291Y-97040492D01*
X104892669Y-97012590D01*
X104808674Y-96942875D01*
X104780203Y-96914485D01*
X104659480Y-96788477D01*
X105324134Y-96113062D01*
X105493699Y-95941002D01*
X105712345Y-95719536D01*
X105970480Y-95458357D01*
X106258511Y-95167160D01*
X106566849Y-94855639D01*
X106885901Y-94533490D01*
X107206076Y-94210405D01*
X107435754Y-93978775D01*
X107784886Y-93625789D01*
X108078195Y-93326949D01*
X108319433Y-93078210D01*
X108512351Y-92875527D01*
X108660700Y-92714854D01*
X108734225Y-92630953D01*
X109324654Y-92630953D01*
X109398576Y-93576132D01*
X109420868Y-93853183D01*
X109442433Y-94106538D01*
X109462047Y-94322955D01*
X109478491Y-94489193D01*
X109490541Y-94592008D01*
X109494419Y-94615000D01*
X109516340Y-94708689D01*
X112660500Y-94708689D01*
X112681489Y-94447218D01*
X112744856Y-94138289D01*
X112877462Y-93865012D01*
X113070946Y-93637340D01*
X113316951Y-93465224D01*
X113593064Y-93361907D01*
X113682640Y-93313444D01*
X113727486Y-93209433D01*
X113728425Y-93204845D01*
X113733806Y-93160934D01*
X113727154Y-93115971D01*
X113701978Y-93061614D01*
X113651785Y-92989524D01*
X113570084Y-92891360D01*
X113450381Y-92758783D01*
X113286184Y-92583451D01*
X113071002Y-92357026D01*
X113057098Y-92342441D01*
X112825646Y-92099399D01*
X112579581Y-91840527D01*
X112335810Y-91583648D01*
X112111242Y-91346582D01*
X111922785Y-91147151D01*
X111880754Y-91102566D01*
X111719636Y-90934452D01*
X111576507Y-90790586D01*
X111461643Y-90680863D01*
X111385319Y-90615177D01*
X111359693Y-90600741D01*
X111321478Y-90630955D01*
X111232108Y-90713842D01*
X111098620Y-90842500D01*
X110928053Y-91010029D01*
X110727443Y-91209529D01*
X110503830Y-91434100D01*
X110321069Y-91619083D01*
X109324654Y-92630953D01*
X108734225Y-92630953D01*
X108768234Y-92592146D01*
X108838703Y-92503359D01*
G36*
X117293869Y-102703443D02*
G01*
X105634853Y-102703443D01*
X105634853Y-99830328D01*
X117293869Y-99830328D01*
X117293869Y-102703443D01*
G37*
X117293869Y-102703443D02*
X105634853Y-102703443D01*
X105634853Y-99830328D01*
X117293869Y-99830328D01*
X117293869Y-102703443D01*
G36*
X154719802Y-117690059D02*
G01*
X154755786Y-117511332D01*
X154805759Y-117349845D01*
X154869668Y-117205726D01*
X154947462Y-117079106D01*
X155039089Y-116970115D01*
X155144497Y-116878883D01*
X155189662Y-116847932D01*
X155290611Y-116791785D01*
X155393901Y-116752174D01*
X155503989Y-116728014D01*
X155625330Y-116718219D01*
X155717836Y-116719265D01*
X155847490Y-116730231D01*
X155960084Y-116752046D01*
X156058875Y-116785714D01*
X156147121Y-116832236D01*
X156195986Y-116866448D01*
X156225353Y-116888362D01*
X156247043Y-116903333D01*
X156255253Y-116907733D01*
X156256868Y-116896904D01*
X156258159Y-116866251D01*
X156259138Y-116818526D01*
X156259817Y-116756479D01*
X156260210Y-116682862D01*
X156260330Y-116600427D01*
X156260188Y-116511925D01*
X156259797Y-116420107D01*
X156259171Y-116327724D01*
X156258320Y-116237528D01*
X156257260Y-116152271D01*
X156256001Y-116074703D01*
X156254556Y-116007576D01*
X156252938Y-115953641D01*
X156251161Y-115915650D01*
X156250669Y-115908667D01*
X156243092Y-115838251D01*
X156231531Y-115783102D01*
X156213792Y-115735981D01*
X156187682Y-115689647D01*
X156181415Y-115680067D01*
X156156983Y-115643378D01*
X157062311Y-115643378D01*
X157062507Y-117328245D01*
X157062526Y-117562662D01*
X157062552Y-117775603D01*
X157062625Y-117968168D01*
X157062782Y-118141459D01*
X157063064Y-118296576D01*
X157063509Y-118434620D01*
X157064156Y-118556692D01*
X157065045Y-118663894D01*
X157066213Y-118757326D01*
X157067701Y-118838090D01*
X157069546Y-118907286D01*
X157071789Y-118966015D01*
X157074469Y-119015379D01*
X157077623Y-119056478D01*
X157081292Y-119090413D01*
X157085513Y-119118286D01*
X157090327Y-119141198D01*
X157095773Y-119160249D01*
X157101888Y-119176540D01*
X157108712Y-119191173D01*
X157116285Y-119205249D01*
X157124645Y-119219868D01*
X157129839Y-119228974D01*
X157164104Y-119289689D01*
X156305955Y-119289689D01*
X156305955Y-119193733D01*
X156305224Y-119150370D01*
X156303272Y-119117205D01*
X156300463Y-119099424D01*
X156299221Y-119097778D01*
X156287799Y-119104662D01*
X156265084Y-119122505D01*
X156242385Y-119141879D01*
X156187800Y-119182614D01*
X156118321Y-119223617D01*
X156041270Y-119261123D01*
X155963965Y-119291364D01*
X155933113Y-119301012D01*
X155864616Y-119315578D01*
X155781764Y-119325539D01*
X155692371Y-119330583D01*
X155604248Y-119330396D01*
X155525207Y-119324666D01*
X155487511Y-119318858D01*
X155349414Y-119280797D01*
X155222113Y-119223073D01*
X155106292Y-119146211D01*
X155002637Y-119050739D01*
X154911833Y-118937179D01*
X154845031Y-118826381D01*
X154790164Y-118709625D01*
X154748163Y-118590276D01*
X154718167Y-118464283D01*
X154699311Y-118327594D01*
X154690732Y-118176158D01*
X154690006Y-118098711D01*
X154692100Y-118041934D01*
X155521217Y-118041934D01*
X155521424Y-118135002D01*
X155524337Y-118222692D01*
X155530000Y-118299772D01*
X155538455Y-118361009D01*
X155541038Y-118373350D01*
X155572840Y-118480633D01*
X155614498Y-118567658D01*
X155666363Y-118634642D01*
X155728781Y-118681805D01*
X155802100Y-118709365D01*
X155886669Y-118717541D01*
X155982835Y-118706551D01*
X156046311Y-118690829D01*
X156095454Y-118672639D01*
X156149583Y-118646791D01*
X156190244Y-118623089D01*
X156260800Y-118576721D01*
X156260800Y-117426530D01*
X156193392Y-117382962D01*
X156114867Y-117342040D01*
X156030681Y-117315389D01*
X155945557Y-117303465D01*
X155864216Y-117306722D01*
X155791380Y-117325615D01*
X155759426Y-117341184D01*
X155701501Y-117384181D01*
X155652544Y-117440953D01*
X155611390Y-117513575D01*
X155576874Y-117604121D01*
X155547833Y-117714666D01*
X155546552Y-117720533D01*
X155536381Y-117782788D01*
X155528739Y-117860594D01*
X155523670Y-117948720D01*
X155521217Y-118041934D01*
X154692100Y-118041934D01*
X154697857Y-117885895D01*
X154719802Y-117690059D01*
G37*
X154719802Y-117690059D02*
X154755786Y-117511332D01*
X154805759Y-117349845D01*
X154869668Y-117205726D01*
X154947462Y-117079106D01*
X155039089Y-116970115D01*
X155144497Y-116878883D01*
X155189662Y-116847932D01*
X155290611Y-116791785D01*
X155393901Y-116752174D01*
X155503989Y-116728014D01*
X155625330Y-116718219D01*
X155717836Y-116719265D01*
X155847490Y-116730231D01*
X155960084Y-116752046D01*
X156058875Y-116785714D01*
X156147121Y-116832236D01*
X156195986Y-116866448D01*
X156225353Y-116888362D01*
X156247043Y-116903333D01*
X156255253Y-116907733D01*
X156256868Y-116896904D01*
X156258159Y-116866251D01*
X156259138Y-116818526D01*
X156259817Y-116756479D01*
X156260210Y-116682862D01*
X156260330Y-116600427D01*
X156260188Y-116511925D01*
X156259797Y-116420107D01*
X156259171Y-116327724D01*
X156258320Y-116237528D01*
X156257260Y-116152271D01*
X156256001Y-116074703D01*
X156254556Y-116007576D01*
X156252938Y-115953641D01*
X156251161Y-115915650D01*
X156250669Y-115908667D01*
X156243092Y-115838251D01*
X156231531Y-115783102D01*
X156213792Y-115735981D01*
X156187682Y-115689647D01*
X156181415Y-115680067D01*
X156156983Y-115643378D01*
X157062311Y-115643378D01*
X157062507Y-117328245D01*
X157062526Y-117562662D01*
X157062552Y-117775603D01*
X157062625Y-117968168D01*
X157062782Y-118141459D01*
X157063064Y-118296576D01*
X157063509Y-118434620D01*
X157064156Y-118556692D01*
X157065045Y-118663894D01*
X157066213Y-118757326D01*
X157067701Y-118838090D01*
X157069546Y-118907286D01*
X157071789Y-118966015D01*
X157074469Y-119015379D01*
X157077623Y-119056478D01*
X157081292Y-119090413D01*
X157085513Y-119118286D01*
X157090327Y-119141198D01*
X157095773Y-119160249D01*
X157101888Y-119176540D01*
X157108712Y-119191173D01*
X157116285Y-119205249D01*
X157124645Y-119219868D01*
X157129839Y-119228974D01*
X157164104Y-119289689D01*
X156305955Y-119289689D01*
X156305955Y-119193733D01*
X156305224Y-119150370D01*
X156303272Y-119117205D01*
X156300463Y-119099424D01*
X156299221Y-119097778D01*
X156287799Y-119104662D01*
X156265084Y-119122505D01*
X156242385Y-119141879D01*
X156187800Y-119182614D01*
X156118321Y-119223617D01*
X156041270Y-119261123D01*
X155963965Y-119291364D01*
X155933113Y-119301012D01*
X155864616Y-119315578D01*
X155781764Y-119325539D01*
X155692371Y-119330583D01*
X155604248Y-119330396D01*
X155525207Y-119324666D01*
X155487511Y-119318858D01*
X155349414Y-119280797D01*
X155222113Y-119223073D01*
X155106292Y-119146211D01*
X155002637Y-119050739D01*
X154911833Y-118937179D01*
X154845031Y-118826381D01*
X154790164Y-118709625D01*
X154748163Y-118590276D01*
X154718167Y-118464283D01*
X154699311Y-118327594D01*
X154690732Y-118176158D01*
X154690006Y-118098711D01*
X154692100Y-118041934D01*
X155521217Y-118041934D01*
X155521424Y-118135002D01*
X155524337Y-118222692D01*
X155530000Y-118299772D01*
X155538455Y-118361009D01*
X155541038Y-118373350D01*
X155572840Y-118480633D01*
X155614498Y-118567658D01*
X155666363Y-118634642D01*
X155728781Y-118681805D01*
X155802100Y-118709365D01*
X155886669Y-118717541D01*
X155982835Y-118706551D01*
X156046311Y-118690829D01*
X156095454Y-118672639D01*
X156149583Y-118646791D01*
X156190244Y-118623089D01*
X156260800Y-118576721D01*
X156260800Y-117426530D01*
X156193392Y-117382962D01*
X156114867Y-117342040D01*
X156030681Y-117315389D01*
X155945557Y-117303465D01*
X155864216Y-117306722D01*
X155791380Y-117325615D01*
X155759426Y-117341184D01*
X155701501Y-117384181D01*
X155652544Y-117440953D01*
X155611390Y-117513575D01*
X155576874Y-117604121D01*
X155547833Y-117714666D01*
X155546552Y-117720533D01*
X155536381Y-117782788D01*
X155528739Y-117860594D01*
X155523670Y-117948720D01*
X155521217Y-118041934D01*
X154692100Y-118041934D01*
X154697857Y-117885895D01*
X154719802Y-117690059D01*
G36*
X155839065Y-120125163D02*
G01*
X155917772Y-120125542D01*
X155978863Y-120126333D01*
X156024817Y-120127670D01*
X156058114Y-120129683D01*
X156081236Y-120132506D01*
X156096662Y-120136269D01*
X156106871Y-120141105D01*
X156111813Y-120144822D01*
X156137457Y-120177358D01*
X156140559Y-120211138D01*
X156124711Y-120241826D01*
X156114348Y-120254089D01*
X156103196Y-120262450D01*
X156087035Y-120267657D01*
X156061642Y-120270457D01*
X156022798Y-120271596D01*
X155966280Y-120271821D01*
X155955180Y-120271822D01*
X155809244Y-120271822D01*
X155809244Y-120542756D01*
X155809148Y-120628154D01*
X155808711Y-120693864D01*
X155807712Y-120742774D01*
X155805928Y-120777773D01*
X155803137Y-120801749D01*
X155799117Y-120817593D01*
X155793645Y-120828191D01*
X155786666Y-120836267D01*
X155753734Y-120856112D01*
X155719354Y-120854548D01*
X155688176Y-120831906D01*
X155685886Y-120829100D01*
X155678429Y-120818492D01*
X155672747Y-120806081D01*
X155668601Y-120788850D01*
X155665750Y-120763784D01*
X155663954Y-120727867D01*
X155662972Y-120678083D01*
X155662564Y-120611417D01*
X155662489Y-120535589D01*
X155662489Y-120271822D01*
X155523127Y-120271822D01*
X155463322Y-120271418D01*
X155421918Y-120269840D01*
X155394748Y-120266547D01*
X155377646Y-120260992D01*
X155366443Y-120252631D01*
X155365083Y-120251178D01*
X155348725Y-120217939D01*
X155350172Y-120180362D01*
X155368978Y-120147645D01*
X155376250Y-120141298D01*
X155385627Y-120136266D01*
X155399609Y-120132396D01*
X155420696Y-120129537D01*
X155451389Y-120127535D01*
X155494189Y-120126239D01*
X155551595Y-120125498D01*
X155626110Y-120125158D01*
X155720233Y-120125068D01*
X155740260Y-120125067D01*
X155839065Y-120125163D01*
G37*
X155839065Y-120125163D02*
X155917772Y-120125542D01*
X155978863Y-120126333D01*
X156024817Y-120127670D01*
X156058114Y-120129683D01*
X156081236Y-120132506D01*
X156096662Y-120136269D01*
X156106871Y-120141105D01*
X156111813Y-120144822D01*
X156137457Y-120177358D01*
X156140559Y-120211138D01*
X156124711Y-120241826D01*
X156114348Y-120254089D01*
X156103196Y-120262450D01*
X156087035Y-120267657D01*
X156061642Y-120270457D01*
X156022798Y-120271596D01*
X155966280Y-120271821D01*
X155955180Y-120271822D01*
X155809244Y-120271822D01*
X155809244Y-120542756D01*
X155809148Y-120628154D01*
X155808711Y-120693864D01*
X155807712Y-120742774D01*
X155805928Y-120777773D01*
X155803137Y-120801749D01*
X155799117Y-120817593D01*
X155793645Y-120828191D01*
X155786666Y-120836267D01*
X155753734Y-120856112D01*
X155719354Y-120854548D01*
X155688176Y-120831906D01*
X155685886Y-120829100D01*
X155678429Y-120818492D01*
X155672747Y-120806081D01*
X155668601Y-120788850D01*
X155665750Y-120763784D01*
X155663954Y-120727867D01*
X155662972Y-120678083D01*
X155662564Y-120611417D01*
X155662489Y-120535589D01*
X155662489Y-120271822D01*
X155523127Y-120271822D01*
X155463322Y-120271418D01*
X155421918Y-120269840D01*
X155394748Y-120266547D01*
X155377646Y-120260992D01*
X155366443Y-120252631D01*
X155365083Y-120251178D01*
X155348725Y-120217939D01*
X155350172Y-120180362D01*
X155368978Y-120147645D01*
X155376250Y-120141298D01*
X155385627Y-120136266D01*
X155399609Y-120132396D01*
X155420696Y-120129537D01*
X155451389Y-120127535D01*
X155494189Y-120126239D01*
X155551595Y-120125498D01*
X155626110Y-120125158D01*
X155720233Y-120125068D01*
X155740260Y-120125067D01*
X155839065Y-120125163D01*
G36*
X144605002Y-120201055D02*
G01*
X144613170Y-120167778D01*
X144626444Y-120145759D01*
X144646026Y-120132739D01*
X144673117Y-120126457D01*
X144708918Y-120124653D01*
X144754629Y-120125066D01*
X144794111Y-120125467D01*
X144909800Y-120128259D01*
X145006689Y-120136550D01*
X145088081Y-120151232D01*
X145157277Y-120173193D01*
X145217580Y-120203322D01*
X145272292Y-120242510D01*
X145291833Y-120259532D01*
X145324250Y-120299363D01*
X145353480Y-120353413D01*
X145376009Y-120413323D01*
X145388321Y-120470739D01*
X145389600Y-120491956D01*
X145381583Y-120550769D01*
X145360101Y-120615013D01*
X145329001Y-120675821D01*
X145292134Y-120724330D01*
X145286146Y-120730182D01*
X145235421Y-120771321D01*
X145179875Y-120803435D01*
X145116304Y-120827365D01*
X145041506Y-120843953D01*
X144952278Y-120854041D01*
X144845418Y-120858469D01*
X144796472Y-120858845D01*
X144734238Y-120858545D01*
X144690472Y-120857292D01*
X144661069Y-120854554D01*
X144641921Y-120849801D01*
X144628923Y-120842501D01*
X144621955Y-120836267D01*
X144615374Y-120828694D01*
X144610212Y-120818924D01*
X144606297Y-120804340D01*
X144603457Y-120782326D01*
X144601520Y-120750264D01*
X144600492Y-120712089D01*
X144746133Y-120712089D01*
X144839266Y-120712004D01*
X144895307Y-120710396D01*
X144954001Y-120706256D01*
X145002972Y-120700464D01*
X145004462Y-120700226D01*
X145083608Y-120681090D01*
X145144998Y-120651287D01*
X145191695Y-120608878D01*
X145221365Y-120562961D01*
X145239647Y-120512026D01*
X145238229Y-120464200D01*
X145217012Y-120412933D01*
X145175511Y-120359899D01*
X145118002Y-120320600D01*
X145043250Y-120294331D01*
X144993292Y-120285035D01*
X144936584Y-120278507D01*
X144876481Y-120273782D01*
X144825361Y-120271817D01*
X144822333Y-120271808D01*
X144746133Y-120271822D01*
X144746133Y-120712089D01*
X144600492Y-120712089D01*
X144600316Y-120705536D01*
X144599672Y-120645526D01*
X144599417Y-120567617D01*
X144599378Y-120491956D01*
X144599130Y-120391041D01*
X144599183Y-120310427D01*
X144600143Y-120271822D01*
X144600740Y-120247851D01*
X144605002Y-120201055D01*
G37*
X144605002Y-120201055D02*
X144613170Y-120167778D01*
X144626444Y-120145759D01*
X144646026Y-120132739D01*
X144673117Y-120126457D01*
X144708918Y-120124653D01*
X144754629Y-120125066D01*
X144794111Y-120125467D01*
X144909800Y-120128259D01*
X145006689Y-120136550D01*
X145088081Y-120151232D01*
X145157277Y-120173193D01*
X145217580Y-120203322D01*
X145272292Y-120242510D01*
X145291833Y-120259532D01*
X145324250Y-120299363D01*
X145353480Y-120353413D01*
X145376009Y-120413323D01*
X145388321Y-120470739D01*
X145389600Y-120491956D01*
X145381583Y-120550769D01*
X145360101Y-120615013D01*
X145329001Y-120675821D01*
X145292134Y-120724330D01*
X145286146Y-120730182D01*
X145235421Y-120771321D01*
X145179875Y-120803435D01*
X145116304Y-120827365D01*
X145041506Y-120843953D01*
X144952278Y-120854041D01*
X144845418Y-120858469D01*
X144796472Y-120858845D01*
X144734238Y-120858545D01*
X144690472Y-120857292D01*
X144661069Y-120854554D01*
X144641921Y-120849801D01*
X144628923Y-120842501D01*
X144621955Y-120836267D01*
X144615374Y-120828694D01*
X144610212Y-120818924D01*
X144606297Y-120804340D01*
X144603457Y-120782326D01*
X144601520Y-120750264D01*
X144600492Y-120712089D01*
X144746133Y-120712089D01*
X144839266Y-120712004D01*
X144895307Y-120710396D01*
X144954001Y-120706256D01*
X145002972Y-120700464D01*
X145004462Y-120700226D01*
X145083608Y-120681090D01*
X145144998Y-120651287D01*
X145191695Y-120608878D01*
X145221365Y-120562961D01*
X145239647Y-120512026D01*
X145238229Y-120464200D01*
X145217012Y-120412933D01*
X145175511Y-120359899D01*
X145118002Y-120320600D01*
X145043250Y-120294331D01*
X144993292Y-120285035D01*
X144936584Y-120278507D01*
X144876481Y-120273782D01*
X144825361Y-120271817D01*
X144822333Y-120271808D01*
X144746133Y-120271822D01*
X144746133Y-120712089D01*
X144600492Y-120712089D01*
X144600316Y-120705536D01*
X144599672Y-120645526D01*
X144599417Y-120567617D01*
X144599378Y-120491956D01*
X144599130Y-120391041D01*
X144599183Y-120310427D01*
X144600143Y-120271822D01*
X144600740Y-120247851D01*
X144605002Y-120201055D01*
G36*
X154620665Y-120127034D02*
G01*
X154640255Y-120134035D01*
X154641010Y-120134377D01*
X154667613Y-120154678D01*
X154682270Y-120175561D01*
X154685138Y-120185352D01*
X154684996Y-120198361D01*
X154680961Y-120216895D01*
X154672146Y-120243257D01*
X154657669Y-120279752D01*
X154636645Y-120328687D01*
X154608188Y-120392365D01*
X154571415Y-120473093D01*
X154551175Y-120517216D01*
X154514625Y-120595985D01*
X154480315Y-120668423D01*
X154449552Y-120731880D01*
X154423648Y-120783708D01*
X154403910Y-120821259D01*
X154391650Y-120841884D01*
X154389224Y-120844733D01*
X154358183Y-120857302D01*
X154323121Y-120855619D01*
X154295000Y-120840332D01*
X154293854Y-120839089D01*
X154282668Y-120822154D01*
X154263904Y-120789170D01*
X154239875Y-120744380D01*
X154212897Y-120692032D01*
X154203201Y-120672742D01*
X154130014Y-120526150D01*
X154050240Y-120685393D01*
X154021767Y-120740415D01*
X153995350Y-120788132D01*
X153973148Y-120824893D01*
X153957319Y-120847044D01*
X153951954Y-120851741D01*
X153910257Y-120858102D01*
X153875849Y-120844733D01*
X153865728Y-120830446D01*
X153848214Y-120798692D01*
X153824735Y-120752597D01*
X153796720Y-120695285D01*
X153765599Y-120629880D01*
X153732799Y-120559507D01*
X153699750Y-120487291D01*
X153667881Y-120416355D01*
X153638619Y-120349825D01*
X153613395Y-120290826D01*
X153593636Y-120242481D01*
X153580772Y-120207915D01*
X153576231Y-120190253D01*
X153576277Y-120189613D01*
X153587326Y-120167388D01*
X153609410Y-120144753D01*
X153610710Y-120143768D01*
X153637853Y-120128425D01*
X153662958Y-120128574D01*
X153672368Y-120131466D01*
X153683834Y-120137718D01*
X153696010Y-120150014D01*
X153710357Y-120170908D01*
X153728336Y-120202949D01*
X153751407Y-120248688D01*
X153781030Y-120310677D01*
X153807745Y-120367898D01*
X153838480Y-120434226D01*
X153866021Y-120493874D01*
X153888938Y-120543725D01*
X153905798Y-120580664D01*
X153915173Y-120601573D01*
X153916540Y-120604845D01*
X153922689Y-120599497D01*
X153936822Y-120577109D01*
X153957057Y-120540946D01*
X153981515Y-120494277D01*
X153991248Y-120475022D01*
X154024217Y-120410004D01*
X154049643Y-120362654D01*
X154069612Y-120330219D01*
X154086210Y-120309946D01*
X154101524Y-120299082D01*
X154117640Y-120294875D01*
X154128143Y-120294400D01*
X154146670Y-120296042D01*
X154162904Y-120302831D01*
X154179035Y-120317566D01*
X154197251Y-120343044D01*
X154219739Y-120382061D01*
X154248689Y-120437414D01*
X154264662Y-120468903D01*
X154290570Y-120519087D01*
X154313167Y-120560704D01*
X154330458Y-120590242D01*
X154340450Y-120604189D01*
X154341809Y-120604770D01*
X154348261Y-120593793D01*
X154362708Y-120565290D01*
X154383703Y-120522244D01*
X154409797Y-120467638D01*
X154439546Y-120404454D01*
X154454180Y-120373071D01*
X154492250Y-120292078D01*
X154522905Y-120229756D01*
X154547737Y-120184071D01*
X154568337Y-120152989D01*
X154586298Y-120134478D01*
X154603210Y-120126504D01*
X154620665Y-120127034D01*
G37*
X154620665Y-120127034D02*
X154640255Y-120134035D01*
X154641010Y-120134377D01*
X154667613Y-120154678D01*
X154682270Y-120175561D01*
X154685138Y-120185352D01*
X154684996Y-120198361D01*
X154680961Y-120216895D01*
X154672146Y-120243257D01*
X154657669Y-120279752D01*
X154636645Y-120328687D01*
X154608188Y-120392365D01*
X154571415Y-120473093D01*
X154551175Y-120517216D01*
X154514625Y-120595985D01*
X154480315Y-120668423D01*
X154449552Y-120731880D01*
X154423648Y-120783708D01*
X154403910Y-120821259D01*
X154391650Y-120841884D01*
X154389224Y-120844733D01*
X154358183Y-120857302D01*
X154323121Y-120855619D01*
X154295000Y-120840332D01*
X154293854Y-120839089D01*
X154282668Y-120822154D01*
X154263904Y-120789170D01*
X154239875Y-120744380D01*
X154212897Y-120692032D01*
X154203201Y-120672742D01*
X154130014Y-120526150D01*
X154050240Y-120685393D01*
X154021767Y-120740415D01*
X153995350Y-120788132D01*
X153973148Y-120824893D01*
X153957319Y-120847044D01*
X153951954Y-120851741D01*
X153910257Y-120858102D01*
X153875849Y-120844733D01*
X153865728Y-120830446D01*
X153848214Y-120798692D01*
X153824735Y-120752597D01*
X153796720Y-120695285D01*
X153765599Y-120629880D01*
X153732799Y-120559507D01*
X153699750Y-120487291D01*
X153667881Y-120416355D01*
X153638619Y-120349825D01*
X153613395Y-120290826D01*
X153593636Y-120242481D01*
X153580772Y-120207915D01*
X153576231Y-120190253D01*
X153576277Y-120189613D01*
X153587326Y-120167388D01*
X153609410Y-120144753D01*
X153610710Y-120143768D01*
X153637853Y-120128425D01*
X153662958Y-120128574D01*
X153672368Y-120131466D01*
X153683834Y-120137718D01*
X153696010Y-120150014D01*
X153710357Y-120170908D01*
X153728336Y-120202949D01*
X153751407Y-120248688D01*
X153781030Y-120310677D01*
X153807745Y-120367898D01*
X153838480Y-120434226D01*
X153866021Y-120493874D01*
X153888938Y-120543725D01*
X153905798Y-120580664D01*
X153915173Y-120601573D01*
X153916540Y-120604845D01*
X153922689Y-120599497D01*
X153936822Y-120577109D01*
X153957057Y-120540946D01*
X153981515Y-120494277D01*
X153991248Y-120475022D01*
X154024217Y-120410004D01*
X154049643Y-120362654D01*
X154069612Y-120330219D01*
X154086210Y-120309946D01*
X154101524Y-120299082D01*
X154117640Y-120294875D01*
X154128143Y-120294400D01*
X154146670Y-120296042D01*
X154162904Y-120302831D01*
X154179035Y-120317566D01*
X154197251Y-120343044D01*
X154219739Y-120382061D01*
X154248689Y-120437414D01*
X154264662Y-120468903D01*
X154290570Y-120519087D01*
X154313167Y-120560704D01*
X154330458Y-120590242D01*
X154340450Y-120604189D01*
X154341809Y-120604770D01*
X154348261Y-120593793D01*
X154362708Y-120565290D01*
X154383703Y-120522244D01*
X154409797Y-120467638D01*
X154439546Y-120404454D01*
X154454180Y-120373071D01*
X154492250Y-120292078D01*
X154522905Y-120229756D01*
X154547737Y-120184071D01*
X154568337Y-120152989D01*
X154586298Y-120134478D01*
X154603210Y-120126504D01*
X154620665Y-120127034D01*
G36*
X147929600Y-115345054D02*
G01*
X147940465Y-115458993D01*
X147972082Y-115566616D01*
X148022985Y-115665615D01*
X148091707Y-115753684D01*
X148176781Y-115828516D01*
X148273768Y-115886384D01*
X148380036Y-115926005D01*
X148487050Y-115944573D01*
X148592700Y-115943434D01*
X148694875Y-115923930D01*
X148791466Y-115887406D01*
X148880362Y-115835205D01*
X148959454Y-115768673D01*
X149026631Y-115689152D01*
X149079783Y-115597987D01*
X149116801Y-115496523D01*
X149135573Y-115386102D01*
X149137511Y-115336206D01*
X149137511Y-115248267D01*
X149189440Y-115248267D01*
X149225747Y-115251111D01*
X149252645Y-115262911D01*
X149279751Y-115286649D01*
X149318133Y-115325031D01*
X149318133Y-117516602D01*
X149318124Y-117778739D01*
X149318092Y-118019241D01*
X149318028Y-118239048D01*
X149317924Y-118439101D01*
X149317773Y-118620344D01*
X149317566Y-118783716D01*
X149317294Y-118930160D01*
X149316950Y-119060617D01*
X149316526Y-119176029D01*
X149316013Y-119277338D01*
X149315403Y-119365484D01*
X149314688Y-119441410D01*
X149313860Y-119506057D01*
X149312911Y-119560367D01*
X149311833Y-119605280D01*
X149310617Y-119641740D01*
X149309255Y-119670687D01*
X149307739Y-119693063D01*
X149306062Y-119709809D01*
X149304214Y-119721868D01*
X149302187Y-119730180D01*
X149299975Y-119735687D01*
X149298892Y-119737537D01*
X149294729Y-119744549D01*
X149291195Y-119750996D01*
X149287365Y-119756900D01*
X149282318Y-119762286D01*
X149275129Y-119767178D01*
X149264877Y-119771598D01*
X149250636Y-119775572D01*
X149231486Y-119779121D01*
X149206501Y-119782270D01*
X149174760Y-119785042D01*
X149135338Y-119787461D01*
X149087314Y-119789551D01*
X149029763Y-119791335D01*
X148961763Y-119792837D01*
X148882390Y-119794080D01*
X148790721Y-119795089D01*
X148685834Y-119795885D01*
X148566804Y-119796494D01*
X148432710Y-119796939D01*
X148282627Y-119797243D01*
X148115633Y-119797430D01*
X147930804Y-119797524D01*
X147727217Y-119797548D01*
X147503950Y-119797525D01*
X147260078Y-119797480D01*
X146994679Y-119797437D01*
X146956296Y-119797432D01*
X146689318Y-119797389D01*
X146443998Y-119797318D01*
X146219417Y-119797213D01*
X146014655Y-119797066D01*
X145828794Y-119796869D01*
X145660912Y-119796616D01*
X145510092Y-119796300D01*
X145375413Y-119795913D01*
X145255956Y-119795447D01*
X145150801Y-119794897D01*
X145059029Y-119794253D01*
X144979721Y-119793511D01*
X144911957Y-119792661D01*
X144854818Y-119791697D01*
X144807383Y-119790611D01*
X144768734Y-119789397D01*
X144737951Y-119788047D01*
X144714115Y-119786555D01*
X144696306Y-119784911D01*
X144683605Y-119783111D01*
X144675092Y-119781145D01*
X144670734Y-119779477D01*
X144662272Y-119775906D01*
X144654503Y-119773270D01*
X144647398Y-119770634D01*
X144640927Y-119767062D01*
X144635061Y-119761621D01*
X144629771Y-119753375D01*
X144625026Y-119741390D01*
X144620798Y-119724731D01*
X144617057Y-119702463D01*
X144613773Y-119673652D01*
X144610917Y-119637363D01*
X144608460Y-119592661D01*
X144606371Y-119538611D01*
X144604622Y-119474279D01*
X144603183Y-119398730D01*
X144602024Y-119311030D01*
X144601117Y-119210243D01*
X144600431Y-119095434D01*
X144599937Y-118965670D01*
X144599605Y-118820015D01*
X144599407Y-118657535D01*
X144599313Y-118477295D01*
X144599292Y-118278360D01*
X144599315Y-118059796D01*
X144599354Y-117820668D01*
X144599378Y-117560040D01*
X144599378Y-117517889D01*
X144599364Y-117254992D01*
X144599339Y-117013732D01*
X144599329Y-116793165D01*
X144599358Y-116592352D01*
X144599452Y-116410349D01*
X144599638Y-116246216D01*
X144599941Y-116099011D01*
X144600386Y-115967792D01*
X144600966Y-115857867D01*
X144903803Y-115857867D01*
X144943593Y-115915711D01*
X144954764Y-115931479D01*
X144964834Y-115945441D01*
X144973862Y-115958784D01*
X144981903Y-115972693D01*
X144989014Y-115988356D01*
X144995253Y-116006958D01*
X145000675Y-116029686D01*
X145005338Y-116057727D01*
X145009299Y-116092267D01*
X145012615Y-116134492D01*
X145015341Y-116185589D01*
X145017536Y-116246744D01*
X145019255Y-116319144D01*
X145020556Y-116403975D01*
X145021495Y-116502422D01*
X145022130Y-116615674D01*
X145022516Y-116744916D01*
X145022712Y-116891334D01*
X145022773Y-117056116D01*
X145022757Y-117240447D01*
X145022720Y-117445513D01*
X145022711Y-117568133D01*
X145022735Y-117785082D01*
X145022769Y-117980642D01*
X145022757Y-118155999D01*
X145022642Y-118312341D01*
X145022370Y-118450857D01*
X145021882Y-118572734D01*
X145021124Y-118679160D01*
X145020038Y-118771322D01*
X145018569Y-118850409D01*
X145016660Y-118917608D01*
X145014256Y-118974107D01*
X145011299Y-119021093D01*
X145007734Y-119059755D01*
X145003505Y-119091280D01*
X144998554Y-119116855D01*
X144992827Y-119137670D01*
X144986267Y-119154911D01*
X144978817Y-119169765D01*
X144970421Y-119183422D01*
X144961024Y-119197069D01*
X144950568Y-119211893D01*
X144944477Y-119220783D01*
X144905704Y-119278400D01*
X145437268Y-119278400D01*
X145560517Y-119278365D01*
X145663013Y-119278215D01*
X145746580Y-119277878D01*
X145813044Y-119277286D01*
X145864229Y-119276367D01*
X145901959Y-119275051D01*
X145928060Y-119273269D01*
X145944356Y-119270951D01*
X145952672Y-119268026D01*
X145954832Y-119264424D01*
X145952661Y-119260075D01*
X145951465Y-119258645D01*
X145926315Y-119221573D01*
X145900417Y-119168772D01*
X145876808Y-119106770D01*
X145868539Y-119080357D01*
X145863922Y-119062416D01*
X145860021Y-119041355D01*
X145856752Y-119015089D01*
X145854034Y-118981532D01*
X145851785Y-118938599D01*
X145849923Y-118884204D01*
X145848364Y-118816262D01*
X145847028Y-118732688D01*
X145845831Y-118631395D01*
X145844692Y-118510300D01*
X145844315Y-118465600D01*
X145843298Y-118340449D01*
X145842540Y-118236082D01*
X145842097Y-118150707D01*
X145842030Y-118082533D01*
X145842395Y-118029765D01*
X145843252Y-117990614D01*
X145844659Y-117963285D01*
X145846675Y-117945986D01*
X145849357Y-117936926D01*
X145852764Y-117934312D01*
X145856956Y-117936351D01*
X145861429Y-117940667D01*
X145871784Y-117953602D01*
X145893842Y-117982676D01*
X145926043Y-118025759D01*
X145966826Y-118080718D01*
X146014630Y-118145423D01*
X146067895Y-118217742D01*
X146125060Y-118295544D01*
X146184563Y-118376698D01*
X146244845Y-118459072D01*
X146304345Y-118540536D01*
X146361502Y-118618957D01*
X146414755Y-118692204D01*
X146462543Y-118758147D01*
X146503307Y-118814654D01*
X146535484Y-118859593D01*
X146557515Y-118890834D01*
X146562083Y-118897466D01*
X146585004Y-118934369D01*
X146611812Y-118982359D01*
X146637211Y-119031897D01*
X146640432Y-119038577D01*
X146662110Y-119086772D01*
X146674696Y-119124334D01*
X146680426Y-119160160D01*
X146681544Y-119202200D01*
X146680910Y-119278400D01*
X147835349Y-119278400D01*
X147744185Y-119184669D01*
X147697388Y-119134775D01*
X147647101Y-119078295D01*
X147601056Y-119024026D01*
X147580631Y-118998673D01*
X147550193Y-118959128D01*
X147510138Y-118905916D01*
X147461639Y-118840667D01*
X147405865Y-118765011D01*
X147343989Y-118680577D01*
X147277181Y-118588994D01*
X147206613Y-118491892D01*
X147133455Y-118390901D01*
X147058879Y-118287650D01*
X146984056Y-118183768D01*
X146910157Y-118080885D01*
X146838354Y-117980631D01*
X146769816Y-117884636D01*
X146705716Y-117794527D01*
X146647225Y-117711936D01*
X146595514Y-117638492D01*
X146551753Y-117575824D01*
X146517115Y-117525561D01*
X146492770Y-117489334D01*
X146479889Y-117468771D01*
X146478131Y-117464668D01*
X146486090Y-117453342D01*
X146506885Y-117426162D01*
X146539153Y-117384829D01*
X146581530Y-117331044D01*
X146632653Y-117266506D01*
X146691159Y-117192918D01*
X146755686Y-117111978D01*
X146824869Y-117025388D01*
X146897347Y-116934848D01*
X146971754Y-116842060D01*
X147031483Y-116767702D01*
X148042489Y-116767702D01*
X148048398Y-116780659D01*
X148062728Y-116802908D01*
X148063775Y-116804391D01*
X148082562Y-116834544D01*
X148102209Y-116871375D01*
X148106108Y-116879511D01*
X148109644Y-116887940D01*
X148112770Y-116898059D01*
X148115514Y-116911260D01*
X148117908Y-116928938D01*
X148119981Y-116952484D01*
X148121765Y-116983293D01*
X148123288Y-117022757D01*
X148124581Y-117072269D01*
X148125674Y-117133223D01*
X148126597Y-117207011D01*
X148127381Y-117295028D01*
X148128055Y-117398665D01*
X148128650Y-117519316D01*
X148129195Y-117658374D01*
X148129721Y-117817232D01*
X148130255Y-117996089D01*
X148130794Y-118181207D01*
X148131228Y-118345145D01*
X148131491Y-118489303D01*
X148131516Y-118615079D01*
X148131235Y-118723871D01*
X148130581Y-118817077D01*
X148129486Y-118896097D01*
X148127882Y-118962328D01*
X148125703Y-119017170D01*
X148122881Y-119062021D01*
X148119349Y-119098278D01*
X148115039Y-119127341D01*
X148109883Y-119150609D01*
X148103815Y-119169479D01*
X148096767Y-119185351D01*
X148088671Y-119199622D01*
X148079460Y-119213691D01*
X148070960Y-119226158D01*
X148053824Y-119252452D01*
X148043678Y-119270037D01*
X148042489Y-119273257D01*
X148053396Y-119274334D01*
X148084589Y-119275335D01*
X148133777Y-119276235D01*
X148198667Y-119277010D01*
X148276970Y-119277637D01*
X148366393Y-119278091D01*
X148464644Y-119278349D01*
X148533555Y-119278400D01*
X148638548Y-119278180D01*
X148735390Y-119277548D01*
X148821893Y-119276549D01*
X148895868Y-119275227D01*
X148955126Y-119273626D01*
X148997480Y-119271791D01*
X149020740Y-119269765D01*
X149024622Y-119268493D01*
X149016924Y-119253591D01*
X149008926Y-119245560D01*
X148995754Y-119228434D01*
X148978515Y-119198183D01*
X148966593Y-119173622D01*
X148939955Y-119114711D01*
X148936880Y-117937845D01*
X148933805Y-116760978D01*
X148488147Y-116760978D01*
X148390330Y-116761142D01*
X148299936Y-116761611D01*
X148219370Y-116762347D01*
X148151038Y-116763316D01*
X148097344Y-116764480D01*
X148060695Y-116765803D01*
X148043496Y-116767249D01*
X148042489Y-116767702D01*
X147031483Y-116767702D01*
X147046730Y-116748722D01*
X147120910Y-116656537D01*
X147192931Y-116567204D01*
X147261431Y-116482424D01*
X147325045Y-116403898D01*
X147382412Y-116333326D01*
X147432167Y-116272409D01*
X147472948Y-116222847D01*
X147490112Y-116202178D01*
X147576404Y-116101516D01*
X147653003Y-116018259D01*
X147721817Y-115950438D01*
X147784752Y-115896089D01*
X147794133Y-115888722D01*
X147833644Y-115858117D01*
X146701884Y-115857867D01*
X146707173Y-115905844D01*
X146703870Y-115963188D01*
X146682339Y-116031463D01*
X146642365Y-116111212D01*
X146597057Y-116183495D01*
X146580839Y-116206140D01*
X146552786Y-116243696D01*
X146514570Y-116294021D01*
X146467863Y-116354973D01*
X146414339Y-116424411D01*
X146355669Y-116500194D01*
X146293525Y-116580180D01*
X146229579Y-116662228D01*
X146165505Y-116744196D01*
X146102973Y-116823943D01*
X146043657Y-116899327D01*
X145989229Y-116968207D01*
X145941361Y-117028442D01*
X145901725Y-117077889D01*
X145871994Y-117114408D01*
X145853839Y-117135858D01*
X145850780Y-117139156D01*
X145847921Y-117131149D01*
X145845707Y-117100855D01*
X145844143Y-117048556D01*
X145843233Y-116974531D01*
X145842980Y-116879063D01*
X145843387Y-116762434D01*
X145844296Y-116642445D01*
X145845618Y-116510333D01*
X145847143Y-116398594D01*
X145849119Y-116305025D01*
X145851794Y-116227419D01*
X145855418Y-116163574D01*
X145860239Y-116111283D01*
X145866506Y-116068344D01*
X145874468Y-116032551D01*
X145884373Y-116001700D01*
X145896469Y-115973586D01*
X145911007Y-115946005D01*
X145925689Y-115920966D01*
X145963686Y-115857867D01*
X144903803Y-115857867D01*
X144600966Y-115857867D01*
X144600999Y-115851617D01*
X144601805Y-115749544D01*
X144602830Y-115660633D01*
X144604100Y-115583941D01*
X144605640Y-115518527D01*
X144607476Y-115463449D01*
X144609633Y-115417765D01*
X144612137Y-115380534D01*
X144615013Y-115350813D01*
X144618287Y-115327662D01*
X144621985Y-115310139D01*
X144626131Y-115297301D01*
X144630753Y-115288208D01*
X144635874Y-115281918D01*
X144641522Y-115277488D01*
X144647721Y-115273978D01*
X144654496Y-115270445D01*
X144660492Y-115266876D01*
X144665725Y-115264300D01*
X144673901Y-115261972D01*
X144686114Y-115259878D01*
X144703459Y-115258007D01*
X144727031Y-115256347D01*
X144757923Y-115254884D01*
X144797232Y-115253608D01*
X144846050Y-115252504D01*
X144905473Y-115251561D01*
X144976596Y-115250767D01*
X145060512Y-115250109D01*
X145158317Y-115249575D01*
X145271106Y-115249153D01*
X145399971Y-115248829D01*
X145546009Y-115248592D01*
X145710314Y-115248430D01*
X145893980Y-115248330D01*
X146098103Y-115248280D01*
X146309247Y-115248267D01*
X147929600Y-115248267D01*
X147929600Y-115345054D01*
G37*
X147929600Y-115345054D02*
X147940465Y-115458993D01*
X147972082Y-115566616D01*
X148022985Y-115665615D01*
X148091707Y-115753684D01*
X148176781Y-115828516D01*
X148273768Y-115886384D01*
X148380036Y-115926005D01*
X148487050Y-115944573D01*
X148592700Y-115943434D01*
X148694875Y-115923930D01*
X148791466Y-115887406D01*
X148880362Y-115835205D01*
X148959454Y-115768673D01*
X149026631Y-115689152D01*
X149079783Y-115597987D01*
X149116801Y-115496523D01*
X149135573Y-115386102D01*
X149137511Y-115336206D01*
X149137511Y-115248267D01*
X149189440Y-115248267D01*
X149225747Y-115251111D01*
X149252645Y-115262911D01*
X149279751Y-115286649D01*
X149318133Y-115325031D01*
X149318133Y-117516602D01*
X149318124Y-117778739D01*
X149318092Y-118019241D01*
X149318028Y-118239048D01*
X149317924Y-118439101D01*
X149317773Y-118620344D01*
X149317566Y-118783716D01*
X149317294Y-118930160D01*
X149316950Y-119060617D01*
X149316526Y-119176029D01*
X149316013Y-119277338D01*
X149315403Y-119365484D01*
X149314688Y-119441410D01*
X149313860Y-119506057D01*
X149312911Y-119560367D01*
X149311833Y-119605280D01*
X149310617Y-119641740D01*
X149309255Y-119670687D01*
X149307739Y-119693063D01*
X149306062Y-119709809D01*
X149304214Y-119721868D01*
X149302187Y-119730180D01*
X149299975Y-119735687D01*
X149298892Y-119737537D01*
X149294729Y-119744549D01*
X149291195Y-119750996D01*
X149287365Y-119756900D01*
X149282318Y-119762286D01*
X149275129Y-119767178D01*
X149264877Y-119771598D01*
X149250636Y-119775572D01*
X149231486Y-119779121D01*
X149206501Y-119782270D01*
X149174760Y-119785042D01*
X149135338Y-119787461D01*
X149087314Y-119789551D01*
X149029763Y-119791335D01*
X148961763Y-119792837D01*
X148882390Y-119794080D01*
X148790721Y-119795089D01*
X148685834Y-119795885D01*
X148566804Y-119796494D01*
X148432710Y-119796939D01*
X148282627Y-119797243D01*
X148115633Y-119797430D01*
X147930804Y-119797524D01*
X147727217Y-119797548D01*
X147503950Y-119797525D01*
X147260078Y-119797480D01*
X146994679Y-119797437D01*
X146956296Y-119797432D01*
X146689318Y-119797389D01*
X146443998Y-119797318D01*
X146219417Y-119797213D01*
X146014655Y-119797066D01*
X145828794Y-119796869D01*
X145660912Y-119796616D01*
X145510092Y-119796300D01*
X145375413Y-119795913D01*
X145255956Y-119795447D01*
X145150801Y-119794897D01*
X145059029Y-119794253D01*
X144979721Y-119793511D01*
X144911957Y-119792661D01*
X144854818Y-119791697D01*
X144807383Y-119790611D01*
X144768734Y-119789397D01*
X144737951Y-119788047D01*
X144714115Y-119786555D01*
X144696306Y-119784911D01*
X144683605Y-119783111D01*
X144675092Y-119781145D01*
X144670734Y-119779477D01*
X144662272Y-119775906D01*
X144654503Y-119773270D01*
X144647398Y-119770634D01*
X144640927Y-119767062D01*
X144635061Y-119761621D01*
X144629771Y-119753375D01*
X144625026Y-119741390D01*
X144620798Y-119724731D01*
X144617057Y-119702463D01*
X144613773Y-119673652D01*
X144610917Y-119637363D01*
X144608460Y-119592661D01*
X144606371Y-119538611D01*
X144604622Y-119474279D01*
X144603183Y-119398730D01*
X144602024Y-119311030D01*
X144601117Y-119210243D01*
X144600431Y-119095434D01*
X144599937Y-118965670D01*
X144599605Y-118820015D01*
X144599407Y-118657535D01*
X144599313Y-118477295D01*
X144599292Y-118278360D01*
X144599315Y-118059796D01*
X144599354Y-117820668D01*
X144599378Y-117560040D01*
X144599378Y-117517889D01*
X144599364Y-117254992D01*
X144599339Y-117013732D01*
X144599329Y-116793165D01*
X144599358Y-116592352D01*
X144599452Y-116410349D01*
X144599638Y-116246216D01*
X144599941Y-116099011D01*
X144600386Y-115967792D01*
X144600966Y-115857867D01*
X144903803Y-115857867D01*
X144943593Y-115915711D01*
X144954764Y-115931479D01*
X144964834Y-115945441D01*
X144973862Y-115958784D01*
X144981903Y-115972693D01*
X144989014Y-115988356D01*
X144995253Y-116006958D01*
X145000675Y-116029686D01*
X145005338Y-116057727D01*
X145009299Y-116092267D01*
X145012615Y-116134492D01*
X145015341Y-116185589D01*
X145017536Y-116246744D01*
X145019255Y-116319144D01*
X145020556Y-116403975D01*
X145021495Y-116502422D01*
X145022130Y-116615674D01*
X145022516Y-116744916D01*
X145022712Y-116891334D01*
X145022773Y-117056116D01*
X145022757Y-117240447D01*
X145022720Y-117445513D01*
X145022711Y-117568133D01*
X145022735Y-117785082D01*
X145022769Y-117980642D01*
X145022757Y-118155999D01*
X145022642Y-118312341D01*
X145022370Y-118450857D01*
X145021882Y-118572734D01*
X145021124Y-118679160D01*
X145020038Y-118771322D01*
X145018569Y-118850409D01*
X145016660Y-118917608D01*
X145014256Y-118974107D01*
X145011299Y-119021093D01*
X145007734Y-119059755D01*
X145003505Y-119091280D01*
X144998554Y-119116855D01*
X144992827Y-119137670D01*
X144986267Y-119154911D01*
X144978817Y-119169765D01*
X144970421Y-119183422D01*
X144961024Y-119197069D01*
X144950568Y-119211893D01*
X144944477Y-119220783D01*
X144905704Y-119278400D01*
X145437268Y-119278400D01*
X145560517Y-119278365D01*
X145663013Y-119278215D01*
X145746580Y-119277878D01*
X145813044Y-119277286D01*
X145864229Y-119276367D01*
X145901959Y-119275051D01*
X145928060Y-119273269D01*
X145944356Y-119270951D01*
X145952672Y-119268026D01*
X145954832Y-119264424D01*
X145952661Y-119260075D01*
X145951465Y-119258645D01*
X145926315Y-119221573D01*
X145900417Y-119168772D01*
X145876808Y-119106770D01*
X145868539Y-119080357D01*
X145863922Y-119062416D01*
X145860021Y-119041355D01*
X145856752Y-119015089D01*
X145854034Y-118981532D01*
X145851785Y-118938599D01*
X145849923Y-118884204D01*
X145848364Y-118816262D01*
X145847028Y-118732688D01*
X145845831Y-118631395D01*
X145844692Y-118510300D01*
X145844315Y-118465600D01*
X145843298Y-118340449D01*
X145842540Y-118236082D01*
X145842097Y-118150707D01*
X145842030Y-118082533D01*
X145842395Y-118029765D01*
X145843252Y-117990614D01*
X145844659Y-117963285D01*
X145846675Y-117945986D01*
X145849357Y-117936926D01*
X145852764Y-117934312D01*
X145856956Y-117936351D01*
X145861429Y-117940667D01*
X145871784Y-117953602D01*
X145893842Y-117982676D01*
X145926043Y-118025759D01*
X145966826Y-118080718D01*
X146014630Y-118145423D01*
X146067895Y-118217742D01*
X146125060Y-118295544D01*
X146184563Y-118376698D01*
X146244845Y-118459072D01*
X146304345Y-118540536D01*
X146361502Y-118618957D01*
X146414755Y-118692204D01*
X146462543Y-118758147D01*
X146503307Y-118814654D01*
X146535484Y-118859593D01*
X146557515Y-118890834D01*
X146562083Y-118897466D01*
X146585004Y-118934369D01*
X146611812Y-118982359D01*
X146637211Y-119031897D01*
X146640432Y-119038577D01*
X146662110Y-119086772D01*
X146674696Y-119124334D01*
X146680426Y-119160160D01*
X146681544Y-119202200D01*
X146680910Y-119278400D01*
X147835349Y-119278400D01*
X147744185Y-119184669D01*
X147697388Y-119134775D01*
X147647101Y-119078295D01*
X147601056Y-119024026D01*
X147580631Y-118998673D01*
X147550193Y-118959128D01*
X147510138Y-118905916D01*
X147461639Y-118840667D01*
X147405865Y-118765011D01*
X147343989Y-118680577D01*
X147277181Y-118588994D01*
X147206613Y-118491892D01*
X147133455Y-118390901D01*
X147058879Y-118287650D01*
X146984056Y-118183768D01*
X146910157Y-118080885D01*
X146838354Y-117980631D01*
X146769816Y-117884636D01*
X146705716Y-117794527D01*
X146647225Y-117711936D01*
X146595514Y-117638492D01*
X146551753Y-117575824D01*
X146517115Y-117525561D01*
X146492770Y-117489334D01*
X146479889Y-117468771D01*
X146478131Y-117464668D01*
X146486090Y-117453342D01*
X146506885Y-117426162D01*
X146539153Y-117384829D01*
X146581530Y-117331044D01*
X146632653Y-117266506D01*
X146691159Y-117192918D01*
X146755686Y-117111978D01*
X146824869Y-117025388D01*
X146897347Y-116934848D01*
X146971754Y-116842060D01*
X147031483Y-116767702D01*
X148042489Y-116767702D01*
X148048398Y-116780659D01*
X148062728Y-116802908D01*
X148063775Y-116804391D01*
X148082562Y-116834544D01*
X148102209Y-116871375D01*
X148106108Y-116879511D01*
X148109644Y-116887940D01*
X148112770Y-116898059D01*
X148115514Y-116911260D01*
X148117908Y-116928938D01*
X148119981Y-116952484D01*
X148121765Y-116983293D01*
X148123288Y-117022757D01*
X148124581Y-117072269D01*
X148125674Y-117133223D01*
X148126597Y-117207011D01*
X148127381Y-117295028D01*
X148128055Y-117398665D01*
X148128650Y-117519316D01*
X148129195Y-117658374D01*
X148129721Y-117817232D01*
X148130255Y-117996089D01*
X148130794Y-118181207D01*
X148131228Y-118345145D01*
X148131491Y-118489303D01*
X148131516Y-118615079D01*
X148131235Y-118723871D01*
X148130581Y-118817077D01*
X148129486Y-118896097D01*
X148127882Y-118962328D01*
X148125703Y-119017170D01*
X148122881Y-119062021D01*
X148119349Y-119098278D01*
X148115039Y-119127341D01*
X148109883Y-119150609D01*
X148103815Y-119169479D01*
X148096767Y-119185351D01*
X148088671Y-119199622D01*
X148079460Y-119213691D01*
X148070960Y-119226158D01*
X148053824Y-119252452D01*
X148043678Y-119270037D01*
X148042489Y-119273257D01*
X148053396Y-119274334D01*
X148084589Y-119275335D01*
X148133777Y-119276235D01*
X148198667Y-119277010D01*
X148276970Y-119277637D01*
X148366393Y-119278091D01*
X148464644Y-119278349D01*
X148533555Y-119278400D01*
X148638548Y-119278180D01*
X148735390Y-119277548D01*
X148821893Y-119276549D01*
X148895868Y-119275227D01*
X148955126Y-119273626D01*
X148997480Y-119271791D01*
X149020740Y-119269765D01*
X149024622Y-119268493D01*
X149016924Y-119253591D01*
X149008926Y-119245560D01*
X148995754Y-119228434D01*
X148978515Y-119198183D01*
X148966593Y-119173622D01*
X148939955Y-119114711D01*
X148936880Y-117937845D01*
X148933805Y-116760978D01*
X148488147Y-116760978D01*
X148390330Y-116761142D01*
X148299936Y-116761611D01*
X148219370Y-116762347D01*
X148151038Y-116763316D01*
X148097344Y-116764480D01*
X148060695Y-116765803D01*
X148043496Y-116767249D01*
X148042489Y-116767702D01*
X147031483Y-116767702D01*
X147046730Y-116748722D01*
X147120910Y-116656537D01*
X147192931Y-116567204D01*
X147261431Y-116482424D01*
X147325045Y-116403898D01*
X147382412Y-116333326D01*
X147432167Y-116272409D01*
X147472948Y-116222847D01*
X147490112Y-116202178D01*
X147576404Y-116101516D01*
X147653003Y-116018259D01*
X147721817Y-115950438D01*
X147784752Y-115896089D01*
X147794133Y-115888722D01*
X147833644Y-115858117D01*
X146701884Y-115857867D01*
X146707173Y-115905844D01*
X146703870Y-115963188D01*
X146682339Y-116031463D01*
X146642365Y-116111212D01*
X146597057Y-116183495D01*
X146580839Y-116206140D01*
X146552786Y-116243696D01*
X146514570Y-116294021D01*
X146467863Y-116354973D01*
X146414339Y-116424411D01*
X146355669Y-116500194D01*
X146293525Y-116580180D01*
X146229579Y-116662228D01*
X146165505Y-116744196D01*
X146102973Y-116823943D01*
X146043657Y-116899327D01*
X145989229Y-116968207D01*
X145941361Y-117028442D01*
X145901725Y-117077889D01*
X145871994Y-117114408D01*
X145853839Y-117135858D01*
X145850780Y-117139156D01*
X145847921Y-117131149D01*
X145845707Y-117100855D01*
X145844143Y-117048556D01*
X145843233Y-116974531D01*
X145842980Y-116879063D01*
X145843387Y-116762434D01*
X145844296Y-116642445D01*
X145845618Y-116510333D01*
X145847143Y-116398594D01*
X145849119Y-116305025D01*
X145851794Y-116227419D01*
X145855418Y-116163574D01*
X145860239Y-116111283D01*
X145866506Y-116068344D01*
X145874468Y-116032551D01*
X145884373Y-116001700D01*
X145896469Y-115973586D01*
X145911007Y-115946005D01*
X145925689Y-115920966D01*
X145963686Y-115857867D01*
X144903803Y-115857867D01*
X144600966Y-115857867D01*
X144600999Y-115851617D01*
X144601805Y-115749544D01*
X144602830Y-115660633D01*
X144604100Y-115583941D01*
X144605640Y-115518527D01*
X144607476Y-115463449D01*
X144609633Y-115417765D01*
X144612137Y-115380534D01*
X144615013Y-115350813D01*
X144618287Y-115327662D01*
X144621985Y-115310139D01*
X144626131Y-115297301D01*
X144630753Y-115288208D01*
X144635874Y-115281918D01*
X144641522Y-115277488D01*
X144647721Y-115273978D01*
X144654496Y-115270445D01*
X144660492Y-115266876D01*
X144665725Y-115264300D01*
X144673901Y-115261972D01*
X144686114Y-115259878D01*
X144703459Y-115258007D01*
X144727031Y-115256347D01*
X144757923Y-115254884D01*
X144797232Y-115253608D01*
X144846050Y-115252504D01*
X144905473Y-115251561D01*
X144976596Y-115250767D01*
X145060512Y-115250109D01*
X145158317Y-115249575D01*
X145271106Y-115249153D01*
X145399971Y-115248829D01*
X145546009Y-115248592D01*
X145710314Y-115248430D01*
X145893980Y-115248330D01*
X146098103Y-115248280D01*
X146309247Y-115248267D01*
X147929600Y-115248267D01*
X147929600Y-115345054D01*
G36*
X148602957Y-114882571D02*
G01*
X148699232Y-114906809D01*
X148785816Y-114949641D01*
X148860627Y-115009419D01*
X148921582Y-115084494D01*
X148966601Y-115173220D01*
X148992864Y-115269530D01*
X148998714Y-115366795D01*
X148983860Y-115460654D01*
X148950160Y-115548511D01*
X148899472Y-115627770D01*
X148833655Y-115695836D01*
X148754566Y-115750112D01*
X148664066Y-115788002D01*
X148612800Y-115800426D01*
X148568302Y-115807947D01*
X148534001Y-115810919D01*
X148501040Y-115809094D01*
X148460566Y-115802225D01*
X148427469Y-115795250D01*
X148334053Y-115763741D01*
X148250381Y-115712617D01*
X148178335Y-115643429D01*
X148119800Y-115557728D01*
X148105852Y-115530489D01*
X148089414Y-115494122D01*
X148079106Y-115463582D01*
X148073540Y-115431450D01*
X148071331Y-115390307D01*
X148071052Y-115344222D01*
X148075139Y-115259865D01*
X148088554Y-115190586D01*
X148113744Y-115129961D01*
X148153154Y-115071567D01*
X148191702Y-115027302D01*
X148263594Y-114961484D01*
X148338687Y-114916053D01*
X148421438Y-114888850D01*
X148499072Y-114878576D01*
X148602957Y-114882571D01*
G37*
X148602957Y-114882571D02*
X148699232Y-114906809D01*
X148785816Y-114949641D01*
X148860627Y-115009419D01*
X148921582Y-115084494D01*
X148966601Y-115173220D01*
X148992864Y-115269530D01*
X148998714Y-115366795D01*
X148983860Y-115460654D01*
X148950160Y-115548511D01*
X148899472Y-115627770D01*
X148833655Y-115695836D01*
X148754566Y-115750112D01*
X148664066Y-115788002D01*
X148612800Y-115800426D01*
X148568302Y-115807947D01*
X148534001Y-115810919D01*
X148501040Y-115809094D01*
X148460566Y-115802225D01*
X148427469Y-115795250D01*
X148334053Y-115763741D01*
X148250381Y-115712617D01*
X148178335Y-115643429D01*
X148119800Y-115557728D01*
X148105852Y-115530489D01*
X148089414Y-115494122D01*
X148079106Y-115463582D01*
X148073540Y-115431450D01*
X148071331Y-115390307D01*
X148071052Y-115344222D01*
X148075139Y-115259865D01*
X148088554Y-115190586D01*
X148113744Y-115129961D01*
X148153154Y-115071567D01*
X148191702Y-115027302D01*
X148263594Y-114961484D01*
X148338687Y-114916053D01*
X148421438Y-114888850D01*
X148499072Y-114878576D01*
X148602957Y-114882571D01*
G36*
X149575886Y-120129448D02*
G01*
X149599452Y-120143273D01*
X149630265Y-120165881D01*
X149669922Y-120198338D01*
X149720020Y-120241708D01*
X149782157Y-120297058D01*
X149857928Y-120365451D01*
X149944666Y-120444084D01*
X150125289Y-120607878D01*
X150130933Y-120388029D01*
X150132971Y-120312351D01*
X150134937Y-120255994D01*
X150137266Y-120215706D01*
X150140394Y-120188235D01*
X150144755Y-120170329D01*
X150150784Y-120158737D01*
X150158916Y-120150208D01*
X150163228Y-120146623D01*
X150197759Y-120127670D01*
X150230617Y-120130441D01*
X150256682Y-120146633D01*
X150283333Y-120168199D01*
X150286648Y-120483151D01*
X150287565Y-120575779D01*
X150288032Y-120648544D01*
X150287887Y-120704161D01*
X150286968Y-120745342D01*
X150285113Y-120774803D01*
X150282161Y-120795255D01*
X150277950Y-120809413D01*
X150272318Y-120819991D01*
X150266073Y-120828474D01*
X150252561Y-120844207D01*
X150239117Y-120854636D01*
X150223876Y-120858639D01*
X150204974Y-120855094D01*
X150180545Y-120842879D01*
X150148727Y-120820871D01*
X150107652Y-120787949D01*
X150055458Y-120742991D01*
X149990278Y-120684875D01*
X149916444Y-120618099D01*
X149651155Y-120377458D01*
X149645511Y-120596589D01*
X149643469Y-120672128D01*
X149641498Y-120728354D01*
X149639161Y-120768524D01*
X149636019Y-120795896D01*
X149631636Y-120813728D01*
X149625576Y-120825279D01*
X149617400Y-120833807D01*
X149613216Y-120837282D01*
X149576235Y-120856372D01*
X149541292Y-120853493D01*
X149510864Y-120829100D01*
X149503903Y-120819286D01*
X149498477Y-120807826D01*
X149494397Y-120791968D01*
X149491471Y-120768963D01*
X149489508Y-120736062D01*
X149488317Y-120690516D01*
X149487708Y-120629573D01*
X149487489Y-120550486D01*
X149487466Y-120491956D01*
X149487540Y-120400407D01*
X149487887Y-120328687D01*
X149488699Y-120274045D01*
X149490167Y-120233732D01*
X149492481Y-120204998D01*
X149495833Y-120185093D01*
X149500412Y-120171268D01*
X149506411Y-120160772D01*
X149510864Y-120154811D01*
X149522150Y-120140691D01*
X149532699Y-120130029D01*
X149544107Y-120123892D01*
X149557970Y-120123343D01*
X149575886Y-120129448D01*
G37*
X149575886Y-120129448D02*
X149599452Y-120143273D01*
X149630265Y-120165881D01*
X149669922Y-120198338D01*
X149720020Y-120241708D01*
X149782157Y-120297058D01*
X149857928Y-120365451D01*
X149944666Y-120444084D01*
X150125289Y-120607878D01*
X150130933Y-120388029D01*
X150132971Y-120312351D01*
X150134937Y-120255994D01*
X150137266Y-120215706D01*
X150140394Y-120188235D01*
X150144755Y-120170329D01*
X150150784Y-120158737D01*
X150158916Y-120150208D01*
X150163228Y-120146623D01*
X150197759Y-120127670D01*
X150230617Y-120130441D01*
X150256682Y-120146633D01*
X150283333Y-120168199D01*
X150286648Y-120483151D01*
X150287565Y-120575779D01*
X150288032Y-120648544D01*
X150287887Y-120704161D01*
X150286968Y-120745342D01*
X150285113Y-120774803D01*
X150282161Y-120795255D01*
X150277950Y-120809413D01*
X150272318Y-120819991D01*
X150266073Y-120828474D01*
X150252561Y-120844207D01*
X150239117Y-120854636D01*
X150223876Y-120858639D01*
X150204974Y-120855094D01*
X150180545Y-120842879D01*
X150148727Y-120820871D01*
X150107652Y-120787949D01*
X150055458Y-120742991D01*
X149990278Y-120684875D01*
X149916444Y-120618099D01*
X149651155Y-120377458D01*
X149645511Y-120596589D01*
X149643469Y-120672128D01*
X149641498Y-120728354D01*
X149639161Y-120768524D01*
X149636019Y-120795896D01*
X149631636Y-120813728D01*
X149625576Y-120825279D01*
X149617400Y-120833807D01*
X149613216Y-120837282D01*
X149576235Y-120856372D01*
X149541292Y-120853493D01*
X149510864Y-120829100D01*
X149503903Y-120819286D01*
X149498477Y-120807826D01*
X149494397Y-120791968D01*
X149491471Y-120768963D01*
X149489508Y-120736062D01*
X149488317Y-120690516D01*
X149487708Y-120629573D01*
X149487489Y-120550486D01*
X149487466Y-120491956D01*
X149487540Y-120400407D01*
X149487887Y-120328687D01*
X149488699Y-120274045D01*
X149490167Y-120233732D01*
X149492481Y-120204998D01*
X149495833Y-120185093D01*
X149500412Y-120171268D01*
X149506411Y-120160772D01*
X149510864Y-120154811D01*
X149522150Y-120140691D01*
X149532699Y-120130029D01*
X149544107Y-120123892D01*
X149557970Y-120123343D01*
X149575886Y-120129448D01*
G36*
X146163206Y-120125146D02*
G01*
X146232614Y-120125518D01*
X146285003Y-120126385D01*
X146323153Y-120127946D01*
X146349841Y-120130403D01*
X146367847Y-120133957D01*
X146379951Y-120138810D01*
X146388931Y-120145161D01*
X146392182Y-120148084D01*
X146411957Y-120179142D01*
X146415518Y-120214828D01*
X146402509Y-120246510D01*
X146396494Y-120252913D01*
X146386765Y-120259121D01*
X146371099Y-120263910D01*
X146346592Y-120267514D01*
X146310339Y-120270164D01*
X146259435Y-120272095D01*
X146190974Y-120273539D01*
X146128383Y-120274418D01*
X145880666Y-120277467D01*
X145877281Y-120342378D01*
X145873895Y-120407289D01*
X146042042Y-120407289D01*
X146115041Y-120407919D01*
X146168483Y-120410553D01*
X146205372Y-120416309D01*
X146228712Y-120426304D01*
X146241506Y-120441656D01*
X146246758Y-120463482D01*
X146247555Y-120483738D01*
X146245077Y-120508592D01*
X146235723Y-120526906D01*
X146216617Y-120539637D01*
X146184882Y-120547741D01*
X146137641Y-120552176D01*
X146072017Y-120553899D01*
X146036199Y-120554045D01*
X145875022Y-120554045D01*
X145875022Y-120712089D01*
X146123378Y-120712089D01*
X146204787Y-120712202D01*
X146266658Y-120712712D01*
X146312032Y-120713870D01*
X146343946Y-120715930D01*
X146365441Y-120719146D01*
X146379557Y-120723772D01*
X146389332Y-120730059D01*
X146394311Y-120734667D01*
X146411390Y-120761560D01*
X146416889Y-120785467D01*
X146409037Y-120814667D01*
X146394311Y-120836267D01*
X146386454Y-120843066D01*
X146376312Y-120848346D01*
X146361156Y-120852298D01*
X146338259Y-120855113D01*
X146304891Y-120856982D01*
X146258325Y-120858098D01*
X146195833Y-120858651D01*
X146114686Y-120858833D01*
X146072578Y-120858845D01*
X145982402Y-120858765D01*
X145912076Y-120858398D01*
X145858871Y-120857552D01*
X145820060Y-120856036D01*
X145792913Y-120853659D01*
X145774702Y-120850229D01*
X145762700Y-120845554D01*
X145754178Y-120839444D01*
X145750844Y-120836267D01*
X145744245Y-120828670D01*
X145739073Y-120818870D01*
X145735154Y-120804239D01*
X145732316Y-120782152D01*
X145730385Y-120749982D01*
X145729188Y-120705103D01*
X145728552Y-120644889D01*
X145728303Y-120566713D01*
X145728266Y-120493923D01*
X145728300Y-120400707D01*
X145728535Y-120327431D01*
X145729170Y-120271458D01*
X145730406Y-120230151D01*
X145732444Y-120200872D01*
X145735483Y-120180984D01*
X145739723Y-120167850D01*
X145745365Y-120158832D01*
X145752609Y-120151293D01*
X145754394Y-120149612D01*
X145763055Y-120142172D01*
X145773118Y-120136409D01*
X145787375Y-120132112D01*
X145808617Y-120129064D01*
X145839636Y-120127051D01*
X145883223Y-120125860D01*
X145942169Y-120125275D01*
X146019266Y-120125083D01*
X146073999Y-120125067D01*
X146163206Y-120125146D01*
G37*
X146163206Y-120125146D02*
X146232614Y-120125518D01*
X146285003Y-120126385D01*
X146323153Y-120127946D01*
X146349841Y-120130403D01*
X146367847Y-120133957D01*
X146379951Y-120138810D01*
X146388931Y-120145161D01*
X146392182Y-120148084D01*
X146411957Y-120179142D01*
X146415518Y-120214828D01*
X146402509Y-120246510D01*
X146396494Y-120252913D01*
X146386765Y-120259121D01*
X146371099Y-120263910D01*
X146346592Y-120267514D01*
X146310339Y-120270164D01*
X146259435Y-120272095D01*
X146190974Y-120273539D01*
X146128383Y-120274418D01*
X145880666Y-120277467D01*
X145877281Y-120342378D01*
X145873895Y-120407289D01*
X146042042Y-120407289D01*
X146115041Y-120407919D01*
X146168483Y-120410553D01*
X146205372Y-120416309D01*
X146228712Y-120426304D01*
X146241506Y-120441656D01*
X146246758Y-120463482D01*
X146247555Y-120483738D01*
X146245077Y-120508592D01*
X146235723Y-120526906D01*
X146216617Y-120539637D01*
X146184882Y-120547741D01*
X146137641Y-120552176D01*
X146072017Y-120553899D01*
X146036199Y-120554045D01*
X145875022Y-120554045D01*
X145875022Y-120712089D01*
X146123378Y-120712089D01*
X146204787Y-120712202D01*
X146266658Y-120712712D01*
X146312032Y-120713870D01*
X146343946Y-120715930D01*
X146365441Y-120719146D01*
X146379557Y-120723772D01*
X146389332Y-120730059D01*
X146394311Y-120734667D01*
X146411390Y-120761560D01*
X146416889Y-120785467D01*
X146409037Y-120814667D01*
X146394311Y-120836267D01*
X146386454Y-120843066D01*
X146376312Y-120848346D01*
X146361156Y-120852298D01*
X146338259Y-120855113D01*
X146304891Y-120856982D01*
X146258325Y-120858098D01*
X146195833Y-120858651D01*
X146114686Y-120858833D01*
X146072578Y-120858845D01*
X145982402Y-120858765D01*
X145912076Y-120858398D01*
X145858871Y-120857552D01*
X145820060Y-120856036D01*
X145792913Y-120853659D01*
X145774702Y-120850229D01*
X145762700Y-120845554D01*
X145754178Y-120839444D01*
X145750844Y-120836267D01*
X145744245Y-120828670D01*
X145739073Y-120818870D01*
X145735154Y-120804239D01*
X145732316Y-120782152D01*
X145730385Y-120749982D01*
X145729188Y-120705103D01*
X145728552Y-120644889D01*
X145728303Y-120566713D01*
X145728266Y-120493923D01*
X145728300Y-120400707D01*
X145728535Y-120327431D01*
X145729170Y-120271458D01*
X145730406Y-120230151D01*
X145732444Y-120200872D01*
X145735483Y-120180984D01*
X145739723Y-120167850D01*
X145745365Y-120158832D01*
X145752609Y-120151293D01*
X145754394Y-120149612D01*
X145763055Y-120142172D01*
X145773118Y-120136409D01*
X145787375Y-120132112D01*
X145808617Y-120129064D01*
X145839636Y-120127051D01*
X145883223Y-120125860D01*
X145942169Y-120125275D01*
X146019266Y-120125083D01*
X146073999Y-120125067D01*
X146163206Y-120125146D01*
G36*
X151106343Y-120125260D02*
G01*
X151182701Y-120126174D01*
X151241217Y-120128311D01*
X151284255Y-120132175D01*
X151314183Y-120138267D01*
X151333368Y-120147090D01*
X151344176Y-120159146D01*
X151348973Y-120174939D01*
X151350127Y-120194970D01*
X151350133Y-120197335D01*
X151349131Y-120219992D01*
X151344396Y-120237503D01*
X151333333Y-120250574D01*
X151313348Y-120259913D01*
X151281846Y-120266227D01*
X151236232Y-120270222D01*
X151173913Y-120272606D01*
X151092293Y-120274086D01*
X151067277Y-120274414D01*
X150825200Y-120277467D01*
X150821814Y-120342378D01*
X150818429Y-120407289D01*
X150986576Y-120407289D01*
X151052266Y-120407531D01*
X151099172Y-120408556D01*
X151131083Y-120410811D01*
X151151791Y-120414742D01*
X151165084Y-120420798D01*
X151174755Y-120429424D01*
X151174817Y-120429493D01*
X151192356Y-120463112D01*
X151191722Y-120499448D01*
X151173314Y-120530423D01*
X151169671Y-120533607D01*
X151156741Y-120541812D01*
X151139024Y-120547521D01*
X151112570Y-120551162D01*
X151073432Y-120553167D01*
X151017662Y-120553964D01*
X150981994Y-120554045D01*
X150819555Y-120554045D01*
X150819555Y-120712089D01*
X151066161Y-120712089D01*
X151147580Y-120712231D01*
X151209410Y-120712814D01*
X151254637Y-120714068D01*
X151286248Y-120716227D01*
X151307231Y-120719523D01*
X151320573Y-120724189D01*
X151329261Y-120730457D01*
X151331450Y-120732733D01*
X151347614Y-120764280D01*
X151348797Y-120800168D01*
X151335536Y-120831285D01*
X151325043Y-120841271D01*
X151314129Y-120846769D01*
X151297217Y-120851022D01*
X151271633Y-120854180D01*
X151234701Y-120856392D01*
X151183746Y-120857806D01*
X151116094Y-120858572D01*
X151029069Y-120858838D01*
X151009394Y-120858845D01*
X150920911Y-120858787D01*
X150852227Y-120858467D01*
X150800564Y-120857667D01*
X150763145Y-120856167D01*
X150737190Y-120853749D01*
X150719922Y-120850194D01*
X150708562Y-120845282D01*
X150700332Y-120838795D01*
X150695817Y-120834138D01*
X150689021Y-120825889D01*
X150683712Y-120815669D01*
X150679706Y-120800800D01*
X150676821Y-120778602D01*
X150674874Y-120746393D01*
X150673681Y-120701496D01*
X150673061Y-120641228D01*
X150672829Y-120562911D01*
X150672800Y-120496994D01*
X150672871Y-120404628D01*
X150673208Y-120332117D01*
X150673998Y-120276737D01*
X150675426Y-120235765D01*
X150677679Y-120206478D01*
X150680943Y-120186153D01*
X150685404Y-120172066D01*
X150691248Y-120161495D01*
X150696197Y-120154811D01*
X150719594Y-120125067D01*
X151009774Y-120125067D01*
X151106343Y-120125260D01*
G37*
X151106343Y-120125260D02*
X151182701Y-120126174D01*
X151241217Y-120128311D01*
X151284255Y-120132175D01*
X151314183Y-120138267D01*
X151333368Y-120147090D01*
X151344176Y-120159146D01*
X151348973Y-120174939D01*
X151350127Y-120194970D01*
X151350133Y-120197335D01*
X151349131Y-120219992D01*
X151344396Y-120237503D01*
X151333333Y-120250574D01*
X151313348Y-120259913D01*
X151281846Y-120266227D01*
X151236232Y-120270222D01*
X151173913Y-120272606D01*
X151092293Y-120274086D01*
X151067277Y-120274414D01*
X150825200Y-120277467D01*
X150821814Y-120342378D01*
X150818429Y-120407289D01*
X150986576Y-120407289D01*
X151052266Y-120407531D01*
X151099172Y-120408556D01*
X151131083Y-120410811D01*
X151151791Y-120414742D01*
X151165084Y-120420798D01*
X151174755Y-120429424D01*
X151174817Y-120429493D01*
X151192356Y-120463112D01*
X151191722Y-120499448D01*
X151173314Y-120530423D01*
X151169671Y-120533607D01*
X151156741Y-120541812D01*
X151139024Y-120547521D01*
X151112570Y-120551162D01*
X151073432Y-120553167D01*
X151017662Y-120553964D01*
X150981994Y-120554045D01*
X150819555Y-120554045D01*
X150819555Y-120712089D01*
X151066161Y-120712089D01*
X151147580Y-120712231D01*
X151209410Y-120712814D01*
X151254637Y-120714068D01*
X151286248Y-120716227D01*
X151307231Y-120719523D01*
X151320573Y-120724189D01*
X151329261Y-120730457D01*
X151331450Y-120732733D01*
X151347614Y-120764280D01*
X151348797Y-120800168D01*
X151335536Y-120831285D01*
X151325043Y-120841271D01*
X151314129Y-120846769D01*
X151297217Y-120851022D01*
X151271633Y-120854180D01*
X151234701Y-120856392D01*
X151183746Y-120857806D01*
X151116094Y-120858572D01*
X151029069Y-120858838D01*
X151009394Y-120858845D01*
X150920911Y-120858787D01*
X150852227Y-120858467D01*
X150800564Y-120857667D01*
X150763145Y-120856167D01*
X150737190Y-120853749D01*
X150719922Y-120850194D01*
X150708562Y-120845282D01*
X150700332Y-120838795D01*
X150695817Y-120834138D01*
X150689021Y-120825889D01*
X150683712Y-120815669D01*
X150679706Y-120800800D01*
X150676821Y-120778602D01*
X150674874Y-120746393D01*
X150673681Y-120701496D01*
X150673061Y-120641228D01*
X150672829Y-120562911D01*
X150672800Y-120496994D01*
X150672871Y-120404628D01*
X150673208Y-120332117D01*
X150673998Y-120276737D01*
X150675426Y-120235765D01*
X150677679Y-120206478D01*
X150680943Y-120186153D01*
X150685404Y-120172066D01*
X150691248Y-120161495D01*
X150696197Y-120154811D01*
X150719594Y-120125067D01*
X151009774Y-120125067D01*
X151106343Y-120125260D01*
G36*
X155064614Y-120131877D02*
G01*
X155088327Y-120146647D01*
X155114978Y-120168227D01*
X155114978Y-120489773D01*
X155114893Y-120583830D01*
X155114529Y-120657932D01*
X155113724Y-120714704D01*
X155112313Y-120756768D01*
X155110133Y-120786748D01*
X155107021Y-120807267D01*
X155102814Y-120820949D01*
X155097348Y-120830416D01*
X155093472Y-120835082D01*
X155062034Y-120855575D01*
X155026233Y-120854739D01*
X154994873Y-120837264D01*
X154968222Y-120815684D01*
X154968222Y-120168227D01*
X154994873Y-120146647D01*
X155020594Y-120130949D01*
X155041600Y-120125067D01*
X155064614Y-120131877D01*
G37*
X155064614Y-120131877D02*
X155088327Y-120146647D01*
X155114978Y-120168227D01*
X155114978Y-120489773D01*
X155114893Y-120583830D01*
X155114529Y-120657932D01*
X155113724Y-120714704D01*
X155112313Y-120756768D01*
X155110133Y-120786748D01*
X155107021Y-120807267D01*
X155102814Y-120820949D01*
X155097348Y-120830416D01*
X155093472Y-120835082D01*
X155062034Y-120855575D01*
X155026233Y-120854739D01*
X154994873Y-120837264D01*
X154968222Y-120815684D01*
X154968222Y-120168227D01*
X154994873Y-120146647D01*
X155020594Y-120130949D01*
X155041600Y-120125067D01*
X155064614Y-120131877D01*
G36*
X157104823Y-120130533D02*
G01*
X157136202Y-120152776D01*
X157163911Y-120180485D01*
X157163911Y-120489920D01*
X157163838Y-120581799D01*
X157163495Y-120653840D01*
X157162692Y-120708780D01*
X157161241Y-120749360D01*
X157158952Y-120778317D01*
X157155636Y-120798391D01*
X157151105Y-120812321D01*
X157145169Y-120822845D01*
X157140514Y-120829100D01*
X157109783Y-120853673D01*
X157074496Y-120856341D01*
X157042245Y-120841271D01*
X157031588Y-120832374D01*
X157024464Y-120820557D01*
X157020167Y-120801526D01*
X157017991Y-120770992D01*
X157017228Y-120724662D01*
X157017155Y-120688871D01*
X157017155Y-120554045D01*
X156520444Y-120554045D01*
X156520444Y-120676700D01*
X156519931Y-120732787D01*
X156517876Y-120771333D01*
X156513508Y-120797361D01*
X156506056Y-120815897D01*
X156497047Y-120829100D01*
X156466144Y-120853604D01*
X156431196Y-120856506D01*
X156397738Y-120839089D01*
X156388604Y-120829959D01*
X156382152Y-120817855D01*
X156377897Y-120799001D01*
X156375352Y-120769620D01*
X156374029Y-120725937D01*
X156373443Y-120664175D01*
X156373375Y-120650000D01*
X156372891Y-120533631D01*
X156372641Y-120437727D01*
X156372723Y-120360177D01*
X156373231Y-120298869D01*
X156374262Y-120251690D01*
X156375913Y-120216530D01*
X156378279Y-120191276D01*
X156381457Y-120173817D01*
X156385544Y-120162041D01*
X156390634Y-120153835D01*
X156396266Y-120147645D01*
X156428128Y-120127844D01*
X156461357Y-120130533D01*
X156492735Y-120152776D01*
X156505433Y-120167126D01*
X156513526Y-120182978D01*
X156518042Y-120205554D01*
X156520006Y-120240078D01*
X156520444Y-120291776D01*
X156520444Y-120407289D01*
X157017155Y-120407289D01*
X157017155Y-120288756D01*
X157017662Y-120234148D01*
X157019698Y-120197275D01*
X157024035Y-120173307D01*
X157031447Y-120157415D01*
X157039733Y-120147645D01*
X157071594Y-120127844D01*
X157104823Y-120130533D01*
G37*
X157104823Y-120130533D02*
X157136202Y-120152776D01*
X157163911Y-120180485D01*
X157163911Y-120489920D01*
X157163838Y-120581799D01*
X157163495Y-120653840D01*
X157162692Y-120708780D01*
X157161241Y-120749360D01*
X157158952Y-120778317D01*
X157155636Y-120798391D01*
X157151105Y-120812321D01*
X157145169Y-120822845D01*
X157140514Y-120829100D01*
X157109783Y-120853673D01*
X157074496Y-120856341D01*
X157042245Y-120841271D01*
X157031588Y-120832374D01*
X157024464Y-120820557D01*
X157020167Y-120801526D01*
X157017991Y-120770992D01*
X157017228Y-120724662D01*
X157017155Y-120688871D01*
X157017155Y-120554045D01*
X156520444Y-120554045D01*
X156520444Y-120676700D01*
X156519931Y-120732787D01*
X156517876Y-120771333D01*
X156513508Y-120797361D01*
X156506056Y-120815897D01*
X156497047Y-120829100D01*
X156466144Y-120853604D01*
X156431196Y-120856506D01*
X156397738Y-120839089D01*
X156388604Y-120829959D01*
X156382152Y-120817855D01*
X156377897Y-120799001D01*
X156375352Y-120769620D01*
X156374029Y-120725937D01*
X156373443Y-120664175D01*
X156373375Y-120650000D01*
X156372891Y-120533631D01*
X156372641Y-120437727D01*
X156372723Y-120360177D01*
X156373231Y-120298869D01*
X156374262Y-120251690D01*
X156375913Y-120216530D01*
X156378279Y-120191276D01*
X156381457Y-120173817D01*
X156385544Y-120162041D01*
X156390634Y-120153835D01*
X156396266Y-120147645D01*
X156428128Y-120127844D01*
X156461357Y-120130533D01*
X156492735Y-120152776D01*
X156505433Y-120167126D01*
X156513526Y-120182978D01*
X156518042Y-120205554D01*
X156520006Y-120240078D01*
X156520444Y-120291776D01*
X156520444Y-120407289D01*
X157017155Y-120407289D01*
X157017155Y-120288756D01*
X157017662Y-120234148D01*
X157019698Y-120197275D01*
X157024035Y-120173307D01*
X157031447Y-120157415D01*
X157039733Y-120147645D01*
X157071594Y-120127844D01*
X157104823Y-120130533D01*
G36*
X148925919Y-120130599D02*
G01*
X148994435Y-120142095D01*
X149047057Y-120159967D01*
X149081292Y-120183499D01*
X149090621Y-120196924D01*
X149100107Y-120228148D01*
X149093723Y-120256395D01*
X149073570Y-120283182D01*
X149042255Y-120295713D01*
X148996817Y-120294696D01*
X148961674Y-120287906D01*
X148883581Y-120274971D01*
X148803774Y-120273742D01*
X148714445Y-120284241D01*
X148689771Y-120288690D01*
X148606709Y-120312108D01*
X148541727Y-120346945D01*
X148495539Y-120392604D01*
X148468855Y-120448494D01*
X148463337Y-120477388D01*
X148466949Y-120536012D01*
X148490271Y-120587879D01*
X148531176Y-120631978D01*
X148587541Y-120667299D01*
X148657240Y-120692829D01*
X148738148Y-120707559D01*
X148828140Y-120710478D01*
X148925090Y-120700575D01*
X148930564Y-120699641D01*
X148969125Y-120692459D01*
X148990506Y-120685521D01*
X148999773Y-120675227D01*
X149001994Y-120657976D01*
X149002044Y-120648841D01*
X149002044Y-120610489D01*
X148933569Y-120610489D01*
X148873100Y-120606347D01*
X148831835Y-120593147D01*
X148807825Y-120569730D01*
X148799123Y-120534936D01*
X148799017Y-120530394D01*
X148804108Y-120500654D01*
X148821567Y-120479419D01*
X148854061Y-120465366D01*
X148904257Y-120457173D01*
X148952877Y-120454161D01*
X149023544Y-120452433D01*
X149074802Y-120455070D01*
X149109761Y-120464800D01*
X149131530Y-120484353D01*
X149143220Y-120516456D01*
X149147940Y-120563838D01*
X149148800Y-120626071D01*
X149147391Y-120695535D01*
X149143152Y-120742786D01*
X149136064Y-120768012D01*
X149134689Y-120769988D01*
X149095772Y-120801508D01*
X149038714Y-120826470D01*
X148967131Y-120844340D01*
X148884642Y-120854586D01*
X148794861Y-120856673D01*
X148701408Y-120850068D01*
X148646444Y-120841956D01*
X148560234Y-120817554D01*
X148480108Y-120777662D01*
X148413023Y-120725887D01*
X148402827Y-120715539D01*
X148369698Y-120672035D01*
X148339806Y-120618118D01*
X148316643Y-120561592D01*
X148303702Y-120510259D01*
X148302142Y-120490544D01*
X148308782Y-120449419D01*
X148326432Y-120398252D01*
X148351703Y-120344394D01*
X148381211Y-120295195D01*
X148407281Y-120262334D01*
X148468235Y-120213452D01*
X148547031Y-120174545D01*
X148640843Y-120146494D01*
X148746850Y-120130179D01*
X148844000Y-120126192D01*
X148925919Y-120130599D01*
G37*
X148925919Y-120130599D02*
X148994435Y-120142095D01*
X149047057Y-120159967D01*
X149081292Y-120183499D01*
X149090621Y-120196924D01*
X149100107Y-120228148D01*
X149093723Y-120256395D01*
X149073570Y-120283182D01*
X149042255Y-120295713D01*
X148996817Y-120294696D01*
X148961674Y-120287906D01*
X148883581Y-120274971D01*
X148803774Y-120273742D01*
X148714445Y-120284241D01*
X148689771Y-120288690D01*
X148606709Y-120312108D01*
X148541727Y-120346945D01*
X148495539Y-120392604D01*
X148468855Y-120448494D01*
X148463337Y-120477388D01*
X148466949Y-120536012D01*
X148490271Y-120587879D01*
X148531176Y-120631978D01*
X148587541Y-120667299D01*
X148657240Y-120692829D01*
X148738148Y-120707559D01*
X148828140Y-120710478D01*
X148925090Y-120700575D01*
X148930564Y-120699641D01*
X148969125Y-120692459D01*
X148990506Y-120685521D01*
X148999773Y-120675227D01*
X149001994Y-120657976D01*
X149002044Y-120648841D01*
X149002044Y-120610489D01*
X148933569Y-120610489D01*
X148873100Y-120606347D01*
X148831835Y-120593147D01*
X148807825Y-120569730D01*
X148799123Y-120534936D01*
X148799017Y-120530394D01*
X148804108Y-120500654D01*
X148821567Y-120479419D01*
X148854061Y-120465366D01*
X148904257Y-120457173D01*
X148952877Y-120454161D01*
X149023544Y-120452433D01*
X149074802Y-120455070D01*
X149109761Y-120464800D01*
X149131530Y-120484353D01*
X149143220Y-120516456D01*
X149147940Y-120563838D01*
X149148800Y-120626071D01*
X149147391Y-120695535D01*
X149143152Y-120742786D01*
X149136064Y-120768012D01*
X149134689Y-120769988D01*
X149095772Y-120801508D01*
X149038714Y-120826470D01*
X148967131Y-120844340D01*
X148884642Y-120854586D01*
X148794861Y-120856673D01*
X148701408Y-120850068D01*
X148646444Y-120841956D01*
X148560234Y-120817554D01*
X148480108Y-120777662D01*
X148413023Y-120725887D01*
X148402827Y-120715539D01*
X148369698Y-120672035D01*
X148339806Y-120618118D01*
X148316643Y-120561592D01*
X148303702Y-120510259D01*
X148302142Y-120490544D01*
X148308782Y-120449419D01*
X148326432Y-120398252D01*
X148351703Y-120344394D01*
X148381211Y-120295195D01*
X148407281Y-120262334D01*
X148468235Y-120213452D01*
X148547031Y-120174545D01*
X148640843Y-120146494D01*
X148746850Y-120130179D01*
X148844000Y-120126192D01*
X148925919Y-120130599D01*
G36*
X151689050Y-120630311D02*
G01*
X151688825Y-120551526D01*
X151688800Y-120489920D01*
X151688800Y-120180485D01*
X151716509Y-120152776D01*
X151728806Y-120141544D01*
X151742103Y-120133853D01*
X151760672Y-120129040D01*
X151788786Y-120126446D01*
X151830717Y-120125410D01*
X151890737Y-120125270D01*
X151894309Y-120125275D01*
X152023288Y-120129636D01*
X152132991Y-120142861D01*
X152225226Y-120165741D01*
X152301802Y-120199070D01*
X152364527Y-120243638D01*
X152415212Y-120300236D01*
X152455663Y-120369658D01*
X152456459Y-120371351D01*
X152480601Y-120433483D01*
X152489203Y-120488509D01*
X152482231Y-120543887D01*
X152459654Y-120607073D01*
X152455372Y-120616689D01*
X152426172Y-120672966D01*
X152393356Y-120716451D01*
X152351002Y-120753417D01*
X152293190Y-120790135D01*
X152289831Y-120792052D01*
X152239504Y-120816227D01*
X152182621Y-120834282D01*
X152115527Y-120846839D01*
X152034565Y-120854522D01*
X151936082Y-120857953D01*
X151901286Y-120858251D01*
X151735594Y-120858845D01*
X151712197Y-120829100D01*
X151705257Y-120819319D01*
X151699842Y-120807897D01*
X151695765Y-120792095D01*
X151692837Y-120769175D01*
X151690867Y-120736396D01*
X151690225Y-120712089D01*
X151846844Y-120712089D01*
X151940726Y-120712089D01*
X151995664Y-120710483D01*
X152052060Y-120706255D01*
X152098345Y-120700292D01*
X152101139Y-120699790D01*
X152183348Y-120677736D01*
X152247114Y-120644600D01*
X152294452Y-120598847D01*
X152327382Y-120538939D01*
X152333108Y-120523061D01*
X152338721Y-120498333D01*
X152336291Y-120473902D01*
X152324467Y-120441400D01*
X152317340Y-120425434D01*
X152294000Y-120383006D01*
X152265880Y-120353240D01*
X152234940Y-120332511D01*
X152172966Y-120305537D01*
X152093651Y-120285998D01*
X152001253Y-120274746D01*
X151934333Y-120272270D01*
X151846844Y-120271822D01*
X151846844Y-120712089D01*
X151690225Y-120712089D01*
X151689668Y-120691021D01*
X151689050Y-120630311D01*
G37*
X151689050Y-120630311D02*
X151688825Y-120551526D01*
X151688800Y-120489920D01*
X151688800Y-120180485D01*
X151716509Y-120152776D01*
X151728806Y-120141544D01*
X151742103Y-120133853D01*
X151760672Y-120129040D01*
X151788786Y-120126446D01*
X151830717Y-120125410D01*
X151890737Y-120125270D01*
X151894309Y-120125275D01*
X152023288Y-120129636D01*
X152132991Y-120142861D01*
X152225226Y-120165741D01*
X152301802Y-120199070D01*
X152364527Y-120243638D01*
X152415212Y-120300236D01*
X152455663Y-120369658D01*
X152456459Y-120371351D01*
X152480601Y-120433483D01*
X152489203Y-120488509D01*
X152482231Y-120543887D01*
X152459654Y-120607073D01*
X152455372Y-120616689D01*
X152426172Y-120672966D01*
X152393356Y-120716451D01*
X152351002Y-120753417D01*
X152293190Y-120790135D01*
X152289831Y-120792052D01*
X152239504Y-120816227D01*
X152182621Y-120834282D01*
X152115527Y-120846839D01*
X152034565Y-120854522D01*
X151936082Y-120857953D01*
X151901286Y-120858251D01*
X151735594Y-120858845D01*
X151712197Y-120829100D01*
X151705257Y-120819319D01*
X151699842Y-120807897D01*
X151695765Y-120792095D01*
X151692837Y-120769175D01*
X151690867Y-120736396D01*
X151690225Y-120712089D01*
X151846844Y-120712089D01*
X151940726Y-120712089D01*
X151995664Y-120710483D01*
X152052060Y-120706255D01*
X152098345Y-120700292D01*
X152101139Y-120699790D01*
X152183348Y-120677736D01*
X152247114Y-120644600D01*
X152294452Y-120598847D01*
X152327382Y-120538939D01*
X152333108Y-120523061D01*
X152338721Y-120498333D01*
X152336291Y-120473902D01*
X152324467Y-120441400D01*
X152317340Y-120425434D01*
X152294000Y-120383006D01*
X152265880Y-120353240D01*
X152234940Y-120332511D01*
X152172966Y-120305537D01*
X152093651Y-120285998D01*
X152001253Y-120274746D01*
X151934333Y-120272270D01*
X151846844Y-120271822D01*
X151846844Y-120712089D01*
X151690225Y-120712089D01*
X151689668Y-120691021D01*
X151689050Y-120630311D01*
G36*
X151204429Y-115805071D02*
G01*
X151364570Y-115826245D01*
X151528510Y-115866385D01*
X151698313Y-115925889D01*
X151876043Y-116005154D01*
X151887310Y-116010699D01*
X151945005Y-116038725D01*
X151996552Y-116062802D01*
X152038191Y-116081249D01*
X152066162Y-116092386D01*
X152075733Y-116094933D01*
X152094950Y-116099941D01*
X152099561Y-116104147D01*
X152094458Y-116114580D01*
X152078418Y-116140868D01*
X152053288Y-116180257D01*
X152020914Y-116229991D01*
X151983143Y-116287315D01*
X151941822Y-116349476D01*
X151898798Y-116413718D01*
X151855917Y-116477285D01*
X151815026Y-116537425D01*
X151777971Y-116591380D01*
X151746600Y-116636397D01*
X151722759Y-116669721D01*
X151708294Y-116688597D01*
X151706309Y-116690787D01*
X151696191Y-116686138D01*
X151673850Y-116668962D01*
X151643280Y-116642440D01*
X151627536Y-116627964D01*
X151531047Y-116552682D01*
X151424336Y-116497241D01*
X151308832Y-116462141D01*
X151185962Y-116447880D01*
X151116561Y-116449051D01*
X150995423Y-116466212D01*
X150886205Y-116502094D01*
X150788582Y-116556959D01*
X150702228Y-116631070D01*
X150626815Y-116724688D01*
X150562018Y-116838076D01*
X150524601Y-116924667D01*
X150480748Y-117060366D01*
X150448428Y-117207850D01*
X150427557Y-117363314D01*
X150418051Y-117522956D01*
X150419827Y-117682973D01*
X150432803Y-117839561D01*
X150456894Y-117988918D01*
X150492018Y-118127240D01*
X150538092Y-118250724D01*
X150554373Y-118284978D01*
X150622620Y-118399064D01*
X150703079Y-118495557D01*
X150794570Y-118573670D01*
X150895911Y-118632617D01*
X151005920Y-118671612D01*
X151123415Y-118689868D01*
X151164883Y-118691211D01*
X151286441Y-118680290D01*
X151406878Y-118647474D01*
X151524666Y-118593439D01*
X151638277Y-118518865D01*
X151729685Y-118440539D01*
X151776215Y-118396008D01*
X151957483Y-118693271D01*
X152002580Y-118767433D01*
X152043819Y-118835646D01*
X152079735Y-118895459D01*
X152108866Y-118944420D01*
X152129750Y-118980079D01*
X152140924Y-118999984D01*
X152142375Y-119003079D01*
X152134146Y-119012718D01*
X152108567Y-119029999D01*
X152068873Y-119053283D01*
X152018297Y-119080934D01*
X151960074Y-119111315D01*
X151897437Y-119142790D01*
X151833621Y-119173722D01*
X151771860Y-119202473D01*
X151715388Y-119227408D01*
X151667438Y-119246889D01*
X151643986Y-119255318D01*
X151510221Y-119293133D01*
X151372327Y-119318136D01*
X151224622Y-119331140D01*
X151097833Y-119333468D01*
X151029878Y-119332373D01*
X150964277Y-119330275D01*
X150906847Y-119327434D01*
X150863403Y-119324106D01*
X150849298Y-119322422D01*
X150710284Y-119293587D01*
X150568757Y-119248468D01*
X150431275Y-119189750D01*
X150304394Y-119120120D01*
X150226889Y-119067441D01*
X150099481Y-118959239D01*
X149981178Y-118832671D01*
X149874172Y-118690866D01*
X149780652Y-118536951D01*
X149702810Y-118374053D01*
X149658956Y-118256756D01*
X149608708Y-118073128D01*
X149575209Y-117878581D01*
X149558449Y-117677325D01*
X149558416Y-117473568D01*
X149575101Y-117271521D01*
X149608493Y-117075392D01*
X149658580Y-116889391D01*
X149662397Y-116877803D01*
X149725281Y-116715750D01*
X149802028Y-116567832D01*
X149895242Y-116429865D01*
X150007527Y-116297661D01*
X150051392Y-116252399D01*
X150187534Y-116128457D01*
X150327491Y-116025915D01*
X150473411Y-115943656D01*
X150627442Y-115880564D01*
X150791732Y-115835523D01*
X150887289Y-115818033D01*
X151046023Y-115802466D01*
X151204429Y-115805071D01*
G37*
X151204429Y-115805071D02*
X151364570Y-115826245D01*
X151528510Y-115866385D01*
X151698313Y-115925889D01*
X151876043Y-116005154D01*
X151887310Y-116010699D01*
X151945005Y-116038725D01*
X151996552Y-116062802D01*
X152038191Y-116081249D01*
X152066162Y-116092386D01*
X152075733Y-116094933D01*
X152094950Y-116099941D01*
X152099561Y-116104147D01*
X152094458Y-116114580D01*
X152078418Y-116140868D01*
X152053288Y-116180257D01*
X152020914Y-116229991D01*
X151983143Y-116287315D01*
X151941822Y-116349476D01*
X151898798Y-116413718D01*
X151855917Y-116477285D01*
X151815026Y-116537425D01*
X151777971Y-116591380D01*
X151746600Y-116636397D01*
X151722759Y-116669721D01*
X151708294Y-116688597D01*
X151706309Y-116690787D01*
X151696191Y-116686138D01*
X151673850Y-116668962D01*
X151643280Y-116642440D01*
X151627536Y-116627964D01*
X151531047Y-116552682D01*
X151424336Y-116497241D01*
X151308832Y-116462141D01*
X151185962Y-116447880D01*
X151116561Y-116449051D01*
X150995423Y-116466212D01*
X150886205Y-116502094D01*
X150788582Y-116556959D01*
X150702228Y-116631070D01*
X150626815Y-116724688D01*
X150562018Y-116838076D01*
X150524601Y-116924667D01*
X150480748Y-117060366D01*
X150448428Y-117207850D01*
X150427557Y-117363314D01*
X150418051Y-117522956D01*
X150419827Y-117682973D01*
X150432803Y-117839561D01*
X150456894Y-117988918D01*
X150492018Y-118127240D01*
X150538092Y-118250724D01*
X150554373Y-118284978D01*
X150622620Y-118399064D01*
X150703079Y-118495557D01*
X150794570Y-118573670D01*
X150895911Y-118632617D01*
X151005920Y-118671612D01*
X151123415Y-118689868D01*
X151164883Y-118691211D01*
X151286441Y-118680290D01*
X151406878Y-118647474D01*
X151524666Y-118593439D01*
X151638277Y-118518865D01*
X151729685Y-118440539D01*
X151776215Y-118396008D01*
X151957483Y-118693271D01*
X152002580Y-118767433D01*
X152043819Y-118835646D01*
X152079735Y-118895459D01*
X152108866Y-118944420D01*
X152129750Y-118980079D01*
X152140924Y-118999984D01*
X152142375Y-119003079D01*
X152134146Y-119012718D01*
X152108567Y-119029999D01*
X152068873Y-119053283D01*
X152018297Y-119080934D01*
X151960074Y-119111315D01*
X151897437Y-119142790D01*
X151833621Y-119173722D01*
X151771860Y-119202473D01*
X151715388Y-119227408D01*
X151667438Y-119246889D01*
X151643986Y-119255318D01*
X151510221Y-119293133D01*
X151372327Y-119318136D01*
X151224622Y-119331140D01*
X151097833Y-119333468D01*
X151029878Y-119332373D01*
X150964277Y-119330275D01*
X150906847Y-119327434D01*
X150863403Y-119324106D01*
X150849298Y-119322422D01*
X150710284Y-119293587D01*
X150568757Y-119248468D01*
X150431275Y-119189750D01*
X150304394Y-119120120D01*
X150226889Y-119067441D01*
X150099481Y-118959239D01*
X149981178Y-118832671D01*
X149874172Y-118690866D01*
X149780652Y-118536951D01*
X149702810Y-118374053D01*
X149658956Y-118256756D01*
X149608708Y-118073128D01*
X149575209Y-117878581D01*
X149558449Y-117677325D01*
X149558416Y-117473568D01*
X149575101Y-117271521D01*
X149608493Y-117075392D01*
X149658580Y-116889391D01*
X149662397Y-116877803D01*
X149725281Y-116715750D01*
X149802028Y-116567832D01*
X149895242Y-116429865D01*
X150007527Y-116297661D01*
X150051392Y-116252399D01*
X150187534Y-116128457D01*
X150327491Y-116025915D01*
X150473411Y-115943656D01*
X150627442Y-115880564D01*
X150791732Y-115835523D01*
X150887289Y-115818033D01*
X151046023Y-115802466D01*
X151204429Y-115805071D01*
G36*
X147952178Y-120147645D02*
G01*
X147958758Y-120155218D01*
X147963921Y-120164987D01*
X147967836Y-120179571D01*
X147970676Y-120201585D01*
X147972613Y-120233648D01*
X147973817Y-120278375D01*
X147974461Y-120338385D01*
X147974716Y-120416294D01*
X147974755Y-120491956D01*
X147974686Y-120585802D01*
X147974362Y-120659689D01*
X147973614Y-120716232D01*
X147972268Y-120758049D01*
X147970154Y-120787757D01*
X147967100Y-120807973D01*
X147962934Y-120821314D01*
X147957484Y-120830398D01*
X147952178Y-120836267D01*
X147919174Y-120855947D01*
X147884009Y-120854181D01*
X147852545Y-120832717D01*
X147845316Y-120824337D01*
X147839666Y-120814614D01*
X147835401Y-120800861D01*
X147832327Y-120780389D01*
X147830248Y-120750512D01*
X147828970Y-120708541D01*
X147828299Y-120651789D01*
X147828041Y-120577567D01*
X147828000Y-120493537D01*
X147828000Y-120180485D01*
X147855709Y-120152776D01*
X147889863Y-120129463D01*
X147922994Y-120128623D01*
X147952178Y-120147645D01*
G37*
X147952178Y-120147645D02*
X147958758Y-120155218D01*
X147963921Y-120164987D01*
X147967836Y-120179571D01*
X147970676Y-120201585D01*
X147972613Y-120233648D01*
X147973817Y-120278375D01*
X147974461Y-120338385D01*
X147974716Y-120416294D01*
X147974755Y-120491956D01*
X147974686Y-120585802D01*
X147974362Y-120659689D01*
X147973614Y-120716232D01*
X147972268Y-120758049D01*
X147970154Y-120787757D01*
X147967100Y-120807973D01*
X147962934Y-120821314D01*
X147957484Y-120830398D01*
X147952178Y-120836267D01*
X147919174Y-120855947D01*
X147884009Y-120854181D01*
X147852545Y-120832717D01*
X147845316Y-120824337D01*
X147839666Y-120814614D01*
X147835401Y-120800861D01*
X147832327Y-120780389D01*
X147830248Y-120750512D01*
X147828970Y-120708541D01*
X147828299Y-120651789D01*
X147828041Y-120577567D01*
X147828000Y-120493537D01*
X147828000Y-120180485D01*
X147855709Y-120152776D01*
X147889863Y-120129463D01*
X147922994Y-120128623D01*
X147952178Y-120147645D01*
G36*
X152158522Y-118326812D02*
G01*
X152174768Y-118255590D01*
X152200405Y-118184864D01*
X152224401Y-118132493D01*
X152283020Y-118037196D01*
X152361117Y-117949170D01*
X152456315Y-117870017D01*
X152566238Y-117801340D01*
X152688510Y-117744741D01*
X152820755Y-117701821D01*
X152885422Y-117686882D01*
X153021604Y-117664777D01*
X153170049Y-117650194D01*
X153321505Y-117643813D01*
X153448064Y-117645445D01*
X153609950Y-117652224D01*
X153602530Y-117593245D01*
X153583238Y-117494092D01*
X153552104Y-117413372D01*
X153508269Y-117350466D01*
X153450871Y-117304756D01*
X153379048Y-117275622D01*
X153291941Y-117262447D01*
X153188686Y-117264611D01*
X153150711Y-117268612D01*
X153009520Y-117293780D01*
X152872707Y-117334814D01*
X152778178Y-117372815D01*
X152733018Y-117392190D01*
X152694585Y-117407760D01*
X152668234Y-117417405D01*
X152660546Y-117419452D01*
X152650802Y-117410374D01*
X152634083Y-117381405D01*
X152610232Y-117332217D01*
X152579093Y-117262484D01*
X152540507Y-117171879D01*
X152533910Y-117156089D01*
X152503853Y-117083772D01*
X152476874Y-117018425D01*
X152454136Y-116962906D01*
X152436806Y-116920072D01*
X152426048Y-116892781D01*
X152422941Y-116883942D01*
X152432940Y-116879187D01*
X152459217Y-116873910D01*
X152487489Y-116870231D01*
X152517646Y-116865474D01*
X152565433Y-116856028D01*
X152626612Y-116842820D01*
X152696946Y-116826776D01*
X152772194Y-116808820D01*
X152800755Y-116801797D01*
X152905816Y-116776209D01*
X152993480Y-116756147D01*
X153068068Y-116740969D01*
X153133903Y-116730035D01*
X153195307Y-116722704D01*
X153256602Y-116718335D01*
X153322110Y-116716287D01*
X153380128Y-116715889D01*
X153549574Y-116722552D01*
X153701492Y-116742567D01*
X153836756Y-116776202D01*
X153956239Y-116823725D01*
X154060815Y-116885405D01*
X154138424Y-116948965D01*
X154207265Y-117023099D01*
X154261006Y-117102871D01*
X154303910Y-117195091D01*
X154319384Y-117238161D01*
X154332244Y-117277142D01*
X154343446Y-117313289D01*
X154353120Y-117348434D01*
X154361396Y-117384410D01*
X154368403Y-117423050D01*
X154374272Y-117466185D01*
X154379131Y-117515649D01*
X154383110Y-117573273D01*
X154386340Y-117640891D01*
X154388949Y-117720334D01*
X154391067Y-117813436D01*
X154392824Y-117922027D01*
X154394349Y-118047942D01*
X154395772Y-118193012D01*
X154397025Y-118335778D01*
X154398351Y-118491968D01*
X154399556Y-118627239D01*
X154400766Y-118743246D01*
X154402106Y-118841645D01*
X154403700Y-118924093D01*
X154405675Y-118992246D01*
X154408156Y-119047760D01*
X154411269Y-119092292D01*
X154415138Y-119127498D01*
X154419889Y-119155034D01*
X154425648Y-119176556D01*
X154432539Y-119193722D01*
X154440689Y-119208186D01*
X154450223Y-119221606D01*
X154461266Y-119235638D01*
X154465566Y-119241071D01*
X154481386Y-119263910D01*
X154488422Y-119279463D01*
X154488444Y-119279922D01*
X154477567Y-119282121D01*
X154446582Y-119284147D01*
X154397957Y-119285942D01*
X154334163Y-119287451D01*
X154257669Y-119288616D01*
X154170944Y-119289380D01*
X154076457Y-119289686D01*
X154065550Y-119289689D01*
X153642657Y-119289689D01*
X153639395Y-119193622D01*
X153636133Y-119097556D01*
X153574044Y-119148543D01*
X153476714Y-119216057D01*
X153366813Y-119270749D01*
X153280349Y-119300978D01*
X153211278Y-119315666D01*
X153127925Y-119325659D01*
X153038159Y-119330646D01*
X152949845Y-119330313D01*
X152870851Y-119324351D01*
X152834622Y-119318638D01*
X152694603Y-119280776D01*
X152568178Y-119225932D01*
X152456260Y-119154924D01*
X152359762Y-119068568D01*
X152279600Y-118967679D01*
X152216687Y-118853076D01*
X152172312Y-118726984D01*
X152159978Y-118670401D01*
X152152368Y-118608202D01*
X152148739Y-118533363D01*
X152148245Y-118499467D01*
X152148310Y-118496282D01*
X152908248Y-118496282D01*
X152917541Y-118571333D01*
X152945728Y-118635160D01*
X152994197Y-118690798D01*
X152999254Y-118695211D01*
X153047548Y-118730037D01*
X153099257Y-118752620D01*
X153159989Y-118764540D01*
X153235352Y-118767383D01*
X153253459Y-118766978D01*
X153307278Y-118764325D01*
X153347308Y-118758909D01*
X153382324Y-118748745D01*
X153421103Y-118731850D01*
X153431745Y-118726672D01*
X153492396Y-118690844D01*
X153539215Y-118648212D01*
X153551952Y-118632973D01*
X153596622Y-118576462D01*
X153596622Y-118380586D01*
X153596086Y-118301939D01*
X153594396Y-118243988D01*
X153591428Y-118204875D01*
X153587057Y-118182741D01*
X153582972Y-118176274D01*
X153567047Y-118173111D01*
X153533264Y-118170488D01*
X153486340Y-118168655D01*
X153430993Y-118167857D01*
X153422106Y-118167842D01*
X153301330Y-118173096D01*
X153198660Y-118189263D01*
X153112106Y-118216961D01*
X153039681Y-118256808D01*
X152984751Y-118303758D01*
X152940204Y-118361645D01*
X152915480Y-118424693D01*
X152908248Y-118496282D01*
X152148310Y-118496282D01*
X152150178Y-118405712D01*
X152158522Y-118326812D01*
G37*
X152158522Y-118326812D02*
X152174768Y-118255590D01*
X152200405Y-118184864D01*
X152224401Y-118132493D01*
X152283020Y-118037196D01*
X152361117Y-117949170D01*
X152456315Y-117870017D01*
X152566238Y-117801340D01*
X152688510Y-117744741D01*
X152820755Y-117701821D01*
X152885422Y-117686882D01*
X153021604Y-117664777D01*
X153170049Y-117650194D01*
X153321505Y-117643813D01*
X153448064Y-117645445D01*
X153609950Y-117652224D01*
X153602530Y-117593245D01*
X153583238Y-117494092D01*
X153552104Y-117413372D01*
X153508269Y-117350466D01*
X153450871Y-117304756D01*
X153379048Y-117275622D01*
X153291941Y-117262447D01*
X153188686Y-117264611D01*
X153150711Y-117268612D01*
X153009520Y-117293780D01*
X152872707Y-117334814D01*
X152778178Y-117372815D01*
X152733018Y-117392190D01*
X152694585Y-117407760D01*
X152668234Y-117417405D01*
X152660546Y-117419452D01*
X152650802Y-117410374D01*
X152634083Y-117381405D01*
X152610232Y-117332217D01*
X152579093Y-117262484D01*
X152540507Y-117171879D01*
X152533910Y-117156089D01*
X152503853Y-117083772D01*
X152476874Y-117018425D01*
X152454136Y-116962906D01*
X152436806Y-116920072D01*
X152426048Y-116892781D01*
X152422941Y-116883942D01*
X152432940Y-116879187D01*
X152459217Y-116873910D01*
X152487489Y-116870231D01*
X152517646Y-116865474D01*
X152565433Y-116856028D01*
X152626612Y-116842820D01*
X152696946Y-116826776D01*
X152772194Y-116808820D01*
X152800755Y-116801797D01*
X152905816Y-116776209D01*
X152993480Y-116756147D01*
X153068068Y-116740969D01*
X153133903Y-116730035D01*
X153195307Y-116722704D01*
X153256602Y-116718335D01*
X153322110Y-116716287D01*
X153380128Y-116715889D01*
X153549574Y-116722552D01*
X153701492Y-116742567D01*
X153836756Y-116776202D01*
X153956239Y-116823725D01*
X154060815Y-116885405D01*
X154138424Y-116948965D01*
X154207265Y-117023099D01*
X154261006Y-117102871D01*
X154303910Y-117195091D01*
X154319384Y-117238161D01*
X154332244Y-117277142D01*
X154343446Y-117313289D01*
X154353120Y-117348434D01*
X154361396Y-117384410D01*
X154368403Y-117423050D01*
X154374272Y-117466185D01*
X154379131Y-117515649D01*
X154383110Y-117573273D01*
X154386340Y-117640891D01*
X154388949Y-117720334D01*
X154391067Y-117813436D01*
X154392824Y-117922027D01*
X154394349Y-118047942D01*
X154395772Y-118193012D01*
X154397025Y-118335778D01*
X154398351Y-118491968D01*
X154399556Y-118627239D01*
X154400766Y-118743246D01*
X154402106Y-118841645D01*
X154403700Y-118924093D01*
X154405675Y-118992246D01*
X154408156Y-119047760D01*
X154411269Y-119092292D01*
X154415138Y-119127498D01*
X154419889Y-119155034D01*
X154425648Y-119176556D01*
X154432539Y-119193722D01*
X154440689Y-119208186D01*
X154450223Y-119221606D01*
X154461266Y-119235638D01*
X154465566Y-119241071D01*
X154481386Y-119263910D01*
X154488422Y-119279463D01*
X154488444Y-119279922D01*
X154477567Y-119282121D01*
X154446582Y-119284147D01*
X154397957Y-119285942D01*
X154334163Y-119287451D01*
X154257669Y-119288616D01*
X154170944Y-119289380D01*
X154076457Y-119289686D01*
X154065550Y-119289689D01*
X153642657Y-119289689D01*
X153639395Y-119193622D01*
X153636133Y-119097556D01*
X153574044Y-119148543D01*
X153476714Y-119216057D01*
X153366813Y-119270749D01*
X153280349Y-119300978D01*
X153211278Y-119315666D01*
X153127925Y-119325659D01*
X153038159Y-119330646D01*
X152949845Y-119330313D01*
X152870851Y-119324351D01*
X152834622Y-119318638D01*
X152694603Y-119280776D01*
X152568178Y-119225932D01*
X152456260Y-119154924D01*
X152359762Y-119068568D01*
X152279600Y-118967679D01*
X152216687Y-118853076D01*
X152172312Y-118726984D01*
X152159978Y-118670401D01*
X152152368Y-118608202D01*
X152148739Y-118533363D01*
X152148245Y-118499467D01*
X152148310Y-118496282D01*
X152908248Y-118496282D01*
X152917541Y-118571333D01*
X152945728Y-118635160D01*
X152994197Y-118690798D01*
X152999254Y-118695211D01*
X153047548Y-118730037D01*
X153099257Y-118752620D01*
X153159989Y-118764540D01*
X153235352Y-118767383D01*
X153253459Y-118766978D01*
X153307278Y-118764325D01*
X153347308Y-118758909D01*
X153382324Y-118748745D01*
X153421103Y-118731850D01*
X153431745Y-118726672D01*
X153492396Y-118690844D01*
X153539215Y-118648212D01*
X153551952Y-118632973D01*
X153596622Y-118576462D01*
X153596622Y-118380586D01*
X153596086Y-118301939D01*
X153594396Y-118243988D01*
X153591428Y-118204875D01*
X153587057Y-118182741D01*
X153582972Y-118176274D01*
X153567047Y-118173111D01*
X153533264Y-118170488D01*
X153486340Y-118168655D01*
X153430993Y-118167857D01*
X153422106Y-118167842D01*
X153301330Y-118173096D01*
X153198660Y-118189263D01*
X153112106Y-118216961D01*
X153039681Y-118256808D01*
X152984751Y-118303758D01*
X152940204Y-118361645D01*
X152915480Y-118424693D01*
X152908248Y-118496282D01*
X152148310Y-118496282D01*
X152150178Y-118405712D01*
X152158522Y-118326812D01*
G36*
X147184297Y-120126351D02*
G01*
X147259112Y-120131581D01*
X147328694Y-120139750D01*
X147388998Y-120150550D01*
X147435980Y-120163673D01*
X147465594Y-120178813D01*
X147470140Y-120183269D01*
X147485946Y-120217850D01*
X147481153Y-120253351D01*
X147456636Y-120283725D01*
X147455466Y-120284596D01*
X147441046Y-120293954D01*
X147425992Y-120298876D01*
X147404995Y-120299473D01*
X147372743Y-120295861D01*
X147323927Y-120288154D01*
X147320000Y-120287505D01*
X147247261Y-120278569D01*
X147168783Y-120274161D01*
X147090073Y-120274119D01*
X147016639Y-120278279D01*
X146953989Y-120286479D01*
X146907630Y-120298557D01*
X146904584Y-120299771D01*
X146870952Y-120318615D01*
X146859136Y-120337685D01*
X146868386Y-120356439D01*
X146897953Y-120374337D01*
X146947089Y-120390837D01*
X147015043Y-120405396D01*
X147060355Y-120412406D01*
X147154544Y-120425889D01*
X147229456Y-120438214D01*
X147288283Y-120450449D01*
X147334215Y-120463661D01*
X147370445Y-120478917D01*
X147400162Y-120497285D01*
X147426558Y-120519831D01*
X147447770Y-120541971D01*
X147472935Y-120572819D01*
X147485319Y-120599345D01*
X147489192Y-120632026D01*
X147489333Y-120643995D01*
X147486424Y-120683712D01*
X147474798Y-120713259D01*
X147454677Y-120739486D01*
X147413784Y-120779576D01*
X147368183Y-120810149D01*
X147314487Y-120832203D01*
X147249308Y-120846735D01*
X147169256Y-120854741D01*
X147070943Y-120857218D01*
X147054711Y-120857177D01*
X146989151Y-120855818D01*
X146924134Y-120852730D01*
X146866748Y-120848356D01*
X146824078Y-120843140D01*
X146820628Y-120842541D01*
X146778204Y-120832491D01*
X146742220Y-120819796D01*
X146721850Y-120808190D01*
X146702893Y-120777572D01*
X146701573Y-120741918D01*
X146717915Y-120710144D01*
X146721571Y-120706551D01*
X146736685Y-120695876D01*
X146755585Y-120691276D01*
X146784838Y-120692059D01*
X146820349Y-120696127D01*
X146860030Y-120699762D01*
X146915655Y-120702828D01*
X146980594Y-120705053D01*
X147048215Y-120706164D01*
X147066000Y-120706237D01*
X147133872Y-120705964D01*
X147183546Y-120704646D01*
X147219390Y-120701827D01*
X147245776Y-120697050D01*
X147267074Y-120689857D01*
X147279874Y-120683867D01*
X147308000Y-120667233D01*
X147325932Y-120652168D01*
X147328553Y-120647897D01*
X147323024Y-120630263D01*
X147296740Y-120613192D01*
X147251522Y-120597458D01*
X147189192Y-120583838D01*
X147170829Y-120580804D01*
X147074910Y-120565738D01*
X146998359Y-120553146D01*
X146938220Y-120542111D01*
X146891540Y-120531720D01*
X146855363Y-120521056D01*
X146826735Y-120509205D01*
X146802702Y-120495251D01*
X146780308Y-120478281D01*
X146756598Y-120457378D01*
X146748620Y-120450049D01*
X146720647Y-120422699D01*
X146705840Y-120401029D01*
X146700048Y-120376232D01*
X146699111Y-120344983D01*
X146709425Y-120283705D01*
X146740248Y-120231640D01*
X146791405Y-120188958D01*
X146862717Y-120155825D01*
X146913600Y-120140964D01*
X146968900Y-120131366D01*
X147035147Y-120125936D01*
X147108294Y-120124367D01*
X147184297Y-120126351D01*
G37*
X147184297Y-120126351D02*
X147259112Y-120131581D01*
X147328694Y-120139750D01*
X147388998Y-120150550D01*
X147435980Y-120163673D01*
X147465594Y-120178813D01*
X147470140Y-120183269D01*
X147485946Y-120217850D01*
X147481153Y-120253351D01*
X147456636Y-120283725D01*
X147455466Y-120284596D01*
X147441046Y-120293954D01*
X147425992Y-120298876D01*
X147404995Y-120299473D01*
X147372743Y-120295861D01*
X147323927Y-120288154D01*
X147320000Y-120287505D01*
X147247261Y-120278569D01*
X147168783Y-120274161D01*
X147090073Y-120274119D01*
X147016639Y-120278279D01*
X146953989Y-120286479D01*
X146907630Y-120298557D01*
X146904584Y-120299771D01*
X146870952Y-120318615D01*
X146859136Y-120337685D01*
X146868386Y-120356439D01*
X146897953Y-120374337D01*
X146947089Y-120390837D01*
X147015043Y-120405396D01*
X147060355Y-120412406D01*
X147154544Y-120425889D01*
X147229456Y-120438214D01*
X147288283Y-120450449D01*
X147334215Y-120463661D01*
X147370445Y-120478917D01*
X147400162Y-120497285D01*
X147426558Y-120519831D01*
X147447770Y-120541971D01*
X147472935Y-120572819D01*
X147485319Y-120599345D01*
X147489192Y-120632026D01*
X147489333Y-120643995D01*
X147486424Y-120683712D01*
X147474798Y-120713259D01*
X147454677Y-120739486D01*
X147413784Y-120779576D01*
X147368183Y-120810149D01*
X147314487Y-120832203D01*
X147249308Y-120846735D01*
X147169256Y-120854741D01*
X147070943Y-120857218D01*
X147054711Y-120857177D01*
X146989151Y-120855818D01*
X146924134Y-120852730D01*
X146866748Y-120848356D01*
X146824078Y-120843140D01*
X146820628Y-120842541D01*
X146778204Y-120832491D01*
X146742220Y-120819796D01*
X146721850Y-120808190D01*
X146702893Y-120777572D01*
X146701573Y-120741918D01*
X146717915Y-120710144D01*
X146721571Y-120706551D01*
X146736685Y-120695876D01*
X146755585Y-120691276D01*
X146784838Y-120692059D01*
X146820349Y-120696127D01*
X146860030Y-120699762D01*
X146915655Y-120702828D01*
X146980594Y-120705053D01*
X147048215Y-120706164D01*
X147066000Y-120706237D01*
X147133872Y-120705964D01*
X147183546Y-120704646D01*
X147219390Y-120701827D01*
X147245776Y-120697050D01*
X147267074Y-120689857D01*
X147279874Y-120683867D01*
X147308000Y-120667233D01*
X147325932Y-120652168D01*
X147328553Y-120647897D01*
X147323024Y-120630263D01*
X147296740Y-120613192D01*
X147251522Y-120597458D01*
X147189192Y-120583838D01*
X147170829Y-120580804D01*
X147074910Y-120565738D01*
X146998359Y-120553146D01*
X146938220Y-120542111D01*
X146891540Y-120531720D01*
X146855363Y-120521056D01*
X146826735Y-120509205D01*
X146802702Y-120495251D01*
X146780308Y-120478281D01*
X146756598Y-120457378D01*
X146748620Y-120450049D01*
X146720647Y-120422699D01*
X146705840Y-120401029D01*
X146700048Y-120376232D01*
X146699111Y-120344983D01*
X146709425Y-120283705D01*
X146740248Y-120231640D01*
X146791405Y-120188958D01*
X146862717Y-120155825D01*
X146913600Y-120140964D01*
X146968900Y-120131366D01*
X147035147Y-120125936D01*
X147108294Y-120124367D01*
X147184297Y-120126351D01*
D12*
%TO.C,K1*%
X157928000Y-101351000D02*
X157928000Y-98751000D01*
X160588000Y-103951000D02*
X159258000Y-103951000D01*
X160588000Y-101351000D02*
X157928000Y-101351000D01*
X160588000Y-101351000D02*
X160588000Y-98751000D01*
X160588000Y-98751000D02*
X157928000Y-98751000D01*
X160588000Y-102621000D02*
X160588000Y-103951000D01*
%TO.C,BT1*%
X84510000Y-111250000D02*
X84510000Y-81050000D01*
X84510000Y-81050000D02*
X139010000Y-81050000D01*
X139010000Y-111250000D02*
X84510000Y-111250000D01*
X139010000Y-81050000D02*
X139010000Y-111250000D01*
%TO.C,C1*%
X151788000Y-100172000D02*
X151853000Y-100172000D01*
X154028000Y-100172000D02*
X154028000Y-96932000D01*
X153963000Y-100172000D02*
X154028000Y-100172000D01*
X153963000Y-96932000D02*
X154028000Y-96932000D01*
X151788000Y-96932000D02*
X151853000Y-96932000D01*
X151788000Y-100172000D02*
X151788000Y-96932000D01*
%TO.C,U1*%
X146278000Y-106476000D02*
G75*
G03*
X144278000Y-106476000I-1000000J0D01*
G01*
X147928000Y-96196000D02*
X142628000Y-96196000D01*
X146278000Y-106476000D02*
X147928000Y-106476000D01*
X142628000Y-96196000D02*
X142628000Y-106476000D01*
X147928000Y-106476000D02*
X147928000Y-96196000D01*
X142628000Y-106476000D02*
X144278000Y-106476000D01*
%TO.C,Q1*%
X151429999Y-104902000D02*
G75*
G03*
X155868478Y-106740478I2600001J0D01*
G01*
X155868478Y-103063522D02*
G75*
G03*
X151430000Y-104902000I-1838478J-1838478D01*
G01*
X155880000Y-106702000D02*
X155880000Y-103102000D01*
%TO.C,P1*%
X146617000Y-92800000D02*
X147938000Y-92800000D01*
X146617000Y-92800000D02*
X146617000Y-88863000D01*
X150388000Y-92800000D02*
X150768000Y-92800000D01*
X152509000Y-92800000D02*
X153268000Y-92800000D01*
X155008000Y-92800000D02*
X156658000Y-92800000D01*
X156658000Y-92800000D02*
X156658000Y-88863000D01*
X146617000Y-84496000D02*
X146617000Y-80560000D01*
X156658000Y-84496000D02*
X156658000Y-80560000D01*
X146617000Y-80560000D02*
X156658000Y-80560000D01*
%TO.C,R2*%
X160174000Y-83344000D02*
X160174000Y-89884000D01*
X162914000Y-89884000D02*
X162914000Y-83344000D01*
X162914000Y-83344000D02*
X160174000Y-83344000D01*
X160174000Y-89884000D02*
X162914000Y-89884000D01*
X161544000Y-90654000D02*
X161544000Y-89884000D01*
X161544000Y-82574000D02*
X161544000Y-83344000D01*
%TO.C,R1*%
X143864000Y-91154000D02*
X143864000Y-84614000D01*
X141124000Y-84614000D02*
X141124000Y-91154000D01*
X141124000Y-91154000D02*
X143864000Y-91154000D01*
X143864000Y-84614000D02*
X141124000Y-84614000D01*
X142494000Y-83844000D02*
X142494000Y-84614000D01*
X142494000Y-91924000D02*
X142494000Y-91154000D01*
%TD*%
M02*
