%TF.GenerationSoftware,KiCad,Pcbnew,(6.0.5)*%
%TF.CreationDate,2022-06-08T19:36:40-04:00*%
%TF.ProjectId,first-pcb,66697273-742d-4706-9362-2e6b69636164,rev?*%
%TF.SameCoordinates,Original*%
%TF.FileFunction,Copper,L2,Bot*%
%TF.FilePolarity,Positive*%
%FSLAX46Y46*%
G04 Gerber Fmt 4.6, Leading zero omitted, Abs format (unit mm)*
G04 Created by KiCad (PCBNEW (6.0.5)) date 2022-06-08 19:36:40*
%MOMM*%
%LPD*%
G01*
G04 APERTURE LIST*
G04 Aperture macros list*
%AMRoundRect*
0 Rectangle with rounded corners*
0 $1 Rounding radius*
0 $2 $3 $4 $5 $6 $7 $8 $9 X,Y pos of 4 corners*
0 Add a 4 corners polygon primitive as box body*
4,1,4,$2,$3,$4,$5,$6,$7,$8,$9,$2,$3,0*
0 Add four circle primitives for the rounded corners*
1,1,$1+$1,$2,$3*
1,1,$1+$1,$4,$5*
1,1,$1+$1,$6,$7*
1,1,$1+$1,$8,$9*
0 Add four rect primitives between the rounded corners*
20,1,$1+$1,$2,$3,$4,$5,0*
20,1,$1+$1,$4,$5,$6,$7,0*
20,1,$1+$1,$6,$7,$8,$9,0*
20,1,$1+$1,$8,$9,$2,$3,0*%
G04 Aperture macros list end*
%TA.AperFunction,ComponentPad*%
%ADD10C,6.400000*%
%TD*%
%TA.AperFunction,ComponentPad*%
%ADD11C,1.700000*%
%TD*%
%TA.AperFunction,ComponentPad*%
%ADD12R,1.700000X1.700000*%
%TD*%
%TA.AperFunction,ComponentPad*%
%ADD13C,3.000000*%
%TD*%
%TA.AperFunction,ComponentPad*%
%ADD14R,3.000000X3.000000*%
%TD*%
%TA.AperFunction,ComponentPad*%
%ADD15C,1.600000*%
%TD*%
%TA.AperFunction,ComponentPad*%
%ADD16O,1.600000X1.600000*%
%TD*%
%TA.AperFunction,ComponentPad*%
%ADD17R,1.600000X1.600000*%
%TD*%
%TA.AperFunction,ComponentPad*%
%ADD18O,1.500000X1.050000*%
%TD*%
%TA.AperFunction,ComponentPad*%
%ADD19R,1.500000X1.050000*%
%TD*%
%TA.AperFunction,ComponentPad*%
%ADD20R,1.800000X1.800000*%
%TD*%
%TA.AperFunction,ComponentPad*%
%ADD21C,1.800000*%
%TD*%
%TA.AperFunction,ComponentPad*%
%ADD22RoundRect,0.750000X0.750000X-1.250000X0.750000X1.250000X-0.750000X1.250000X-0.750000X-1.250000X0*%
%TD*%
%TA.AperFunction,ViaPad*%
%ADD23C,0.800000*%
%TD*%
%TA.AperFunction,Conductor*%
%ADD24C,0.500000*%
%TD*%
%TA.AperFunction,Conductor*%
%ADD25C,0.250000*%
%TD*%
G04 APERTURE END LIST*
D10*
%TO.P,H4,1,1*%
%TO.N,GND*%
X167640000Y-76200000D03*
%TD*%
%TO.P,H3,1,1*%
%TO.N,GND*%
X86360000Y-76200000D03*
%TD*%
%TO.P,H2,1,1*%
%TO.N,GND*%
X167640000Y-119380000D03*
%TD*%
%TO.P,H1,1,1*%
%TO.N,GND*%
X86360000Y-119380000D03*
%TD*%
D11*
%TO.P,K1,3*%
%TO.N,N/C*%
X162433000Y-97541000D03*
X162433000Y-105161000D03*
%TO.P,K1,2*%
%TO.N,GND*%
X159258000Y-100081000D03*
D12*
%TO.P,K1,1*%
%TO.N,Net-(K1-Pad1)*%
X159258000Y-102621000D03*
%TD*%
D13*
%TO.P,BT1,2,-*%
%TO.N,GND*%
X135910000Y-89800000D03*
D14*
%TO.P,BT1,1,+*%
%TO.N,Net-(BT1-Pad1)*%
X135910000Y-102500000D03*
%TD*%
D15*
%TO.P,C1,2*%
%TO.N,GND*%
X152908000Y-97302000D03*
%TO.P,C1,1*%
%TO.N,Net-(C1-Pad1)*%
X152908000Y-99802000D03*
%TD*%
D16*
%TO.P,U1,8,V+*%
%TO.N,Net-(BT1-Pad1)*%
X141468000Y-105146000D03*
%TO.P,U1,7*%
%TO.N,unconnected-(U1-Pad7)*%
X141468000Y-102606000D03*
%TO.P,U1,6,-*%
%TO.N,unconnected-(U1-Pad6)*%
X141468000Y-100066000D03*
%TO.P,U1,5,+*%
%TO.N,unconnected-(U1-Pad5)*%
X141468000Y-97526000D03*
%TO.P,U1,4,V-*%
%TO.N,GND*%
X149088000Y-97526000D03*
%TO.P,U1,3,+*%
%TO.N,Net-(C1-Pad1)*%
X149088000Y-100066000D03*
%TO.P,U1,2,-*%
%TO.N,Net-(K1-Pad1)*%
X149088000Y-102606000D03*
D17*
%TO.P,U1,1*%
%TO.N,Net-(Q1-Pad2)*%
X149088000Y-105146000D03*
%TD*%
D18*
%TO.P,Q1,3,E*%
%TO.N,Net-(K1-Pad1)*%
X154030000Y-103632000D03*
%TO.P,Q1,2,B*%
%TO.N,Net-(Q1-Pad2)*%
X154030000Y-104902000D03*
D19*
%TO.P,Q1,1,C*%
%TO.N,Net-(BT1-Pad1)*%
X154030000Y-106172000D03*
%TD*%
D20*
%TO.P,P1,1,1*%
%TO.N,Net-(P1-Pad1)*%
X149138000Y-93680000D03*
D21*
%TO.P,P1,2,2*%
%TO.N,Net-(C1-Pad1)*%
X151638000Y-93680000D03*
%TO.P,P1,3,3*%
%TO.N,Net-(P1-Pad3)*%
X154138000Y-93680000D03*
D22*
%TO.P,P1,MP*%
%TO.N,N/C*%
X147238000Y-86680000D03*
X156038000Y-86680000D03*
%TD*%
D16*
%TO.P,R2,2*%
%TO.N,GND*%
X161544000Y-81534000D03*
D15*
%TO.P,R2,1*%
%TO.N,Net-(P1-Pad3)*%
X161544000Y-91694000D03*
%TD*%
D16*
%TO.P,R1,2*%
%TO.N,Net-(P1-Pad1)*%
X142494000Y-92964000D03*
D15*
%TO.P,R1,1*%
%TO.N,Net-(BT1-Pad1)*%
X142494000Y-82804000D03*
%TD*%
D23*
%TO.N,GND*%
X137160000Y-94996000D03*
X150330500Y-97536000D03*
%TD*%
D24*
%TO.N,Net-(P1-Pad1)*%
X143210000Y-93680000D02*
X149138000Y-93680000D01*
X142494000Y-92964000D02*
X143210000Y-93680000D01*
%TO.N,Net-(P1-Pad3)*%
X159558000Y-93680000D02*
X161544000Y-91694000D01*
X154138000Y-93680000D02*
X159558000Y-93680000D01*
%TO.N,GND*%
X137160000Y-94996000D02*
X146558000Y-94996000D01*
X146558000Y-94996000D02*
X149088000Y-97526000D01*
X149088000Y-97678366D02*
X152411145Y-101001511D01*
X158337489Y-101001511D02*
X159258000Y-100081000D01*
X149088000Y-97526000D02*
X149088000Y-97678366D01*
X152411145Y-101001511D02*
X158337489Y-101001511D01*
X152674000Y-97536000D02*
X152908000Y-97302000D01*
X150330500Y-97536000D02*
X152674000Y-97536000D01*
%TO.N,Net-(C1-Pad1)*%
X154198000Y-99802000D02*
X152908000Y-99802000D01*
X154940000Y-99060000D02*
X154198000Y-99802000D01*
X154940000Y-96012000D02*
X154940000Y-99060000D01*
X154432000Y-95504000D02*
X154940000Y-96012000D01*
X151638000Y-93680000D02*
X153462000Y-95504000D01*
X153462000Y-95504000D02*
X154432000Y-95504000D01*
D25*
%TO.N,Net-(P1-Pad1)*%
X148422000Y-92964000D02*
X149138000Y-93680000D01*
%TD*%
%TA.AperFunction,Conductor*%
%TO.N,GND*%
G36*
X170883621Y-71648502D02*
G01*
X170930114Y-71702158D01*
X170941500Y-71754500D01*
X170941500Y-74050316D01*
X170921498Y-74118437D01*
X170867842Y-74164930D01*
X170797568Y-74175034D01*
X170732988Y-74145540D01*
X170709827Y-74118940D01*
X170645747Y-74020265D01*
X170641877Y-74014939D01*
X170448522Y-73776165D01*
X170436267Y-73767700D01*
X170425176Y-73774034D01*
X168012022Y-76187188D01*
X168004408Y-76201132D01*
X168004539Y-76202965D01*
X168008790Y-76209580D01*
X170424310Y-78625100D01*
X170437386Y-78632241D01*
X170447753Y-78624784D01*
X170641877Y-78385061D01*
X170645747Y-78379735D01*
X170709827Y-78281060D01*
X170763704Y-78234823D01*
X170834025Y-78225053D01*
X170898465Y-78254853D01*
X170936564Y-78314761D01*
X170941500Y-78349684D01*
X170941500Y-117230316D01*
X170921498Y-117298437D01*
X170867842Y-117344930D01*
X170797568Y-117355034D01*
X170732988Y-117325540D01*
X170709827Y-117298940D01*
X170645747Y-117200265D01*
X170641877Y-117194939D01*
X170448522Y-116956165D01*
X170436267Y-116947700D01*
X170425176Y-116954034D01*
X168012022Y-119367188D01*
X168004408Y-119381132D01*
X168004539Y-119382965D01*
X168008790Y-119389580D01*
X170424310Y-121805100D01*
X170437386Y-121812241D01*
X170447753Y-121804784D01*
X170641877Y-121565061D01*
X170645747Y-121559735D01*
X170709827Y-121461060D01*
X170763704Y-121414823D01*
X170834025Y-121405053D01*
X170898465Y-121434853D01*
X170936564Y-121494761D01*
X170941500Y-121529684D01*
X170941500Y-123825500D01*
X170921498Y-123893621D01*
X170867842Y-123940114D01*
X170815500Y-123951500D01*
X83184500Y-123951500D01*
X83116379Y-123931498D01*
X83069886Y-123877842D01*
X83058500Y-123825500D01*
X83058500Y-122177386D01*
X83927759Y-122177386D01*
X83935216Y-122187753D01*
X84174935Y-122381874D01*
X84180272Y-122385751D01*
X84500685Y-122593830D01*
X84506394Y-122597127D01*
X84846811Y-122770578D01*
X84852836Y-122773260D01*
X85209502Y-122910171D01*
X85215784Y-122912212D01*
X85584816Y-123011094D01*
X85591266Y-123012465D01*
X85968629Y-123072234D01*
X85975167Y-123072920D01*
X86356699Y-123092916D01*
X86363301Y-123092916D01*
X86744833Y-123072920D01*
X86751371Y-123072234D01*
X87128734Y-123012465D01*
X87135184Y-123011094D01*
X87504216Y-122912212D01*
X87510498Y-122910171D01*
X87867164Y-122773260D01*
X87873189Y-122770578D01*
X88213606Y-122597127D01*
X88219315Y-122593830D01*
X88539728Y-122385751D01*
X88545065Y-122381874D01*
X88783835Y-122188522D01*
X88791527Y-122177386D01*
X165207759Y-122177386D01*
X165215216Y-122187753D01*
X165454935Y-122381874D01*
X165460272Y-122385751D01*
X165780685Y-122593830D01*
X165786394Y-122597127D01*
X166126811Y-122770578D01*
X166132836Y-122773260D01*
X166489502Y-122910171D01*
X166495784Y-122912212D01*
X166864816Y-123011094D01*
X166871266Y-123012465D01*
X167248629Y-123072234D01*
X167255167Y-123072920D01*
X167636699Y-123092916D01*
X167643301Y-123092916D01*
X168024833Y-123072920D01*
X168031371Y-123072234D01*
X168408734Y-123012465D01*
X168415184Y-123011094D01*
X168784216Y-122912212D01*
X168790498Y-122910171D01*
X169147164Y-122773260D01*
X169153189Y-122770578D01*
X169493606Y-122597127D01*
X169499315Y-122593830D01*
X169819728Y-122385751D01*
X169825065Y-122381874D01*
X170063835Y-122188522D01*
X170072300Y-122176267D01*
X170065966Y-122165176D01*
X167652812Y-119752022D01*
X167638868Y-119744408D01*
X167637035Y-119744539D01*
X167630420Y-119748790D01*
X165214900Y-122164310D01*
X165207759Y-122177386D01*
X88791527Y-122177386D01*
X88792300Y-122176267D01*
X88785966Y-122165176D01*
X86372812Y-119752022D01*
X86358868Y-119744408D01*
X86357035Y-119744539D01*
X86350420Y-119748790D01*
X83934900Y-122164310D01*
X83927759Y-122177386D01*
X83058500Y-122177386D01*
X83058500Y-121529684D01*
X83078502Y-121461563D01*
X83132158Y-121415070D01*
X83202432Y-121404966D01*
X83267012Y-121434460D01*
X83290173Y-121461060D01*
X83354253Y-121559735D01*
X83358123Y-121565061D01*
X83551478Y-121803835D01*
X83563733Y-121812300D01*
X83574824Y-121805966D01*
X85987978Y-119392812D01*
X85994356Y-119381132D01*
X86724408Y-119381132D01*
X86724539Y-119382965D01*
X86728790Y-119389580D01*
X89144310Y-121805100D01*
X89157386Y-121812241D01*
X89167753Y-121804784D01*
X89361877Y-121565061D01*
X89365747Y-121559735D01*
X89573831Y-121239313D01*
X89577128Y-121233603D01*
X89750578Y-120893189D01*
X89753260Y-120887164D01*
X89890171Y-120530498D01*
X89892212Y-120524216D01*
X89991094Y-120155184D01*
X89992465Y-120148734D01*
X90052234Y-119771371D01*
X90052920Y-119764833D01*
X90072916Y-119383301D01*
X163927084Y-119383301D01*
X163947080Y-119764833D01*
X163947766Y-119771371D01*
X164007535Y-120148734D01*
X164008906Y-120155184D01*
X164107788Y-120524216D01*
X164109829Y-120530498D01*
X164246740Y-120887164D01*
X164249422Y-120893189D01*
X164422872Y-121233603D01*
X164426169Y-121239313D01*
X164634253Y-121559735D01*
X164638123Y-121565061D01*
X164831478Y-121803835D01*
X164843733Y-121812300D01*
X164854824Y-121805966D01*
X167267978Y-119392812D01*
X167275592Y-119378868D01*
X167275461Y-119377035D01*
X167271210Y-119370420D01*
X164855690Y-116954900D01*
X164842614Y-116947759D01*
X164832247Y-116955216D01*
X164638123Y-117194939D01*
X164634253Y-117200265D01*
X164426169Y-117520687D01*
X164422872Y-117526397D01*
X164249422Y-117866811D01*
X164246740Y-117872836D01*
X164109829Y-118229502D01*
X164107788Y-118235784D01*
X164008906Y-118604816D01*
X164007535Y-118611266D01*
X163947766Y-118988629D01*
X163947080Y-118995167D01*
X163927084Y-119376699D01*
X163927084Y-119383301D01*
X90072916Y-119383301D01*
X90072916Y-119376699D01*
X90052920Y-118995167D01*
X90052234Y-118988629D01*
X89992465Y-118611266D01*
X89991094Y-118604816D01*
X89892212Y-118235784D01*
X89890171Y-118229502D01*
X89753260Y-117872836D01*
X89750578Y-117866811D01*
X89577128Y-117526397D01*
X89573831Y-117520687D01*
X89365747Y-117200265D01*
X89361877Y-117194939D01*
X89168522Y-116956165D01*
X89156267Y-116947700D01*
X89145176Y-116954034D01*
X86732022Y-119367188D01*
X86724408Y-119381132D01*
X85994356Y-119381132D01*
X85995592Y-119378868D01*
X85995461Y-119377035D01*
X85991210Y-119370420D01*
X83575690Y-116954900D01*
X83562614Y-116947759D01*
X83552247Y-116955216D01*
X83358123Y-117194939D01*
X83354253Y-117200265D01*
X83290173Y-117298940D01*
X83236296Y-117345177D01*
X83165975Y-117354947D01*
X83101535Y-117325147D01*
X83063436Y-117265239D01*
X83058500Y-117230316D01*
X83058500Y-116583733D01*
X83927700Y-116583733D01*
X83934034Y-116594824D01*
X86347188Y-119007978D01*
X86361132Y-119015592D01*
X86362965Y-119015461D01*
X86369580Y-119011210D01*
X88785100Y-116595690D01*
X88791630Y-116583733D01*
X165207700Y-116583733D01*
X165214034Y-116594824D01*
X167627188Y-119007978D01*
X167641132Y-119015592D01*
X167642965Y-119015461D01*
X167649580Y-119011210D01*
X170065100Y-116595690D01*
X170072241Y-116582614D01*
X170064784Y-116572247D01*
X169825065Y-116378126D01*
X169819728Y-116374249D01*
X169499315Y-116166170D01*
X169493606Y-116162873D01*
X169153189Y-115989422D01*
X169147164Y-115986740D01*
X168790498Y-115849829D01*
X168784216Y-115847788D01*
X168415184Y-115748906D01*
X168408734Y-115747535D01*
X168031371Y-115687766D01*
X168024833Y-115687080D01*
X167643301Y-115667084D01*
X167636699Y-115667084D01*
X167255167Y-115687080D01*
X167248629Y-115687766D01*
X166871266Y-115747535D01*
X166864816Y-115748906D01*
X166495784Y-115847788D01*
X166489502Y-115849829D01*
X166132836Y-115986740D01*
X166126811Y-115989422D01*
X165786397Y-116162872D01*
X165780687Y-116166169D01*
X165460265Y-116374253D01*
X165454939Y-116378123D01*
X165216165Y-116571478D01*
X165207700Y-116583733D01*
X88791630Y-116583733D01*
X88792241Y-116582614D01*
X88784784Y-116572247D01*
X88545065Y-116378126D01*
X88539728Y-116374249D01*
X88219315Y-116166170D01*
X88213606Y-116162873D01*
X87873189Y-115989422D01*
X87867164Y-115986740D01*
X87510498Y-115849829D01*
X87504216Y-115847788D01*
X87135184Y-115748906D01*
X87128734Y-115747535D01*
X86751371Y-115687766D01*
X86744833Y-115687080D01*
X86363301Y-115667084D01*
X86356699Y-115667084D01*
X85975167Y-115687080D01*
X85968629Y-115687766D01*
X85591266Y-115747535D01*
X85584816Y-115748906D01*
X85215784Y-115847788D01*
X85209502Y-115849829D01*
X84852836Y-115986740D01*
X84846811Y-115989422D01*
X84506397Y-116162872D01*
X84500687Y-116166169D01*
X84180265Y-116374253D01*
X84174939Y-116378123D01*
X83936165Y-116571478D01*
X83927700Y-116583733D01*
X83058500Y-116583733D01*
X83058500Y-107360716D01*
X109949812Y-107360716D01*
X109986060Y-107627063D01*
X109987368Y-107631549D01*
X109987368Y-107631551D01*
X110007183Y-107699534D01*
X110061278Y-107885126D01*
X110173815Y-108129237D01*
X110176378Y-108133146D01*
X110318631Y-108350119D01*
X110318635Y-108350124D01*
X110321197Y-108354032D01*
X110500188Y-108554574D01*
X110706854Y-108726456D01*
X110936656Y-108865904D01*
X110940970Y-108867713D01*
X110940974Y-108867715D01*
X110990768Y-108888595D01*
X111184545Y-108969852D01*
X111445077Y-109036019D01*
X111668334Y-109058500D01*
X111828237Y-109058500D01*
X111830562Y-109058327D01*
X111830568Y-109058327D01*
X112023408Y-109043996D01*
X112023409Y-109043996D01*
X112028063Y-109043650D01*
X112032616Y-109042620D01*
X112032621Y-109042619D01*
X112285669Y-108985361D01*
X112285674Y-108985360D01*
X112290237Y-108984327D01*
X112540762Y-108886902D01*
X112774136Y-108753518D01*
X112985231Y-108587105D01*
X113169409Y-108391317D01*
X113322626Y-108170457D01*
X113341026Y-108133146D01*
X113439449Y-107933564D01*
X113439450Y-107933561D01*
X113441514Y-107929376D01*
X113523462Y-107673370D01*
X113566670Y-107408063D01*
X113570188Y-107139284D01*
X113533940Y-106872937D01*
X113519146Y-106822179D01*
X113460033Y-106619373D01*
X113458722Y-106614874D01*
X113346185Y-106370763D01*
X113282959Y-106274327D01*
X113201369Y-106149881D01*
X113201365Y-106149876D01*
X113198803Y-106145968D01*
X113059864Y-105990300D01*
X113022929Y-105948918D01*
X113022927Y-105948916D01*
X113019812Y-105945426D01*
X112813146Y-105773544D01*
X112583344Y-105634096D01*
X112579030Y-105632287D01*
X112579026Y-105632285D01*
X112339769Y-105531957D01*
X112335455Y-105530148D01*
X112074923Y-105463981D01*
X111851666Y-105441500D01*
X111691763Y-105441500D01*
X111689438Y-105441673D01*
X111689432Y-105441673D01*
X111496592Y-105456004D01*
X111496591Y-105456004D01*
X111491937Y-105456350D01*
X111487384Y-105457380D01*
X111487379Y-105457381D01*
X111234331Y-105514639D01*
X111234326Y-105514640D01*
X111229763Y-105515673D01*
X110979238Y-105613098D01*
X110745864Y-105746482D01*
X110742198Y-105749372D01*
X110742195Y-105749374D01*
X110707744Y-105776533D01*
X110534769Y-105912895D01*
X110350591Y-106108683D01*
X110241976Y-106265249D01*
X110231490Y-106280366D01*
X110197374Y-106329543D01*
X110195307Y-106333733D01*
X110195306Y-106333736D01*
X110102187Y-106522564D01*
X110078486Y-106570624D01*
X109996538Y-106826630D01*
X109953330Y-107091937D01*
X109949812Y-107360716D01*
X83058500Y-107360716D01*
X83058500Y-105146000D01*
X140154502Y-105146000D01*
X140174457Y-105374087D01*
X140175881Y-105379400D01*
X140175881Y-105379402D01*
X140212850Y-105517369D01*
X140233716Y-105595243D01*
X140236039Y-105600224D01*
X140236039Y-105600225D01*
X140328151Y-105797762D01*
X140328154Y-105797767D01*
X140330477Y-105802749D01*
X140333634Y-105807257D01*
X140447581Y-105969990D01*
X140461802Y-105990300D01*
X140623700Y-106152198D01*
X140628208Y-106155355D01*
X140628211Y-106155357D01*
X140669542Y-106184297D01*
X140811251Y-106283523D01*
X140816233Y-106285846D01*
X140816238Y-106285849D01*
X141013775Y-106377961D01*
X141018757Y-106380284D01*
X141024065Y-106381706D01*
X141024067Y-106381707D01*
X141234598Y-106438119D01*
X141234600Y-106438119D01*
X141239913Y-106439543D01*
X141468000Y-106459498D01*
X141696087Y-106439543D01*
X141701400Y-106438119D01*
X141701402Y-106438119D01*
X141911933Y-106381707D01*
X141911935Y-106381706D01*
X141917243Y-106380284D01*
X141922225Y-106377961D01*
X142119762Y-106285849D01*
X142119767Y-106285846D01*
X142124749Y-106283523D01*
X142266458Y-106184297D01*
X142307789Y-106155357D01*
X142307792Y-106155355D01*
X142312300Y-106152198D01*
X142474198Y-105990300D01*
X142488420Y-105969990D01*
X142602366Y-105807257D01*
X142605523Y-105802749D01*
X142607846Y-105797767D01*
X142607849Y-105797762D01*
X142699961Y-105600225D01*
X142699961Y-105600224D01*
X142702284Y-105595243D01*
X142723151Y-105517369D01*
X142760119Y-105379402D01*
X142760119Y-105379400D01*
X142761543Y-105374087D01*
X142781498Y-105146000D01*
X142761543Y-104917913D01*
X142756901Y-104900588D01*
X142703707Y-104702067D01*
X142703706Y-104702065D01*
X142702284Y-104696757D01*
X142699961Y-104691775D01*
X142607849Y-104494238D01*
X142607846Y-104494233D01*
X142605523Y-104489251D01*
X142500186Y-104338815D01*
X142477357Y-104306211D01*
X142477355Y-104306208D01*
X142474198Y-104301700D01*
X142312300Y-104139802D01*
X142307792Y-104136645D01*
X142307789Y-104136643D01*
X142169558Y-104039853D01*
X142124749Y-104008477D01*
X142119767Y-104006154D01*
X142119762Y-104006151D01*
X142085543Y-103990195D01*
X142032258Y-103943278D01*
X142012797Y-103875001D01*
X142033339Y-103807041D01*
X142085543Y-103761805D01*
X142119762Y-103745849D01*
X142119767Y-103745846D01*
X142124749Y-103743523D01*
X142294374Y-103624750D01*
X142307789Y-103615357D01*
X142307792Y-103615355D01*
X142312300Y-103612198D01*
X142474198Y-103450300D01*
X142478930Y-103443543D01*
X142602366Y-103267257D01*
X142605523Y-103262749D01*
X142607846Y-103257767D01*
X142607849Y-103257762D01*
X142699961Y-103060225D01*
X142699961Y-103060224D01*
X142702284Y-103055243D01*
X142746236Y-102891215D01*
X142760119Y-102839402D01*
X142760119Y-102839400D01*
X142761543Y-102834087D01*
X142781498Y-102606000D01*
X147774502Y-102606000D01*
X147794457Y-102834087D01*
X147795881Y-102839400D01*
X147795881Y-102839402D01*
X147809765Y-102891215D01*
X147853716Y-103055243D01*
X147856039Y-103060224D01*
X147856039Y-103060225D01*
X147948151Y-103257762D01*
X147948154Y-103257767D01*
X147950477Y-103262749D01*
X147953634Y-103267257D01*
X148077071Y-103443543D01*
X148081802Y-103450300D01*
X148243700Y-103612198D01*
X148248211Y-103615357D01*
X148252424Y-103618892D01*
X148251473Y-103620026D01*
X148291471Y-103670071D01*
X148298776Y-103740690D01*
X148266742Y-103804049D01*
X148205538Y-103840030D01*
X148188483Y-103843082D01*
X148177684Y-103844255D01*
X148041295Y-103895385D01*
X147924739Y-103982739D01*
X147837385Y-104099295D01*
X147786255Y-104235684D01*
X147779500Y-104297866D01*
X147779500Y-105994134D01*
X147786255Y-106056316D01*
X147837385Y-106192705D01*
X147924739Y-106309261D01*
X148041295Y-106396615D01*
X148177684Y-106447745D01*
X148239866Y-106454500D01*
X149936134Y-106454500D01*
X149998316Y-106447745D01*
X150134705Y-106396615D01*
X150251261Y-106309261D01*
X150338615Y-106192705D01*
X150389745Y-106056316D01*
X150396500Y-105994134D01*
X150396500Y-104894750D01*
X152766524Y-104894750D01*
X152784894Y-105096596D01*
X152786632Y-105102502D01*
X152786633Y-105102506D01*
X152822462Y-105224240D01*
X152840788Y-105286507D01*
X152842119Y-105291029D01*
X152841260Y-105291282D01*
X152847714Y-105356662D01*
X152834548Y-105393406D01*
X152829385Y-105400295D01*
X152826236Y-105408696D01*
X152826234Y-105408699D01*
X152808371Y-105456350D01*
X152778255Y-105536684D01*
X152771500Y-105598866D01*
X152771500Y-106745134D01*
X152778255Y-106807316D01*
X152829385Y-106943705D01*
X152916739Y-107060261D01*
X153033295Y-107147615D01*
X153169684Y-107198745D01*
X153231866Y-107205500D01*
X154828134Y-107205500D01*
X154890316Y-107198745D01*
X155026705Y-107147615D01*
X155143261Y-107060261D01*
X155230615Y-106943705D01*
X155281745Y-106807316D01*
X155288500Y-106745134D01*
X155288500Y-105598866D01*
X155281745Y-105536684D01*
X155251629Y-105456350D01*
X155233768Y-105408704D01*
X155233766Y-105408701D01*
X155230615Y-105400295D01*
X155225227Y-105393106D01*
X155225094Y-105392863D01*
X155209924Y-105323506D01*
X155215248Y-105295092D01*
X155216428Y-105291282D01*
X155267066Y-105127695D01*
X161070251Y-105127695D01*
X161070548Y-105132848D01*
X161070548Y-105132851D01*
X161081541Y-105323506D01*
X161083110Y-105350715D01*
X161084247Y-105355761D01*
X161084248Y-105355767D01*
X161103641Y-105441816D01*
X161132222Y-105568639D01*
X161216266Y-105775616D01*
X161332987Y-105966088D01*
X161479250Y-106134938D01*
X161651126Y-106277632D01*
X161844000Y-106390338D01*
X162052692Y-106470030D01*
X162057760Y-106471061D01*
X162057763Y-106471062D01*
X162165017Y-106492883D01*
X162271597Y-106514567D01*
X162276772Y-106514757D01*
X162276774Y-106514757D01*
X162489673Y-106522564D01*
X162489677Y-106522564D01*
X162494837Y-106522753D01*
X162499957Y-106522097D01*
X162499959Y-106522097D01*
X162711288Y-106495025D01*
X162711289Y-106495025D01*
X162716416Y-106494368D01*
X162721366Y-106492883D01*
X162925429Y-106431661D01*
X162925434Y-106431659D01*
X162930384Y-106430174D01*
X163130994Y-106331896D01*
X163312860Y-106202173D01*
X163471096Y-106044489D01*
X163530594Y-105961689D01*
X163598435Y-105867277D01*
X163601453Y-105863077D01*
X163633734Y-105797762D01*
X163698136Y-105667453D01*
X163698137Y-105667451D01*
X163700430Y-105662811D01*
X163760489Y-105465134D01*
X163763865Y-105454023D01*
X163763865Y-105454021D01*
X163765370Y-105449069D01*
X163794529Y-105227590D01*
X163796156Y-105161000D01*
X163777852Y-104938361D01*
X163723431Y-104721702D01*
X163634354Y-104516840D01*
X163588027Y-104445229D01*
X163515822Y-104333617D01*
X163515820Y-104333614D01*
X163513014Y-104329277D01*
X163362670Y-104164051D01*
X163358619Y-104160852D01*
X163358615Y-104160848D01*
X163191414Y-104028800D01*
X163191410Y-104028798D01*
X163187359Y-104025598D01*
X163179083Y-104021029D01*
X163099972Y-103977358D01*
X162991789Y-103917638D01*
X162986920Y-103915914D01*
X162986916Y-103915912D01*
X162786087Y-103844795D01*
X162786083Y-103844794D01*
X162781212Y-103843069D01*
X162776119Y-103842162D01*
X162776116Y-103842161D01*
X162566373Y-103804800D01*
X162566367Y-103804799D01*
X162561284Y-103803894D01*
X162487452Y-103802992D01*
X162343081Y-103801228D01*
X162343079Y-103801228D01*
X162337911Y-103801165D01*
X162117091Y-103834955D01*
X161904756Y-103904357D01*
X161874443Y-103920137D01*
X161764523Y-103977358D01*
X161706607Y-104007507D01*
X161702474Y-104010610D01*
X161702471Y-104010612D01*
X161532100Y-104138530D01*
X161527965Y-104141635D01*
X161524393Y-104145373D01*
X161408698Y-104266441D01*
X161373629Y-104303138D01*
X161370715Y-104307410D01*
X161370714Y-104307411D01*
X161352838Y-104333617D01*
X161247743Y-104487680D01*
X161153688Y-104690305D01*
X161093989Y-104905570D01*
X161070251Y-105127695D01*
X155267066Y-105127695D01*
X155272290Y-105110820D01*
X155292566Y-104917913D01*
X155292832Y-104915378D01*
X155292832Y-104915377D01*
X155293476Y-104909250D01*
X155276864Y-104726720D01*
X155275665Y-104713543D01*
X155275664Y-104713540D01*
X155275106Y-104707404D01*
X155271973Y-104696757D01*
X155219620Y-104518880D01*
X155217881Y-104512971D01*
X155213951Y-104505452D01*
X155139615Y-104363261D01*
X155123981Y-104333355D01*
X155124016Y-104333337D01*
X155104111Y-104267559D01*
X155119271Y-104206591D01*
X155125438Y-104195185D01*
X155212356Y-104034435D01*
X155252622Y-103904357D01*
X155270468Y-103846707D01*
X155270469Y-103846704D01*
X155272290Y-103840820D01*
X155272980Y-103834261D01*
X155292832Y-103645378D01*
X155292832Y-103645377D01*
X155293476Y-103639250D01*
X155282544Y-103519134D01*
X157899500Y-103519134D01*
X157906255Y-103581316D01*
X157957385Y-103717705D01*
X158044739Y-103834261D01*
X158161295Y-103921615D01*
X158297684Y-103972745D01*
X158359866Y-103979500D01*
X160156134Y-103979500D01*
X160218316Y-103972745D01*
X160354705Y-103921615D01*
X160471261Y-103834261D01*
X160558615Y-103717705D01*
X160609745Y-103581316D01*
X160616500Y-103519134D01*
X160616500Y-101722866D01*
X160609745Y-101660684D01*
X160558615Y-101524295D01*
X160471261Y-101407739D01*
X160354705Y-101320385D01*
X160218316Y-101269255D01*
X160156134Y-101262500D01*
X160122452Y-101262500D01*
X160054331Y-101242498D01*
X160011177Y-101195610D01*
X160008658Y-101190868D01*
X159270812Y-100453022D01*
X159256868Y-100445408D01*
X159255035Y-100445539D01*
X159248420Y-100449790D01*
X158504737Y-101193473D01*
X158502874Y-101196885D01*
X158452672Y-101247087D01*
X158392286Y-101262500D01*
X158359866Y-101262500D01*
X158297684Y-101269255D01*
X158161295Y-101320385D01*
X158044739Y-101407739D01*
X157957385Y-101524295D01*
X157906255Y-101660684D01*
X157899500Y-101722866D01*
X157899500Y-103519134D01*
X155282544Y-103519134D01*
X155282233Y-103515717D01*
X155275665Y-103443543D01*
X155275664Y-103443540D01*
X155275106Y-103437404D01*
X155217881Y-103242971D01*
X155213951Y-103235452D01*
X155126835Y-103068815D01*
X155123981Y-103063355D01*
X155118630Y-103056699D01*
X155000840Y-102910199D01*
X154996981Y-102905399D01*
X154841719Y-102775119D01*
X154836327Y-102772155D01*
X154836323Y-102772152D01*
X154669506Y-102680444D01*
X154664109Y-102677477D01*
X154470916Y-102616193D01*
X154464799Y-102615507D01*
X154464795Y-102615506D01*
X154380045Y-102606000D01*
X154313183Y-102598500D01*
X153753996Y-102598500D01*
X153603287Y-102613277D01*
X153409258Y-102671858D01*
X153230302Y-102767010D01*
X153073237Y-102895110D01*
X153069310Y-102899857D01*
X153069308Y-102899859D01*
X152947973Y-103046528D01*
X152947971Y-103046531D01*
X152944044Y-103051278D01*
X152847644Y-103229565D01*
X152787710Y-103423180D01*
X152787066Y-103429305D01*
X152787066Y-103429306D01*
X152784450Y-103454197D01*
X152766524Y-103624750D01*
X152770649Y-103670071D01*
X152783916Y-103815845D01*
X152784894Y-103826596D01*
X152786632Y-103832502D01*
X152786633Y-103832506D01*
X152819730Y-103944959D01*
X152842119Y-104021029D01*
X152844972Y-104026486D01*
X152844973Y-104026489D01*
X152856289Y-104048134D01*
X152935923Y-104200460D01*
X152935923Y-104200462D01*
X152936019Y-104200645D01*
X152935984Y-104200663D01*
X152955889Y-104266441D01*
X152940729Y-104327409D01*
X152847644Y-104499565D01*
X152787710Y-104693180D01*
X152766524Y-104894750D01*
X150396500Y-104894750D01*
X150396500Y-104297866D01*
X150389745Y-104235684D01*
X150338615Y-104099295D01*
X150251261Y-103982739D01*
X150134705Y-103895385D01*
X149998316Y-103844255D01*
X149987526Y-103843083D01*
X149985394Y-103842197D01*
X149982778Y-103841575D01*
X149982879Y-103841152D01*
X149921965Y-103815845D01*
X149881537Y-103757483D01*
X149879078Y-103686529D01*
X149915371Y-103625510D01*
X149924031Y-103618511D01*
X149927793Y-103615354D01*
X149932300Y-103612198D01*
X150094198Y-103450300D01*
X150098930Y-103443543D01*
X150222366Y-103267257D01*
X150225523Y-103262749D01*
X150227846Y-103257767D01*
X150227849Y-103257762D01*
X150319961Y-103060225D01*
X150319961Y-103060224D01*
X150322284Y-103055243D01*
X150366236Y-102891215D01*
X150380119Y-102839402D01*
X150380119Y-102839400D01*
X150381543Y-102834087D01*
X150401498Y-102606000D01*
X150381543Y-102377913D01*
X150322284Y-102156757D01*
X150319961Y-102151775D01*
X150227849Y-101954238D01*
X150227846Y-101954233D01*
X150225523Y-101949251D01*
X150094198Y-101761700D01*
X149932300Y-101599802D01*
X149927792Y-101596645D01*
X149927789Y-101596643D01*
X149814202Y-101517109D01*
X149744749Y-101468477D01*
X149739767Y-101466154D01*
X149739762Y-101466151D01*
X149705543Y-101450195D01*
X149652258Y-101403278D01*
X149632797Y-101335001D01*
X149653339Y-101267041D01*
X149705543Y-101221805D01*
X149739762Y-101205849D01*
X149739767Y-101205846D01*
X149744749Y-101203523D01*
X149849611Y-101130098D01*
X149927789Y-101075357D01*
X149927792Y-101075355D01*
X149932300Y-101072198D01*
X150094198Y-100910300D01*
X150113815Y-100882285D01*
X150165691Y-100808198D01*
X150225523Y-100722749D01*
X150227846Y-100717767D01*
X150227849Y-100717762D01*
X150319961Y-100520225D01*
X150319961Y-100520224D01*
X150322284Y-100515243D01*
X150328171Y-100493275D01*
X150380119Y-100299402D01*
X150380119Y-100299400D01*
X150381543Y-100294087D01*
X150401498Y-100066000D01*
X150381543Y-99837913D01*
X150329522Y-99643770D01*
X150323707Y-99622067D01*
X150323706Y-99622065D01*
X150322284Y-99616757D01*
X150304320Y-99578232D01*
X150227849Y-99414238D01*
X150227846Y-99414233D01*
X150225523Y-99409251D01*
X150144745Y-99293888D01*
X150097357Y-99226211D01*
X150097355Y-99226208D01*
X150094198Y-99221700D01*
X149932300Y-99059802D01*
X149927792Y-99056645D01*
X149927789Y-99056643D01*
X149792926Y-98962211D01*
X149744749Y-98928477D01*
X149739767Y-98926154D01*
X149739762Y-98926151D01*
X149704951Y-98909919D01*
X149651666Y-98863002D01*
X149632205Y-98794725D01*
X149652747Y-98726765D01*
X149704951Y-98681529D01*
X149739511Y-98665414D01*
X149749007Y-98659931D01*
X149927467Y-98534972D01*
X149935875Y-98527916D01*
X150089916Y-98373875D01*
X150096972Y-98365467D01*
X150221931Y-98187007D01*
X150227414Y-98177511D01*
X150319490Y-97980053D01*
X150323236Y-97969761D01*
X150369394Y-97797497D01*
X150369058Y-97783401D01*
X150361116Y-97780000D01*
X147820033Y-97780000D01*
X147806502Y-97783973D01*
X147805273Y-97792522D01*
X147852764Y-97969761D01*
X147856510Y-97980053D01*
X147948586Y-98177511D01*
X147954069Y-98187007D01*
X148079028Y-98365467D01*
X148086084Y-98373875D01*
X148240125Y-98527916D01*
X148248533Y-98534972D01*
X148426993Y-98659931D01*
X148436489Y-98665414D01*
X148471049Y-98681529D01*
X148524334Y-98728446D01*
X148543795Y-98796723D01*
X148523253Y-98864683D01*
X148471049Y-98909919D01*
X148436238Y-98926151D01*
X148436233Y-98926154D01*
X148431251Y-98928477D01*
X148383074Y-98962211D01*
X148248211Y-99056643D01*
X148248208Y-99056645D01*
X148243700Y-99059802D01*
X148081802Y-99221700D01*
X148078645Y-99226208D01*
X148078643Y-99226211D01*
X148031255Y-99293888D01*
X147950477Y-99409251D01*
X147948154Y-99414233D01*
X147948151Y-99414238D01*
X147871680Y-99578232D01*
X147853716Y-99616757D01*
X147852294Y-99622065D01*
X147852293Y-99622067D01*
X147846478Y-99643770D01*
X147794457Y-99837913D01*
X147774502Y-100066000D01*
X147794457Y-100294087D01*
X147795881Y-100299400D01*
X147795881Y-100299402D01*
X147847830Y-100493275D01*
X147853716Y-100515243D01*
X147856039Y-100520224D01*
X147856039Y-100520225D01*
X147948151Y-100717762D01*
X147948154Y-100717767D01*
X147950477Y-100722749D01*
X148010309Y-100808198D01*
X148062186Y-100882285D01*
X148081802Y-100910300D01*
X148243700Y-101072198D01*
X148248208Y-101075355D01*
X148248211Y-101075357D01*
X148326389Y-101130098D01*
X148431251Y-101203523D01*
X148436233Y-101205846D01*
X148436238Y-101205849D01*
X148470457Y-101221805D01*
X148523742Y-101268722D01*
X148543203Y-101336999D01*
X148522661Y-101404959D01*
X148470457Y-101450195D01*
X148436238Y-101466151D01*
X148436233Y-101466154D01*
X148431251Y-101468477D01*
X148361798Y-101517109D01*
X148248211Y-101596643D01*
X148248208Y-101596645D01*
X148243700Y-101599802D01*
X148081802Y-101761700D01*
X147950477Y-101949251D01*
X147948154Y-101954233D01*
X147948151Y-101954238D01*
X147856039Y-102151775D01*
X147853716Y-102156757D01*
X147794457Y-102377913D01*
X147774502Y-102606000D01*
X142781498Y-102606000D01*
X142761543Y-102377913D01*
X142702284Y-102156757D01*
X142699961Y-102151775D01*
X142607849Y-101954238D01*
X142607846Y-101954233D01*
X142605523Y-101949251D01*
X142474198Y-101761700D01*
X142312300Y-101599802D01*
X142307792Y-101596645D01*
X142307789Y-101596643D01*
X142194202Y-101517109D01*
X142124749Y-101468477D01*
X142119767Y-101466154D01*
X142119762Y-101466151D01*
X142085543Y-101450195D01*
X142032258Y-101403278D01*
X142012797Y-101335001D01*
X142033339Y-101267041D01*
X142085543Y-101221805D01*
X142119762Y-101205849D01*
X142119767Y-101205846D01*
X142124749Y-101203523D01*
X142229611Y-101130098D01*
X142307789Y-101075357D01*
X142307792Y-101075355D01*
X142312300Y-101072198D01*
X142474198Y-100910300D01*
X142493815Y-100882285D01*
X142545691Y-100808198D01*
X142605523Y-100722749D01*
X142607846Y-100717767D01*
X142607849Y-100717762D01*
X142699961Y-100520225D01*
X142699961Y-100520224D01*
X142702284Y-100515243D01*
X142708171Y-100493275D01*
X142760119Y-100299402D01*
X142760119Y-100299400D01*
X142761543Y-100294087D01*
X142781498Y-100066000D01*
X142761543Y-99837913D01*
X142709522Y-99643770D01*
X142703707Y-99622067D01*
X142703706Y-99622065D01*
X142702284Y-99616757D01*
X142684320Y-99578232D01*
X142607849Y-99414238D01*
X142607846Y-99414233D01*
X142605523Y-99409251D01*
X142524745Y-99293888D01*
X142477357Y-99226211D01*
X142477355Y-99226208D01*
X142474198Y-99221700D01*
X142312300Y-99059802D01*
X142307792Y-99056645D01*
X142307789Y-99056643D01*
X142172926Y-98962211D01*
X142124749Y-98928477D01*
X142119767Y-98926154D01*
X142119762Y-98926151D01*
X142085543Y-98910195D01*
X142032258Y-98863278D01*
X142012797Y-98795001D01*
X142033339Y-98727041D01*
X142085543Y-98681805D01*
X142119762Y-98665849D01*
X142119767Y-98665846D01*
X142124749Y-98663523D01*
X142301539Y-98539733D01*
X142307789Y-98535357D01*
X142307792Y-98535355D01*
X142312300Y-98532198D01*
X142474198Y-98370300D01*
X142488420Y-98349990D01*
X142602366Y-98187257D01*
X142605523Y-98182749D01*
X142607846Y-98177767D01*
X142607849Y-98177762D01*
X142699961Y-97980225D01*
X142699961Y-97980224D01*
X142702284Y-97975243D01*
X142741452Y-97829069D01*
X142760119Y-97759402D01*
X142760119Y-97759400D01*
X142761543Y-97754087D01*
X142781498Y-97526000D01*
X142762380Y-97307475D01*
X151595483Y-97307475D01*
X151614472Y-97524519D01*
X151616375Y-97535312D01*
X151672764Y-97745761D01*
X151676510Y-97756053D01*
X151768586Y-97953511D01*
X151774069Y-97963006D01*
X151810509Y-98015048D01*
X151820988Y-98023424D01*
X151834434Y-98016356D01*
X152535978Y-97314812D01*
X152543592Y-97300868D01*
X152543461Y-97299035D01*
X152539210Y-97292420D01*
X151833713Y-96586923D01*
X151821938Y-96580493D01*
X151809923Y-96589789D01*
X151774069Y-96640994D01*
X151768586Y-96650489D01*
X151676510Y-96847947D01*
X151672764Y-96858239D01*
X151616375Y-97068688D01*
X151614472Y-97079481D01*
X151595483Y-97296525D01*
X151595483Y-97307475D01*
X142762380Y-97307475D01*
X142761543Y-97297913D01*
X142751244Y-97259478D01*
X142749911Y-97254503D01*
X147806606Y-97254503D01*
X147806942Y-97268599D01*
X147814884Y-97272000D01*
X148815885Y-97272000D01*
X148831124Y-97267525D01*
X148832329Y-97266135D01*
X148834000Y-97258452D01*
X148834000Y-97253885D01*
X149342000Y-97253885D01*
X149346475Y-97269124D01*
X149347865Y-97270329D01*
X149355548Y-97272000D01*
X150355967Y-97272000D01*
X150369498Y-97268027D01*
X150370727Y-97259478D01*
X150323236Y-97082239D01*
X150319490Y-97071947D01*
X150227414Y-96874489D01*
X150221931Y-96864993D01*
X150096972Y-96686533D01*
X150089916Y-96678125D01*
X149935875Y-96524084D01*
X149927467Y-96517028D01*
X149749007Y-96392069D01*
X149739511Y-96386586D01*
X149542053Y-96294510D01*
X149531761Y-96290764D01*
X149359497Y-96244606D01*
X149345401Y-96244942D01*
X149342000Y-96252884D01*
X149342000Y-97253885D01*
X148834000Y-97253885D01*
X148834000Y-96258033D01*
X148830027Y-96244502D01*
X148821478Y-96243273D01*
X148644239Y-96290764D01*
X148633947Y-96294510D01*
X148436489Y-96386586D01*
X148426993Y-96392069D01*
X148248533Y-96517028D01*
X148240125Y-96524084D01*
X148086084Y-96678125D01*
X148079028Y-96686533D01*
X147954069Y-96864993D01*
X147948586Y-96874489D01*
X147856510Y-97071947D01*
X147852764Y-97082239D01*
X147806606Y-97254503D01*
X142749911Y-97254503D01*
X142703707Y-97082067D01*
X142703706Y-97082065D01*
X142702284Y-97076757D01*
X142699961Y-97071775D01*
X142607849Y-96874238D01*
X142607846Y-96874233D01*
X142605523Y-96869251D01*
X142474198Y-96681700D01*
X142312300Y-96519802D01*
X142307792Y-96516645D01*
X142307789Y-96516643D01*
X142145634Y-96403101D01*
X142124749Y-96388477D01*
X142119767Y-96386154D01*
X142119762Y-96386151D01*
X141922225Y-96294039D01*
X141922224Y-96294039D01*
X141917243Y-96291716D01*
X141911935Y-96290294D01*
X141911933Y-96290293D01*
X141701402Y-96233881D01*
X141701400Y-96233881D01*
X141696087Y-96232457D01*
X141468000Y-96212502D01*
X141239913Y-96232457D01*
X141234600Y-96233881D01*
X141234598Y-96233881D01*
X141024067Y-96290293D01*
X141024065Y-96290294D01*
X141018757Y-96291716D01*
X141013776Y-96294039D01*
X141013775Y-96294039D01*
X140816238Y-96386151D01*
X140816233Y-96386154D01*
X140811251Y-96388477D01*
X140790366Y-96403101D01*
X140628211Y-96516643D01*
X140628208Y-96516645D01*
X140623700Y-96519802D01*
X140461802Y-96681700D01*
X140330477Y-96869251D01*
X140328154Y-96874233D01*
X140328151Y-96874238D01*
X140236039Y-97071775D01*
X140233716Y-97076757D01*
X140232294Y-97082065D01*
X140232293Y-97082067D01*
X140184756Y-97259478D01*
X140174457Y-97297913D01*
X140154502Y-97526000D01*
X140174457Y-97754087D01*
X140175881Y-97759400D01*
X140175881Y-97759402D01*
X140194549Y-97829069D01*
X140233716Y-97975243D01*
X140236039Y-97980224D01*
X140236039Y-97980225D01*
X140328151Y-98177762D01*
X140328154Y-98177767D01*
X140330477Y-98182749D01*
X140333634Y-98187257D01*
X140447581Y-98349990D01*
X140461802Y-98370300D01*
X140623700Y-98532198D01*
X140628208Y-98535355D01*
X140628211Y-98535357D01*
X140634461Y-98539733D01*
X140811251Y-98663523D01*
X140816233Y-98665846D01*
X140816238Y-98665849D01*
X140850457Y-98681805D01*
X140903742Y-98728722D01*
X140923203Y-98796999D01*
X140902661Y-98864959D01*
X140850457Y-98910195D01*
X140816238Y-98926151D01*
X140816233Y-98926154D01*
X140811251Y-98928477D01*
X140763074Y-98962211D01*
X140628211Y-99056643D01*
X140628208Y-99056645D01*
X140623700Y-99059802D01*
X140461802Y-99221700D01*
X140458645Y-99226208D01*
X140458643Y-99226211D01*
X140411255Y-99293888D01*
X140330477Y-99409251D01*
X140328154Y-99414233D01*
X140328151Y-99414238D01*
X140251680Y-99578232D01*
X140233716Y-99616757D01*
X140232294Y-99622065D01*
X140232293Y-99622067D01*
X140226478Y-99643770D01*
X140174457Y-99837913D01*
X140154502Y-100066000D01*
X140174457Y-100294087D01*
X140175881Y-100299400D01*
X140175881Y-100299402D01*
X140227830Y-100493275D01*
X140233716Y-100515243D01*
X140236039Y-100520224D01*
X140236039Y-100520225D01*
X140328151Y-100717762D01*
X140328154Y-100717767D01*
X140330477Y-100722749D01*
X140390309Y-100808198D01*
X140442186Y-100882285D01*
X140461802Y-100910300D01*
X140623700Y-101072198D01*
X140628208Y-101075355D01*
X140628211Y-101075357D01*
X140706389Y-101130098D01*
X140811251Y-101203523D01*
X140816233Y-101205846D01*
X140816238Y-101205849D01*
X140850457Y-101221805D01*
X140903742Y-101268722D01*
X140923203Y-101336999D01*
X140902661Y-101404959D01*
X140850457Y-101450195D01*
X140816238Y-101466151D01*
X140816233Y-101466154D01*
X140811251Y-101468477D01*
X140741798Y-101517109D01*
X140628211Y-101596643D01*
X140628208Y-101596645D01*
X140623700Y-101599802D01*
X140461802Y-101761700D01*
X140330477Y-101949251D01*
X140328154Y-101954233D01*
X140328151Y-101954238D01*
X140236039Y-102151775D01*
X140233716Y-102156757D01*
X140174457Y-102377913D01*
X140154502Y-102606000D01*
X140174457Y-102834087D01*
X140175881Y-102839400D01*
X140175881Y-102839402D01*
X140189765Y-102891215D01*
X140233716Y-103055243D01*
X140236039Y-103060224D01*
X140236039Y-103060225D01*
X140328151Y-103257762D01*
X140328154Y-103257767D01*
X140330477Y-103262749D01*
X140333634Y-103267257D01*
X140457071Y-103443543D01*
X140461802Y-103450300D01*
X140623700Y-103612198D01*
X140628208Y-103615355D01*
X140628211Y-103615357D01*
X140641626Y-103624750D01*
X140811251Y-103743523D01*
X140816233Y-103745846D01*
X140816238Y-103745849D01*
X140850457Y-103761805D01*
X140903742Y-103808722D01*
X140923203Y-103876999D01*
X140902661Y-103944959D01*
X140850457Y-103990195D01*
X140816238Y-104006151D01*
X140816233Y-104006154D01*
X140811251Y-104008477D01*
X140766442Y-104039853D01*
X140628211Y-104136643D01*
X140628208Y-104136645D01*
X140623700Y-104139802D01*
X140461802Y-104301700D01*
X140458645Y-104306208D01*
X140458643Y-104306211D01*
X140435814Y-104338815D01*
X140330477Y-104489251D01*
X140328154Y-104494233D01*
X140328151Y-104494238D01*
X140236039Y-104691775D01*
X140233716Y-104696757D01*
X140232294Y-104702065D01*
X140232293Y-104702067D01*
X140179099Y-104900588D01*
X140174457Y-104917913D01*
X140154502Y-105146000D01*
X83058500Y-105146000D01*
X83058500Y-104048134D01*
X133901500Y-104048134D01*
X133908255Y-104110316D01*
X133959385Y-104246705D01*
X134046739Y-104363261D01*
X134163295Y-104450615D01*
X134299684Y-104501745D01*
X134361866Y-104508500D01*
X137458134Y-104508500D01*
X137520316Y-104501745D01*
X137656705Y-104450615D01*
X137773261Y-104363261D01*
X137860615Y-104246705D01*
X137911745Y-104110316D01*
X137918500Y-104048134D01*
X137918500Y-100951866D01*
X137911745Y-100889684D01*
X137860615Y-100753295D01*
X137773261Y-100636739D01*
X137656705Y-100549385D01*
X137520316Y-100498255D01*
X137458134Y-100491500D01*
X134361866Y-100491500D01*
X134299684Y-100498255D01*
X134163295Y-100549385D01*
X134046739Y-100636739D01*
X133959385Y-100753295D01*
X133908255Y-100889684D01*
X133901500Y-100951866D01*
X133901500Y-104048134D01*
X83058500Y-104048134D01*
X83058500Y-92964000D01*
X141180502Y-92964000D01*
X141200457Y-93192087D01*
X141259716Y-93413243D01*
X141262039Y-93418224D01*
X141262039Y-93418225D01*
X141354151Y-93615762D01*
X141354154Y-93615767D01*
X141356477Y-93620749D01*
X141487802Y-93808300D01*
X141649700Y-93970198D01*
X141654208Y-93973355D01*
X141654211Y-93973357D01*
X141732389Y-94028098D01*
X141837251Y-94101523D01*
X141842233Y-94103846D01*
X141842238Y-94103849D01*
X142039775Y-94195961D01*
X142044757Y-94198284D01*
X142050065Y-94199706D01*
X142050067Y-94199707D01*
X142260598Y-94256119D01*
X142260600Y-94256119D01*
X142265913Y-94257543D01*
X142494000Y-94277498D01*
X142499475Y-94277019D01*
X142666178Y-94262435D01*
X142735783Y-94276425D01*
X142758738Y-94291931D01*
X142780703Y-94310592D01*
X142780710Y-94310597D01*
X142786285Y-94315333D01*
X142792799Y-94318660D01*
X142797850Y-94322028D01*
X142802979Y-94325195D01*
X142808716Y-94329734D01*
X142874875Y-94360655D01*
X142878769Y-94362558D01*
X142943808Y-94395769D01*
X142950916Y-94397508D01*
X142956559Y-94399607D01*
X142962322Y-94401524D01*
X142968950Y-94404622D01*
X142976112Y-94406112D01*
X142976113Y-94406112D01*
X143040412Y-94419486D01*
X143044696Y-94420456D01*
X143115610Y-94437808D01*
X143121212Y-94438156D01*
X143121215Y-94438156D01*
X143126764Y-94438500D01*
X143126762Y-94438536D01*
X143130755Y-94438775D01*
X143134947Y-94439149D01*
X143142115Y-94440640D01*
X143219520Y-94438546D01*
X143222928Y-94438500D01*
X147603500Y-94438500D01*
X147671621Y-94458502D01*
X147718114Y-94512158D01*
X147729500Y-94564500D01*
X147729500Y-94628134D01*
X147736255Y-94690316D01*
X147787385Y-94826705D01*
X147874739Y-94943261D01*
X147991295Y-95030615D01*
X148127684Y-95081745D01*
X148189866Y-95088500D01*
X150086134Y-95088500D01*
X150148316Y-95081745D01*
X150284705Y-95030615D01*
X150401261Y-94943261D01*
X150488615Y-94826705D01*
X150503686Y-94786504D01*
X150546328Y-94729739D01*
X150612890Y-94705040D01*
X150682239Y-94720248D01*
X150702150Y-94733788D01*
X150827349Y-94837730D01*
X151027322Y-94954584D01*
X151243694Y-95037209D01*
X151248760Y-95038240D01*
X151248761Y-95038240D01*
X151301846Y-95049040D01*
X151470656Y-95083385D01*
X151600089Y-95088131D01*
X151696949Y-95091683D01*
X151696953Y-95091683D01*
X151702113Y-95091872D01*
X151884594Y-95068495D01*
X151954703Y-95079679D01*
X151989698Y-95104379D01*
X152694672Y-95809353D01*
X152728698Y-95871665D01*
X152723633Y-95942480D01*
X152681086Y-95999316D01*
X152638188Y-96020155D01*
X152464239Y-96066764D01*
X152453947Y-96070510D01*
X152256489Y-96162586D01*
X152246994Y-96168069D01*
X152194952Y-96204509D01*
X152186576Y-96214988D01*
X152193644Y-96228434D01*
X153982287Y-98017077D01*
X153996231Y-98024691D01*
X154008613Y-98023806D01*
X154044518Y-98009761D01*
X154114123Y-98023749D01*
X154165115Y-98073148D01*
X154181500Y-98135281D01*
X154181500Y-98693629D01*
X154161498Y-98761750D01*
X154144600Y-98782719D01*
X154031001Y-98896318D01*
X153968693Y-98930341D01*
X153897877Y-98925277D01*
X153852814Y-98896316D01*
X153752300Y-98795802D01*
X153747792Y-98792645D01*
X153747789Y-98792643D01*
X153589496Y-98681805D01*
X153564749Y-98664477D01*
X153559765Y-98662153D01*
X153557472Y-98660829D01*
X153508479Y-98609447D01*
X153495043Y-98539733D01*
X153521429Y-98473822D01*
X153557472Y-98442591D01*
X153569002Y-98435934D01*
X153621048Y-98399491D01*
X153629424Y-98389012D01*
X153622356Y-98375566D01*
X152920812Y-97674022D01*
X152906868Y-97666408D01*
X152905035Y-97666539D01*
X152898420Y-97670790D01*
X152192923Y-98376287D01*
X152186493Y-98388062D01*
X152195789Y-98400077D01*
X152246998Y-98435934D01*
X152258528Y-98442591D01*
X152307521Y-98493973D01*
X152320958Y-98563687D01*
X152294571Y-98629598D01*
X152258528Y-98660829D01*
X152256235Y-98662153D01*
X152251251Y-98664477D01*
X152226504Y-98681805D01*
X152068211Y-98792643D01*
X152068208Y-98792645D01*
X152063700Y-98795802D01*
X151901802Y-98957700D01*
X151770477Y-99145251D01*
X151768154Y-99150233D01*
X151768151Y-99150238D01*
X151676039Y-99347775D01*
X151673716Y-99352757D01*
X151672294Y-99358065D01*
X151672293Y-99358067D01*
X151616144Y-99567617D01*
X151614457Y-99573913D01*
X151594502Y-99802000D01*
X151614457Y-100030087D01*
X151615881Y-100035400D01*
X151615881Y-100035402D01*
X151629001Y-100084364D01*
X151673716Y-100251243D01*
X151676039Y-100256224D01*
X151676039Y-100256225D01*
X151768151Y-100453762D01*
X151768154Y-100453767D01*
X151770477Y-100458749D01*
X151839421Y-100557211D01*
X151860467Y-100587267D01*
X151901802Y-100646300D01*
X152063700Y-100808198D01*
X152068208Y-100811355D01*
X152068211Y-100811357D01*
X152103542Y-100836096D01*
X152251251Y-100939523D01*
X152256233Y-100941846D01*
X152256238Y-100941849D01*
X152453775Y-101033961D01*
X152458757Y-101036284D01*
X152464065Y-101037706D01*
X152464067Y-101037707D01*
X152674598Y-101094119D01*
X152674600Y-101094119D01*
X152679913Y-101095543D01*
X152908000Y-101115498D01*
X153136087Y-101095543D01*
X153141400Y-101094119D01*
X153141402Y-101094119D01*
X153351933Y-101037707D01*
X153351935Y-101037706D01*
X153357243Y-101036284D01*
X153362225Y-101033961D01*
X153559762Y-100941849D01*
X153559767Y-100941846D01*
X153564749Y-100939523D01*
X153712458Y-100836096D01*
X153747789Y-100811357D01*
X153747792Y-100811355D01*
X153752300Y-100808198D01*
X153914198Y-100646300D01*
X153936655Y-100614229D01*
X153992110Y-100569901D01*
X154039867Y-100560500D01*
X154130930Y-100560500D01*
X154149880Y-100561933D01*
X154164115Y-100564099D01*
X154164119Y-100564099D01*
X154171349Y-100565199D01*
X154178641Y-100564606D01*
X154178644Y-100564606D01*
X154224018Y-100560915D01*
X154234233Y-100560500D01*
X154242293Y-100560500D01*
X154255583Y-100558951D01*
X154270507Y-100557211D01*
X154274882Y-100556778D01*
X154340339Y-100551454D01*
X154340342Y-100551453D01*
X154347637Y-100550860D01*
X154354601Y-100548604D01*
X154360560Y-100547413D01*
X154366415Y-100546029D01*
X154373681Y-100545182D01*
X154442327Y-100520265D01*
X154446455Y-100518848D01*
X154508936Y-100498607D01*
X154508938Y-100498606D01*
X154515899Y-100496351D01*
X154522154Y-100492555D01*
X154527628Y-100490049D01*
X154533058Y-100487330D01*
X154539937Y-100484833D01*
X154572846Y-100463257D01*
X154600976Y-100444814D01*
X154604680Y-100442477D01*
X154667107Y-100404595D01*
X154675484Y-100397197D01*
X154675508Y-100397224D01*
X154678500Y-100394571D01*
X154681733Y-100391868D01*
X154687852Y-100387856D01*
X154741128Y-100331617D01*
X154743506Y-100329175D01*
X155019818Y-100052863D01*
X157896050Y-100052863D01*
X157908309Y-100265477D01*
X157909745Y-100275697D01*
X157956565Y-100483446D01*
X157959645Y-100493275D01*
X158039770Y-100690603D01*
X158044413Y-100699794D01*
X158124460Y-100830420D01*
X158134916Y-100839880D01*
X158143694Y-100836096D01*
X158885978Y-100093812D01*
X158892356Y-100082132D01*
X159622408Y-100082132D01*
X159622539Y-100083965D01*
X159626790Y-100090580D01*
X160368474Y-100832264D01*
X160380484Y-100838823D01*
X160392223Y-100829855D01*
X160423004Y-100787019D01*
X160428315Y-100778180D01*
X160522670Y-100587267D01*
X160526469Y-100577672D01*
X160588376Y-100373915D01*
X160590555Y-100363834D01*
X160618590Y-100150887D01*
X160619109Y-100144212D01*
X160620572Y-100084364D01*
X160620378Y-100077646D01*
X160602781Y-99863604D01*
X160601096Y-99853424D01*
X160549214Y-99646875D01*
X160545894Y-99637124D01*
X160460972Y-99441814D01*
X160456105Y-99432739D01*
X160391063Y-99332197D01*
X160380377Y-99322995D01*
X160370812Y-99327398D01*
X159630022Y-100068188D01*
X159622408Y-100082132D01*
X158892356Y-100082132D01*
X158893592Y-100079868D01*
X158893461Y-100078035D01*
X158889210Y-100071420D01*
X158147849Y-99330059D01*
X158136313Y-99323759D01*
X158124031Y-99333382D01*
X158076089Y-99403662D01*
X158071004Y-99412613D01*
X157981338Y-99605783D01*
X157977775Y-99615470D01*
X157920864Y-99820681D01*
X157918933Y-99830800D01*
X157896302Y-100042574D01*
X157896050Y-100052863D01*
X155019818Y-100052863D01*
X155428911Y-99643770D01*
X155443323Y-99631384D01*
X155454918Y-99622851D01*
X155454923Y-99622846D01*
X155460818Y-99618508D01*
X155465557Y-99612930D01*
X155465560Y-99612927D01*
X155495035Y-99578232D01*
X155501965Y-99570716D01*
X155507660Y-99565021D01*
X155525281Y-99542749D01*
X155528072Y-99539345D01*
X155570591Y-99489297D01*
X155570592Y-99489295D01*
X155575333Y-99483715D01*
X155578661Y-99477199D01*
X155582020Y-99472162D01*
X155585194Y-99467023D01*
X155589734Y-99461284D01*
X155620636Y-99395163D01*
X155622569Y-99391209D01*
X155642204Y-99352757D01*
X155655769Y-99326192D01*
X155657510Y-99319076D01*
X155659604Y-99313446D01*
X155661523Y-99307679D01*
X155664621Y-99301050D01*
X155679483Y-99229600D01*
X155680453Y-99225315D01*
X155696473Y-99159844D01*
X155697808Y-99154390D01*
X155698500Y-99143236D01*
X155698536Y-99143238D01*
X155698775Y-99139248D01*
X155699150Y-99135050D01*
X155700640Y-99127885D01*
X155698546Y-99050479D01*
X155698500Y-99047072D01*
X155698500Y-98957427D01*
X158499223Y-98957427D01*
X158505968Y-98969758D01*
X159245188Y-99708978D01*
X159259132Y-99716592D01*
X159260965Y-99716461D01*
X159267580Y-99712210D01*
X160011389Y-98968401D01*
X160018410Y-98955544D01*
X160011611Y-98946213D01*
X160007554Y-98943518D01*
X159821117Y-98840599D01*
X159811705Y-98836369D01*
X159610959Y-98765280D01*
X159600989Y-98762646D01*
X159391327Y-98725301D01*
X159381073Y-98724331D01*
X159168116Y-98721728D01*
X159157832Y-98722448D01*
X158947321Y-98754661D01*
X158937293Y-98757050D01*
X158734868Y-98823212D01*
X158725359Y-98827209D01*
X158536466Y-98925540D01*
X158527734Y-98931039D01*
X158507677Y-98946099D01*
X158499223Y-98957427D01*
X155698500Y-98957427D01*
X155698500Y-97507695D01*
X161070251Y-97507695D01*
X161070548Y-97512848D01*
X161070548Y-97512851D01*
X161076011Y-97607590D01*
X161083110Y-97730715D01*
X161084247Y-97735761D01*
X161084248Y-97735767D01*
X161087142Y-97748607D01*
X161132222Y-97948639D01*
X161216266Y-98155616D01*
X161332987Y-98346088D01*
X161479250Y-98514938D01*
X161651126Y-98657632D01*
X161844000Y-98770338D01*
X161848825Y-98772180D01*
X161848826Y-98772181D01*
X161902411Y-98792643D01*
X162052692Y-98850030D01*
X162057760Y-98851061D01*
X162057763Y-98851062D01*
X162165017Y-98872883D01*
X162271597Y-98894567D01*
X162276772Y-98894757D01*
X162276774Y-98894757D01*
X162489673Y-98902564D01*
X162489677Y-98902564D01*
X162494837Y-98902753D01*
X162499957Y-98902097D01*
X162499959Y-98902097D01*
X162711288Y-98875025D01*
X162711289Y-98875025D01*
X162716416Y-98874368D01*
X162754301Y-98863002D01*
X162925429Y-98811661D01*
X162925434Y-98811659D01*
X162930384Y-98810174D01*
X163130994Y-98711896D01*
X163312860Y-98582173D01*
X163471096Y-98424489D01*
X163505733Y-98376287D01*
X163598435Y-98247277D01*
X163601453Y-98243077D01*
X163629165Y-98187007D01*
X163698136Y-98047453D01*
X163698137Y-98047451D01*
X163700430Y-98042811D01*
X163765370Y-97829069D01*
X163794529Y-97607590D01*
X163796156Y-97541000D01*
X163777852Y-97318361D01*
X163723431Y-97101702D01*
X163634354Y-96896840D01*
X163513014Y-96709277D01*
X163362670Y-96544051D01*
X163358619Y-96540852D01*
X163358615Y-96540848D01*
X163191414Y-96408800D01*
X163191410Y-96408798D01*
X163187359Y-96405598D01*
X162991789Y-96297638D01*
X162986920Y-96295914D01*
X162986916Y-96295912D01*
X162786087Y-96224795D01*
X162786083Y-96224794D01*
X162781212Y-96223069D01*
X162776119Y-96222162D01*
X162776116Y-96222161D01*
X162566373Y-96184800D01*
X162566367Y-96184799D01*
X162561284Y-96183894D01*
X162487452Y-96182992D01*
X162343081Y-96181228D01*
X162343079Y-96181228D01*
X162337911Y-96181165D01*
X162117091Y-96214955D01*
X161904756Y-96284357D01*
X161706607Y-96387507D01*
X161702474Y-96390610D01*
X161702471Y-96390612D01*
X161532100Y-96518530D01*
X161527965Y-96521635D01*
X161524393Y-96525373D01*
X161378420Y-96678125D01*
X161373629Y-96683138D01*
X161247743Y-96867680D01*
X161153688Y-97070305D01*
X161093989Y-97285570D01*
X161070251Y-97507695D01*
X155698500Y-97507695D01*
X155698500Y-96079063D01*
X155699933Y-96060114D01*
X155702097Y-96045886D01*
X155703198Y-96038651D01*
X155698915Y-95985990D01*
X155698500Y-95975777D01*
X155698500Y-95967707D01*
X155698078Y-95964087D01*
X155698077Y-95964069D01*
X155695208Y-95939461D01*
X155694775Y-95935086D01*
X155689454Y-95869661D01*
X155689453Y-95869658D01*
X155688860Y-95862363D01*
X155686604Y-95855399D01*
X155685413Y-95849440D01*
X155684029Y-95843585D01*
X155683182Y-95836319D01*
X155658265Y-95767673D01*
X155656848Y-95763545D01*
X155636607Y-95701064D01*
X155636606Y-95701062D01*
X155634351Y-95694101D01*
X155630555Y-95687846D01*
X155628049Y-95682372D01*
X155625330Y-95676942D01*
X155622833Y-95670063D01*
X155582809Y-95609016D01*
X155580472Y-95605312D01*
X155545509Y-95547693D01*
X155545505Y-95547688D01*
X155542595Y-95542892D01*
X155535197Y-95534516D01*
X155535223Y-95534493D01*
X155532574Y-95531503D01*
X155529866Y-95528264D01*
X155525856Y-95522148D01*
X155520549Y-95517121D01*
X155520546Y-95517117D01*
X155469617Y-95468872D01*
X155467175Y-95466494D01*
X155015770Y-95015089D01*
X155003384Y-95000677D01*
X154994852Y-94989083D01*
X154994846Y-94989076D01*
X154990508Y-94983182D01*
X154986108Y-94979444D01*
X154954562Y-94916554D01*
X154962092Y-94845957D01*
X155005373Y-94791499D01*
X155012376Y-94786504D01*
X155050243Y-94759494D01*
X155214303Y-94596005D01*
X155289777Y-94490973D01*
X155345770Y-94447326D01*
X155392098Y-94438500D01*
X159490930Y-94438500D01*
X159509880Y-94439933D01*
X159524115Y-94442099D01*
X159524119Y-94442099D01*
X159531349Y-94443199D01*
X159538641Y-94442606D01*
X159538644Y-94442606D01*
X159584018Y-94438915D01*
X159594233Y-94438500D01*
X159602293Y-94438500D01*
X159619680Y-94436473D01*
X159630507Y-94435211D01*
X159634882Y-94434778D01*
X159700339Y-94429454D01*
X159700342Y-94429453D01*
X159707637Y-94428860D01*
X159714601Y-94426604D01*
X159720560Y-94425413D01*
X159726415Y-94424029D01*
X159733681Y-94423182D01*
X159802327Y-94398265D01*
X159806455Y-94396848D01*
X159868936Y-94376607D01*
X159868938Y-94376606D01*
X159875899Y-94374351D01*
X159882154Y-94370555D01*
X159887628Y-94368049D01*
X159893058Y-94365330D01*
X159899937Y-94362833D01*
X159906058Y-94358820D01*
X159960976Y-94322814D01*
X159964680Y-94320477D01*
X160027107Y-94282595D01*
X160034094Y-94276425D01*
X160035484Y-94275197D01*
X160035508Y-94275224D01*
X160038500Y-94272571D01*
X160041733Y-94269868D01*
X160047852Y-94265856D01*
X160101128Y-94209617D01*
X160103506Y-94207175D01*
X161281010Y-93029671D01*
X161343322Y-92995645D01*
X161381087Y-92993245D01*
X161538525Y-93007019D01*
X161544000Y-93007498D01*
X161772087Y-92987543D01*
X161777400Y-92986119D01*
X161777402Y-92986119D01*
X161987933Y-92929707D01*
X161987935Y-92929706D01*
X161993243Y-92928284D01*
X161998225Y-92925961D01*
X162195762Y-92833849D01*
X162195767Y-92833846D01*
X162200749Y-92831523D01*
X162343074Y-92731866D01*
X162383789Y-92703357D01*
X162383792Y-92703355D01*
X162388300Y-92700198D01*
X162550198Y-92538300D01*
X162558735Y-92526109D01*
X162651677Y-92393373D01*
X162681523Y-92350749D01*
X162683846Y-92345767D01*
X162683849Y-92345762D01*
X162775961Y-92148225D01*
X162775961Y-92148224D01*
X162778284Y-92143243D01*
X162784593Y-92119700D01*
X162836119Y-91927402D01*
X162836119Y-91927400D01*
X162837543Y-91922087D01*
X162857498Y-91694000D01*
X162837543Y-91465913D01*
X162778284Y-91244757D01*
X162775961Y-91239775D01*
X162683849Y-91042238D01*
X162683846Y-91042233D01*
X162681523Y-91037251D01*
X162550198Y-90849700D01*
X162388300Y-90687802D01*
X162383792Y-90684645D01*
X162383789Y-90684643D01*
X162228479Y-90575894D01*
X162200749Y-90556477D01*
X162195767Y-90554154D01*
X162195762Y-90554151D01*
X161998225Y-90462039D01*
X161998224Y-90462039D01*
X161993243Y-90459716D01*
X161987935Y-90458294D01*
X161987933Y-90458293D01*
X161777402Y-90401881D01*
X161777400Y-90401881D01*
X161772087Y-90400457D01*
X161544000Y-90380502D01*
X161315913Y-90400457D01*
X161310600Y-90401881D01*
X161310598Y-90401881D01*
X161100067Y-90458293D01*
X161100065Y-90458294D01*
X161094757Y-90459716D01*
X161089776Y-90462039D01*
X161089775Y-90462039D01*
X160892238Y-90554151D01*
X160892233Y-90554154D01*
X160887251Y-90556477D01*
X160859521Y-90575894D01*
X160704211Y-90684643D01*
X160704208Y-90684645D01*
X160699700Y-90687802D01*
X160537802Y-90849700D01*
X160406477Y-91037251D01*
X160404154Y-91042233D01*
X160404151Y-91042238D01*
X160312039Y-91239775D01*
X160309716Y-91244757D01*
X160250457Y-91465913D01*
X160230502Y-91694000D01*
X160230981Y-91699475D01*
X160244755Y-91856913D01*
X160230766Y-91926518D01*
X160208329Y-91956990D01*
X159280724Y-92884595D01*
X159218412Y-92918621D01*
X159191629Y-92921500D01*
X155393493Y-92921500D01*
X155325372Y-92901498D01*
X155287701Y-92863941D01*
X155260571Y-92822004D01*
X155257764Y-92817665D01*
X155247589Y-92806482D01*
X155188362Y-92741393D01*
X155101887Y-92646358D01*
X155097836Y-92643159D01*
X155097832Y-92643155D01*
X154924177Y-92506011D01*
X154924172Y-92506008D01*
X154920123Y-92502810D01*
X154915607Y-92500317D01*
X154915604Y-92500315D01*
X154721879Y-92393373D01*
X154721875Y-92393371D01*
X154717355Y-92390876D01*
X154712486Y-92389152D01*
X154712482Y-92389150D01*
X154503903Y-92315288D01*
X154503899Y-92315287D01*
X154499028Y-92313562D01*
X154493935Y-92312655D01*
X154493932Y-92312654D01*
X154276095Y-92273851D01*
X154276089Y-92273850D01*
X154271006Y-92272945D01*
X154198096Y-92272054D01*
X154044581Y-92270179D01*
X154044579Y-92270179D01*
X154039411Y-92270116D01*
X153810464Y-92305150D01*
X153590314Y-92377106D01*
X153585726Y-92379494D01*
X153585722Y-92379496D01*
X153389461Y-92481663D01*
X153384872Y-92484052D01*
X153380739Y-92487155D01*
X153380736Y-92487157D01*
X153237074Y-92595022D01*
X153199655Y-92623117D01*
X153039639Y-92790564D01*
X152992836Y-92859174D01*
X152937927Y-92904175D01*
X152867402Y-92912346D01*
X152803655Y-92881092D01*
X152782959Y-92856609D01*
X152760577Y-92822013D01*
X152760576Y-92822012D01*
X152757764Y-92817665D01*
X152747589Y-92806482D01*
X152688362Y-92741393D01*
X152601887Y-92646358D01*
X152597836Y-92643159D01*
X152597832Y-92643155D01*
X152424177Y-92506011D01*
X152424172Y-92506008D01*
X152420123Y-92502810D01*
X152415607Y-92500317D01*
X152415604Y-92500315D01*
X152221879Y-92393373D01*
X152221875Y-92393371D01*
X152217355Y-92390876D01*
X152212486Y-92389152D01*
X152212482Y-92389150D01*
X152003903Y-92315288D01*
X152003899Y-92315287D01*
X151999028Y-92313562D01*
X151993935Y-92312655D01*
X151993932Y-92312654D01*
X151776095Y-92273851D01*
X151776089Y-92273850D01*
X151771006Y-92272945D01*
X151698096Y-92272054D01*
X151544581Y-92270179D01*
X151544579Y-92270179D01*
X151539411Y-92270116D01*
X151310464Y-92305150D01*
X151090314Y-92377106D01*
X151085726Y-92379494D01*
X151085722Y-92379496D01*
X150889461Y-92481663D01*
X150884872Y-92484052D01*
X150880739Y-92487155D01*
X150880736Y-92487157D01*
X150699655Y-92623117D01*
X150698976Y-92622213D01*
X150639730Y-92650131D01*
X150569341Y-92640869D01*
X150515132Y-92595022D01*
X150502325Y-92569866D01*
X150491768Y-92541705D01*
X150491767Y-92541703D01*
X150488615Y-92533295D01*
X150401261Y-92416739D01*
X150284705Y-92329385D01*
X150148316Y-92278255D01*
X150086134Y-92271500D01*
X148189866Y-92271500D01*
X148127684Y-92278255D01*
X147991295Y-92329385D01*
X147874739Y-92416739D01*
X147787385Y-92533295D01*
X147736255Y-92669684D01*
X147729500Y-92731866D01*
X147729500Y-92795500D01*
X147709498Y-92863621D01*
X147655842Y-92910114D01*
X147603500Y-92921500D01*
X143919238Y-92921500D01*
X143851117Y-92901498D01*
X143804624Y-92847842D01*
X143793717Y-92806482D01*
X143792756Y-92795500D01*
X143787543Y-92735913D01*
X143786119Y-92730598D01*
X143729707Y-92520067D01*
X143729706Y-92520065D01*
X143728284Y-92514757D01*
X143669713Y-92389150D01*
X143633849Y-92312238D01*
X143633846Y-92312233D01*
X143631523Y-92307251D01*
X143558098Y-92202389D01*
X143503357Y-92124211D01*
X143503355Y-92124208D01*
X143500198Y-92119700D01*
X143338300Y-91957802D01*
X143333792Y-91954645D01*
X143333789Y-91954643D01*
X143194216Y-91856913D01*
X143150749Y-91826477D01*
X143145767Y-91824154D01*
X143145762Y-91824151D01*
X142948225Y-91732039D01*
X142948224Y-91732039D01*
X142943243Y-91729716D01*
X142937935Y-91728294D01*
X142937933Y-91728293D01*
X142727402Y-91671881D01*
X142727400Y-91671881D01*
X142722087Y-91670457D01*
X142494000Y-91650502D01*
X142265913Y-91670457D01*
X142260600Y-91671881D01*
X142260598Y-91671881D01*
X142050067Y-91728293D01*
X142050065Y-91728294D01*
X142044757Y-91729716D01*
X142039776Y-91732039D01*
X142039775Y-91732039D01*
X141842238Y-91824151D01*
X141842233Y-91824154D01*
X141837251Y-91826477D01*
X141793784Y-91856913D01*
X141654211Y-91954643D01*
X141654208Y-91954645D01*
X141649700Y-91957802D01*
X141487802Y-92119700D01*
X141484645Y-92124208D01*
X141484643Y-92124211D01*
X141429902Y-92202389D01*
X141356477Y-92307251D01*
X141354154Y-92312233D01*
X141354151Y-92312238D01*
X141318287Y-92389150D01*
X141259716Y-92514757D01*
X141258294Y-92520065D01*
X141258293Y-92520067D01*
X141201881Y-92730598D01*
X141200457Y-92735913D01*
X141180502Y-92964000D01*
X83058500Y-92964000D01*
X83058500Y-91389654D01*
X134685618Y-91389654D01*
X134692673Y-91399627D01*
X134723679Y-91425551D01*
X134730598Y-91430579D01*
X134955272Y-91571515D01*
X134962807Y-91575556D01*
X135204520Y-91684694D01*
X135212551Y-91687680D01*
X135466832Y-91763002D01*
X135475184Y-91764869D01*
X135737340Y-91804984D01*
X135745874Y-91805700D01*
X136011045Y-91809867D01*
X136019596Y-91809418D01*
X136282883Y-91777557D01*
X136291284Y-91775955D01*
X136547824Y-91708653D01*
X136555926Y-91705926D01*
X136800949Y-91604434D01*
X136808617Y-91600628D01*
X137037598Y-91466822D01*
X137044679Y-91462009D01*
X137124655Y-91399301D01*
X137133125Y-91387442D01*
X137126608Y-91375818D01*
X135922812Y-90172022D01*
X135908868Y-90164408D01*
X135907035Y-90164539D01*
X135900420Y-90168790D01*
X134692910Y-91376300D01*
X134685618Y-91389654D01*
X83058500Y-91389654D01*
X83058500Y-89783204D01*
X133897665Y-89783204D01*
X133912932Y-90047969D01*
X133914005Y-90056470D01*
X133965065Y-90316722D01*
X133967276Y-90324974D01*
X134053184Y-90575894D01*
X134056499Y-90583779D01*
X134175664Y-90820713D01*
X134180020Y-90828079D01*
X134309347Y-91016250D01*
X134319601Y-91024594D01*
X134333342Y-91017448D01*
X135537978Y-89812812D01*
X135544356Y-89801132D01*
X136274408Y-89801132D01*
X136274539Y-89802965D01*
X136278790Y-89809580D01*
X137485730Y-91016520D01*
X137497939Y-91023187D01*
X137509439Y-91014497D01*
X137606831Y-90881913D01*
X137611418Y-90874685D01*
X137737962Y-90641621D01*
X137741530Y-90633827D01*
X137835271Y-90385750D01*
X137837748Y-90377544D01*
X137896954Y-90119038D01*
X137898294Y-90110577D01*
X137922031Y-89844616D01*
X137922277Y-89839677D01*
X137922666Y-89802485D01*
X137922523Y-89797519D01*
X137904362Y-89531123D01*
X137903201Y-89522649D01*
X137849419Y-89262944D01*
X137847120Y-89254709D01*
X137758588Y-89004705D01*
X137755191Y-88996854D01*
X137633550Y-88761178D01*
X137629122Y-88753866D01*
X137510031Y-88584417D01*
X137499509Y-88576037D01*
X137486121Y-88583089D01*
X136282022Y-89787188D01*
X136274408Y-89801132D01*
X135544356Y-89801132D01*
X135545592Y-89798868D01*
X135545461Y-89797035D01*
X135541210Y-89790420D01*
X134333814Y-88583024D01*
X134321804Y-88576466D01*
X134310064Y-88585434D01*
X134201935Y-88735911D01*
X134197418Y-88743196D01*
X134073325Y-88977567D01*
X134069839Y-88985395D01*
X133978700Y-89234446D01*
X133976311Y-89242670D01*
X133919812Y-89501795D01*
X133918563Y-89510250D01*
X133897754Y-89774653D01*
X133897665Y-89783204D01*
X83058500Y-89783204D01*
X83058500Y-88212500D01*
X134686584Y-88212500D01*
X134692980Y-88223770D01*
X135897188Y-89427978D01*
X135911132Y-89435592D01*
X135912965Y-89435461D01*
X135919580Y-89431210D01*
X137126604Y-88224186D01*
X137133795Y-88211017D01*
X137126473Y-88200780D01*
X137079233Y-88162115D01*
X137072261Y-88157160D01*
X136846122Y-88018582D01*
X136838552Y-88014624D01*
X136788247Y-87992542D01*
X145229500Y-87992542D01*
X145241022Y-88134200D01*
X145296890Y-88351794D01*
X145390409Y-88556055D01*
X145518620Y-88740527D01*
X145677473Y-88899380D01*
X145861945Y-89027591D01*
X146066206Y-89121110D01*
X146283800Y-89176978D01*
X146337705Y-89181362D01*
X146422908Y-89188293D01*
X146422918Y-89188293D01*
X146425458Y-89188500D01*
X148050542Y-89188500D01*
X148053082Y-89188293D01*
X148053092Y-89188293D01*
X148138295Y-89181362D01*
X148192200Y-89176978D01*
X148409794Y-89121110D01*
X148614055Y-89027591D01*
X148798527Y-88899380D01*
X148957380Y-88740527D01*
X149085591Y-88556055D01*
X149179110Y-88351794D01*
X149234978Y-88134200D01*
X149246500Y-87992542D01*
X154029500Y-87992542D01*
X154041022Y-88134200D01*
X154096890Y-88351794D01*
X154190409Y-88556055D01*
X154318620Y-88740527D01*
X154477473Y-88899380D01*
X154661945Y-89027591D01*
X154866206Y-89121110D01*
X155083800Y-89176978D01*
X155137705Y-89181362D01*
X155222908Y-89188293D01*
X155222918Y-89188293D01*
X155225458Y-89188500D01*
X156850542Y-89188500D01*
X156853082Y-89188293D01*
X156853092Y-89188293D01*
X156938295Y-89181362D01*
X156992200Y-89176978D01*
X157209794Y-89121110D01*
X157414055Y-89027591D01*
X157598527Y-88899380D01*
X157757380Y-88740527D01*
X157885591Y-88556055D01*
X157979110Y-88351794D01*
X158034978Y-88134200D01*
X158046500Y-87992542D01*
X158046500Y-85367458D01*
X158034978Y-85225800D01*
X158018268Y-85160716D01*
X157980505Y-85013639D01*
X157980505Y-85013638D01*
X157979110Y-85008206D01*
X157885591Y-84803945D01*
X157757380Y-84619473D01*
X157598527Y-84460620D01*
X157414055Y-84332409D01*
X157209794Y-84238890D01*
X156992200Y-84183022D01*
X156938295Y-84178638D01*
X156853092Y-84171707D01*
X156853082Y-84171707D01*
X156850542Y-84171500D01*
X155225458Y-84171500D01*
X155222918Y-84171707D01*
X155222908Y-84171707D01*
X155137705Y-84178638D01*
X155083800Y-84183022D01*
X154866206Y-84238890D01*
X154661945Y-84332409D01*
X154477473Y-84460620D01*
X154318620Y-84619473D01*
X154190409Y-84803945D01*
X154096890Y-85008206D01*
X154095495Y-85013638D01*
X154095495Y-85013639D01*
X154057733Y-85160716D01*
X154041022Y-85225800D01*
X154029500Y-85367458D01*
X154029500Y-87992542D01*
X149246500Y-87992542D01*
X149246500Y-85367458D01*
X149234978Y-85225800D01*
X149218268Y-85160716D01*
X149180505Y-85013639D01*
X149180505Y-85013638D01*
X149179110Y-85008206D01*
X149085591Y-84803945D01*
X148957380Y-84619473D01*
X148798527Y-84460620D01*
X148614055Y-84332409D01*
X148409794Y-84238890D01*
X148192200Y-84183022D01*
X148138295Y-84178638D01*
X148053092Y-84171707D01*
X148053082Y-84171707D01*
X148050542Y-84171500D01*
X146425458Y-84171500D01*
X146422918Y-84171707D01*
X146422908Y-84171707D01*
X146337705Y-84178638D01*
X146283800Y-84183022D01*
X146066206Y-84238890D01*
X145861945Y-84332409D01*
X145677473Y-84460620D01*
X145518620Y-84619473D01*
X145390409Y-84803945D01*
X145296890Y-85008206D01*
X145295495Y-85013638D01*
X145295495Y-85013639D01*
X145257733Y-85160716D01*
X145241022Y-85225800D01*
X145229500Y-85367458D01*
X145229500Y-87992542D01*
X136788247Y-87992542D01*
X136595704Y-87908022D01*
X136587644Y-87905120D01*
X136332592Y-87832467D01*
X136324214Y-87830685D01*
X136061656Y-87793318D01*
X136053111Y-87792691D01*
X135787908Y-87791302D01*
X135779374Y-87791839D01*
X135516433Y-87826456D01*
X135508035Y-87828149D01*
X135252238Y-87898127D01*
X135244143Y-87900946D01*
X135000199Y-88004997D01*
X134992577Y-88008881D01*
X134765013Y-88145075D01*
X134757981Y-88149962D01*
X134695053Y-88200377D01*
X134686584Y-88212500D01*
X83058500Y-88212500D01*
X83058500Y-85160716D01*
X95199812Y-85160716D01*
X95236060Y-85427063D01*
X95237368Y-85431549D01*
X95237368Y-85431551D01*
X95257183Y-85499534D01*
X95311278Y-85685126D01*
X95423815Y-85929237D01*
X95426378Y-85933146D01*
X95568631Y-86150119D01*
X95568635Y-86150124D01*
X95571197Y-86154032D01*
X95750188Y-86354574D01*
X95956854Y-86526456D01*
X96186656Y-86665904D01*
X96190970Y-86667713D01*
X96190974Y-86667715D01*
X96240768Y-86688595D01*
X96434545Y-86769852D01*
X96695077Y-86836019D01*
X96918334Y-86858500D01*
X97078237Y-86858500D01*
X97080562Y-86858327D01*
X97080568Y-86858327D01*
X97273408Y-86843996D01*
X97273409Y-86843996D01*
X97278063Y-86843650D01*
X97282616Y-86842620D01*
X97282621Y-86842619D01*
X97535669Y-86785361D01*
X97535674Y-86785360D01*
X97540237Y-86784327D01*
X97790762Y-86686902D01*
X98024136Y-86553518D01*
X98235231Y-86387105D01*
X98419409Y-86191317D01*
X98572626Y-85970457D01*
X98591026Y-85933146D01*
X98689449Y-85733564D01*
X98689450Y-85733561D01*
X98691514Y-85729376D01*
X98773462Y-85473370D01*
X98816670Y-85208063D01*
X98817290Y-85160716D01*
X123199812Y-85160716D01*
X123236060Y-85427063D01*
X123237368Y-85431549D01*
X123237368Y-85431551D01*
X123257183Y-85499534D01*
X123311278Y-85685126D01*
X123423815Y-85929237D01*
X123426378Y-85933146D01*
X123568631Y-86150119D01*
X123568635Y-86150124D01*
X123571197Y-86154032D01*
X123750188Y-86354574D01*
X123956854Y-86526456D01*
X124186656Y-86665904D01*
X124190970Y-86667713D01*
X124190974Y-86667715D01*
X124240768Y-86688595D01*
X124434545Y-86769852D01*
X124695077Y-86836019D01*
X124918334Y-86858500D01*
X125078237Y-86858500D01*
X125080562Y-86858327D01*
X125080568Y-86858327D01*
X125273408Y-86843996D01*
X125273409Y-86843996D01*
X125278063Y-86843650D01*
X125282616Y-86842620D01*
X125282621Y-86842619D01*
X125535669Y-86785361D01*
X125535674Y-86785360D01*
X125540237Y-86784327D01*
X125790762Y-86686902D01*
X126024136Y-86553518D01*
X126235231Y-86387105D01*
X126419409Y-86191317D01*
X126572626Y-85970457D01*
X126591026Y-85933146D01*
X126689449Y-85733564D01*
X126689450Y-85733561D01*
X126691514Y-85729376D01*
X126773462Y-85473370D01*
X126816670Y-85208063D01*
X126820188Y-84939284D01*
X126783940Y-84672937D01*
X126769146Y-84622179D01*
X126723213Y-84464591D01*
X126708722Y-84414874D01*
X126596185Y-84170763D01*
X126507805Y-84035961D01*
X126451369Y-83949881D01*
X126451365Y-83949876D01*
X126448803Y-83945968D01*
X126269812Y-83745426D01*
X126063146Y-83573544D01*
X125993808Y-83531468D01*
X125837342Y-83436522D01*
X125837341Y-83436522D01*
X125833344Y-83434096D01*
X125829030Y-83432287D01*
X125829026Y-83432285D01*
X125589769Y-83331957D01*
X125585455Y-83330148D01*
X125324923Y-83263981D01*
X125101666Y-83241500D01*
X124941763Y-83241500D01*
X124939438Y-83241673D01*
X124939432Y-83241673D01*
X124746592Y-83256004D01*
X124746591Y-83256004D01*
X124741937Y-83256350D01*
X124737384Y-83257380D01*
X124737379Y-83257381D01*
X124484331Y-83314639D01*
X124484326Y-83314640D01*
X124479763Y-83315673D01*
X124229238Y-83413098D01*
X123995864Y-83546482D01*
X123784769Y-83712895D01*
X123600591Y-83908683D01*
X123447374Y-84129543D01*
X123445307Y-84133733D01*
X123445306Y-84133736D01*
X123347332Y-84332409D01*
X123328486Y-84370624D01*
X123246538Y-84626630D01*
X123203330Y-84891937D01*
X123199812Y-85160716D01*
X98817290Y-85160716D01*
X98820188Y-84939284D01*
X98783940Y-84672937D01*
X98769146Y-84622179D01*
X98723213Y-84464591D01*
X98708722Y-84414874D01*
X98596185Y-84170763D01*
X98507805Y-84035961D01*
X98451369Y-83949881D01*
X98451365Y-83949876D01*
X98448803Y-83945968D01*
X98269812Y-83745426D01*
X98063146Y-83573544D01*
X97993808Y-83531468D01*
X97837342Y-83436522D01*
X97837341Y-83436522D01*
X97833344Y-83434096D01*
X97829030Y-83432287D01*
X97829026Y-83432285D01*
X97589769Y-83331957D01*
X97585455Y-83330148D01*
X97324923Y-83263981D01*
X97101666Y-83241500D01*
X96941763Y-83241500D01*
X96939438Y-83241673D01*
X96939432Y-83241673D01*
X96746592Y-83256004D01*
X96746591Y-83256004D01*
X96741937Y-83256350D01*
X96737384Y-83257380D01*
X96737379Y-83257381D01*
X96484331Y-83314639D01*
X96484326Y-83314640D01*
X96479763Y-83315673D01*
X96229238Y-83413098D01*
X95995864Y-83546482D01*
X95784769Y-83712895D01*
X95600591Y-83908683D01*
X95447374Y-84129543D01*
X95445307Y-84133733D01*
X95445306Y-84133736D01*
X95347332Y-84332409D01*
X95328486Y-84370624D01*
X95246538Y-84626630D01*
X95203330Y-84891937D01*
X95199812Y-85160716D01*
X83058500Y-85160716D01*
X83058500Y-82804000D01*
X141180502Y-82804000D01*
X141200457Y-83032087D01*
X141259716Y-83253243D01*
X141262039Y-83258224D01*
X141262039Y-83258225D01*
X141354151Y-83455762D01*
X141354154Y-83455767D01*
X141356477Y-83460749D01*
X141487802Y-83648300D01*
X141649700Y-83810198D01*
X141654208Y-83813355D01*
X141654211Y-83813357D01*
X141732389Y-83868098D01*
X141837251Y-83941523D01*
X141842233Y-83943846D01*
X141842238Y-83943849D01*
X142039775Y-84035961D01*
X142044757Y-84038284D01*
X142050065Y-84039706D01*
X142050067Y-84039707D01*
X142260598Y-84096119D01*
X142260600Y-84096119D01*
X142265913Y-84097543D01*
X142494000Y-84117498D01*
X142722087Y-84097543D01*
X142727400Y-84096119D01*
X142727402Y-84096119D01*
X142937933Y-84039707D01*
X142937935Y-84039706D01*
X142943243Y-84038284D01*
X142948225Y-84035961D01*
X143145762Y-83943849D01*
X143145767Y-83943846D01*
X143150749Y-83941523D01*
X143255611Y-83868098D01*
X143333789Y-83813357D01*
X143333792Y-83813355D01*
X143338300Y-83810198D01*
X143500198Y-83648300D01*
X143631523Y-83460749D01*
X143633846Y-83455767D01*
X143633849Y-83455762D01*
X143725961Y-83258225D01*
X143725961Y-83258224D01*
X143728284Y-83253243D01*
X143787543Y-83032087D01*
X143807498Y-82804000D01*
X143787543Y-82575913D01*
X143786119Y-82570598D01*
X143729707Y-82360067D01*
X143729706Y-82360065D01*
X143728284Y-82354757D01*
X143649364Y-82185511D01*
X143633849Y-82152238D01*
X143633846Y-82152233D01*
X143631523Y-82147251D01*
X143520051Y-81988053D01*
X143503357Y-81964211D01*
X143503355Y-81964208D01*
X143500198Y-81959700D01*
X143341020Y-81800522D01*
X160261273Y-81800522D01*
X160308764Y-81977761D01*
X160312510Y-81988053D01*
X160404586Y-82185511D01*
X160410069Y-82195007D01*
X160535028Y-82373467D01*
X160542084Y-82381875D01*
X160696125Y-82535916D01*
X160704533Y-82542972D01*
X160882993Y-82667931D01*
X160892489Y-82673414D01*
X161089947Y-82765490D01*
X161100239Y-82769236D01*
X161272503Y-82815394D01*
X161286599Y-82815058D01*
X161290000Y-82807116D01*
X161290000Y-82801967D01*
X161798000Y-82801967D01*
X161801973Y-82815498D01*
X161810522Y-82816727D01*
X161987761Y-82769236D01*
X161998053Y-82765490D01*
X162195511Y-82673414D01*
X162205007Y-82667931D01*
X162383467Y-82542972D01*
X162391875Y-82535916D01*
X162545916Y-82381875D01*
X162552972Y-82373467D01*
X162677931Y-82195007D01*
X162683414Y-82185511D01*
X162775490Y-81988053D01*
X162779236Y-81977761D01*
X162825394Y-81805497D01*
X162825058Y-81791401D01*
X162817116Y-81788000D01*
X161816115Y-81788000D01*
X161800876Y-81792475D01*
X161799671Y-81793865D01*
X161798000Y-81801548D01*
X161798000Y-82801967D01*
X161290000Y-82801967D01*
X161290000Y-81806115D01*
X161285525Y-81790876D01*
X161284135Y-81789671D01*
X161276452Y-81788000D01*
X160276033Y-81788000D01*
X160262502Y-81791973D01*
X160261273Y-81800522D01*
X143341020Y-81800522D01*
X143338300Y-81797802D01*
X143333792Y-81794645D01*
X143333789Y-81794643D01*
X143255611Y-81739902D01*
X143150749Y-81666477D01*
X143145767Y-81664154D01*
X143145762Y-81664151D01*
X142948225Y-81572039D01*
X142948224Y-81572039D01*
X142943243Y-81569716D01*
X142937935Y-81568294D01*
X142937933Y-81568293D01*
X142727402Y-81511881D01*
X142727400Y-81511881D01*
X142722087Y-81510457D01*
X142494000Y-81490502D01*
X142265913Y-81510457D01*
X142260600Y-81511881D01*
X142260598Y-81511881D01*
X142050067Y-81568293D01*
X142050065Y-81568294D01*
X142044757Y-81569716D01*
X142039776Y-81572039D01*
X142039775Y-81572039D01*
X141842238Y-81664151D01*
X141842233Y-81664154D01*
X141837251Y-81666477D01*
X141732389Y-81739902D01*
X141654211Y-81794643D01*
X141654208Y-81794645D01*
X141649700Y-81797802D01*
X141487802Y-81959700D01*
X141484645Y-81964208D01*
X141484643Y-81964211D01*
X141467949Y-81988053D01*
X141356477Y-82147251D01*
X141354154Y-82152233D01*
X141354151Y-82152238D01*
X141338636Y-82185511D01*
X141259716Y-82354757D01*
X141258294Y-82360065D01*
X141258293Y-82360067D01*
X141201881Y-82570598D01*
X141200457Y-82575913D01*
X141180502Y-82804000D01*
X83058500Y-82804000D01*
X83058500Y-81262503D01*
X160262606Y-81262503D01*
X160262942Y-81276599D01*
X160270884Y-81280000D01*
X161271885Y-81280000D01*
X161287124Y-81275525D01*
X161288329Y-81274135D01*
X161290000Y-81266452D01*
X161290000Y-81261885D01*
X161798000Y-81261885D01*
X161802475Y-81277124D01*
X161803865Y-81278329D01*
X161811548Y-81280000D01*
X162811967Y-81280000D01*
X162825498Y-81276027D01*
X162826727Y-81267478D01*
X162779236Y-81090239D01*
X162775490Y-81079947D01*
X162683414Y-80882489D01*
X162677931Y-80872993D01*
X162552972Y-80694533D01*
X162545916Y-80686125D01*
X162391875Y-80532084D01*
X162383467Y-80525028D01*
X162205007Y-80400069D01*
X162195511Y-80394586D01*
X161998053Y-80302510D01*
X161987761Y-80298764D01*
X161815497Y-80252606D01*
X161801401Y-80252942D01*
X161798000Y-80260884D01*
X161798000Y-81261885D01*
X161290000Y-81261885D01*
X161290000Y-80266033D01*
X161286027Y-80252502D01*
X161277478Y-80251273D01*
X161100239Y-80298764D01*
X161089947Y-80302510D01*
X160892489Y-80394586D01*
X160882993Y-80400069D01*
X160704533Y-80525028D01*
X160696125Y-80532084D01*
X160542084Y-80686125D01*
X160535028Y-80694533D01*
X160410069Y-80872993D01*
X160404586Y-80882489D01*
X160312510Y-81079947D01*
X160308764Y-81090239D01*
X160262606Y-81262503D01*
X83058500Y-81262503D01*
X83058500Y-78997386D01*
X83927759Y-78997386D01*
X83935216Y-79007753D01*
X84174935Y-79201874D01*
X84180272Y-79205751D01*
X84500685Y-79413830D01*
X84506394Y-79417127D01*
X84846811Y-79590578D01*
X84852836Y-79593260D01*
X85209502Y-79730171D01*
X85215784Y-79732212D01*
X85584816Y-79831094D01*
X85591266Y-79832465D01*
X85968629Y-79892234D01*
X85975167Y-79892920D01*
X86356699Y-79912916D01*
X86363301Y-79912916D01*
X86744833Y-79892920D01*
X86751371Y-79892234D01*
X87128734Y-79832465D01*
X87135184Y-79831094D01*
X87504216Y-79732212D01*
X87510498Y-79730171D01*
X87867164Y-79593260D01*
X87873189Y-79590578D01*
X88213606Y-79417127D01*
X88219315Y-79413830D01*
X88539728Y-79205751D01*
X88545065Y-79201874D01*
X88783835Y-79008522D01*
X88791527Y-78997386D01*
X165207759Y-78997386D01*
X165215216Y-79007753D01*
X165454935Y-79201874D01*
X165460272Y-79205751D01*
X165780685Y-79413830D01*
X165786394Y-79417127D01*
X166126811Y-79590578D01*
X166132836Y-79593260D01*
X166489502Y-79730171D01*
X166495784Y-79732212D01*
X166864816Y-79831094D01*
X166871266Y-79832465D01*
X167248629Y-79892234D01*
X167255167Y-79892920D01*
X167636699Y-79912916D01*
X167643301Y-79912916D01*
X168024833Y-79892920D01*
X168031371Y-79892234D01*
X168408734Y-79832465D01*
X168415184Y-79831094D01*
X168784216Y-79732212D01*
X168790498Y-79730171D01*
X169147164Y-79593260D01*
X169153189Y-79590578D01*
X169493606Y-79417127D01*
X169499315Y-79413830D01*
X169819728Y-79205751D01*
X169825065Y-79201874D01*
X170063835Y-79008522D01*
X170072300Y-78996267D01*
X170065966Y-78985176D01*
X167652812Y-76572022D01*
X167638868Y-76564408D01*
X167637035Y-76564539D01*
X167630420Y-76568790D01*
X165214900Y-78984310D01*
X165207759Y-78997386D01*
X88791527Y-78997386D01*
X88792300Y-78996267D01*
X88785966Y-78985176D01*
X86372812Y-76572022D01*
X86358868Y-76564408D01*
X86357035Y-76564539D01*
X86350420Y-76568790D01*
X83934900Y-78984310D01*
X83927759Y-78997386D01*
X83058500Y-78997386D01*
X83058500Y-78349684D01*
X83078502Y-78281563D01*
X83132158Y-78235070D01*
X83202432Y-78224966D01*
X83267012Y-78254460D01*
X83290173Y-78281060D01*
X83354253Y-78379735D01*
X83358123Y-78385061D01*
X83551478Y-78623835D01*
X83563733Y-78632300D01*
X83574824Y-78625966D01*
X85987978Y-76212812D01*
X85994356Y-76201132D01*
X86724408Y-76201132D01*
X86724539Y-76202965D01*
X86728790Y-76209580D01*
X89144310Y-78625100D01*
X89157386Y-78632241D01*
X89167753Y-78624784D01*
X89361877Y-78385061D01*
X89365747Y-78379735D01*
X89573831Y-78059313D01*
X89577128Y-78053603D01*
X89750578Y-77713189D01*
X89753260Y-77707164D01*
X89890171Y-77350498D01*
X89892212Y-77344216D01*
X89991094Y-76975184D01*
X89992465Y-76968734D01*
X90052234Y-76591371D01*
X90052920Y-76584833D01*
X90072916Y-76203301D01*
X163927084Y-76203301D01*
X163947080Y-76584833D01*
X163947766Y-76591371D01*
X164007535Y-76968734D01*
X164008906Y-76975184D01*
X164107788Y-77344216D01*
X164109829Y-77350498D01*
X164246740Y-77707164D01*
X164249422Y-77713189D01*
X164422872Y-78053603D01*
X164426169Y-78059313D01*
X164634253Y-78379735D01*
X164638123Y-78385061D01*
X164831478Y-78623835D01*
X164843733Y-78632300D01*
X164854824Y-78625966D01*
X167267978Y-76212812D01*
X167275592Y-76198868D01*
X167275461Y-76197035D01*
X167271210Y-76190420D01*
X164855690Y-73774900D01*
X164842614Y-73767759D01*
X164832247Y-73775216D01*
X164638123Y-74014939D01*
X164634253Y-74020265D01*
X164426169Y-74340687D01*
X164422872Y-74346397D01*
X164249422Y-74686811D01*
X164246740Y-74692836D01*
X164109829Y-75049502D01*
X164107788Y-75055784D01*
X164008906Y-75424816D01*
X164007535Y-75431266D01*
X163947766Y-75808629D01*
X163947080Y-75815167D01*
X163927084Y-76196699D01*
X163927084Y-76203301D01*
X90072916Y-76203301D01*
X90072916Y-76196699D01*
X90052920Y-75815167D01*
X90052234Y-75808629D01*
X89992465Y-75431266D01*
X89991094Y-75424816D01*
X89892212Y-75055784D01*
X89890171Y-75049502D01*
X89753260Y-74692836D01*
X89750578Y-74686811D01*
X89577128Y-74346397D01*
X89573831Y-74340687D01*
X89365747Y-74020265D01*
X89361877Y-74014939D01*
X89168522Y-73776165D01*
X89156267Y-73767700D01*
X89145176Y-73774034D01*
X86732022Y-76187188D01*
X86724408Y-76201132D01*
X85994356Y-76201132D01*
X85995592Y-76198868D01*
X85995461Y-76197035D01*
X85991210Y-76190420D01*
X83575690Y-73774900D01*
X83562614Y-73767759D01*
X83552247Y-73775216D01*
X83358123Y-74014939D01*
X83354253Y-74020265D01*
X83290173Y-74118940D01*
X83236296Y-74165177D01*
X83165975Y-74174947D01*
X83101535Y-74145147D01*
X83063436Y-74085239D01*
X83058500Y-74050316D01*
X83058500Y-73403733D01*
X83927700Y-73403733D01*
X83934034Y-73414824D01*
X86347188Y-75827978D01*
X86361132Y-75835592D01*
X86362965Y-75835461D01*
X86369580Y-75831210D01*
X88785100Y-73415690D01*
X88791630Y-73403733D01*
X165207700Y-73403733D01*
X165214034Y-73414824D01*
X167627188Y-75827978D01*
X167641132Y-75835592D01*
X167642965Y-75835461D01*
X167649580Y-75831210D01*
X170065100Y-73415690D01*
X170072241Y-73402614D01*
X170064784Y-73392247D01*
X169825065Y-73198126D01*
X169819728Y-73194249D01*
X169499315Y-72986170D01*
X169493606Y-72982873D01*
X169153189Y-72809422D01*
X169147164Y-72806740D01*
X168790498Y-72669829D01*
X168784216Y-72667788D01*
X168415184Y-72568906D01*
X168408734Y-72567535D01*
X168031371Y-72507766D01*
X168024833Y-72507080D01*
X167643301Y-72487084D01*
X167636699Y-72487084D01*
X167255167Y-72507080D01*
X167248629Y-72507766D01*
X166871266Y-72567535D01*
X166864816Y-72568906D01*
X166495784Y-72667788D01*
X166489502Y-72669829D01*
X166132836Y-72806740D01*
X166126811Y-72809422D01*
X165786397Y-72982872D01*
X165780687Y-72986169D01*
X165460265Y-73194253D01*
X165454939Y-73198123D01*
X165216165Y-73391478D01*
X165207700Y-73403733D01*
X88791630Y-73403733D01*
X88792241Y-73402614D01*
X88784784Y-73392247D01*
X88545065Y-73198126D01*
X88539728Y-73194249D01*
X88219315Y-72986170D01*
X88213606Y-72982873D01*
X87873189Y-72809422D01*
X87867164Y-72806740D01*
X87510498Y-72669829D01*
X87504216Y-72667788D01*
X87135184Y-72568906D01*
X87128734Y-72567535D01*
X86751371Y-72507766D01*
X86744833Y-72507080D01*
X86363301Y-72487084D01*
X86356699Y-72487084D01*
X85975167Y-72507080D01*
X85968629Y-72507766D01*
X85591266Y-72567535D01*
X85584816Y-72568906D01*
X85215784Y-72667788D01*
X85209502Y-72669829D01*
X84852836Y-72806740D01*
X84846811Y-72809422D01*
X84506397Y-72982872D01*
X84500687Y-72986169D01*
X84180265Y-73194253D01*
X84174939Y-73198123D01*
X83936165Y-73391478D01*
X83927700Y-73403733D01*
X83058500Y-73403733D01*
X83058500Y-71754500D01*
X83078502Y-71686379D01*
X83132158Y-71639886D01*
X83184500Y-71628500D01*
X170815500Y-71628500D01*
X170883621Y-71648502D01*
G37*
%TD.AperFunction*%
%TD*%
M02*
