M48
; DRILL file {KiCad (6.0.5)} date Wed Jun  8 19:43:33 2022
; FORMAT={-:-/ absolute / inch / decimal}
; #@! TF.CreationDate,2022-06-08T19:43:33-04:00
; #@! TF.GenerationSoftware,Kicad,Pcbnew,(6.0.5)
; #@! TF.FileFunction,Plated,1,2,PTH
FMAT,2
INCH
; #@! TA.AperFunction,Plated,PTH,ViaDrill
T1C0.0157
; #@! TA.AperFunction,Plated,PTH,ComponentDrill
T2C0.0295
; #@! TA.AperFunction,Plated,PTH,ComponentDrill
T3C0.0315
; #@! TA.AperFunction,Plated,PTH,ComponentDrill
T4C0.0394
; #@! TA.AperFunction,Plated,PTH,ComponentDrill
T5C0.0709
; #@! TA.AperFunction,Plated,PTH,ComponentDrill
T6C0.0945
; #@! TA.AperFunction,Plated,PTH,ComponentDrill
T7C0.1260
%
G90
G05
T1
X5.4Y-3.74
X5.9185Y-3.84
T2
X6.0642Y-4.08
X6.0642Y-4.13
X6.0642Y-4.18
T3
X5.5696Y-3.8396
X5.5696Y-3.9396
X5.5696Y-4.0396
X5.5696Y-4.1396
X5.61Y-3.26
X5.61Y-3.66
X5.8696Y-3.8396
X5.8696Y-3.9396
X5.8696Y-4.0396
X5.8696Y-4.1396
X6.02Y-3.8308
X6.02Y-3.9292
X6.36Y-3.21
X6.36Y-3.61
T4
X5.8716Y-3.6882
X5.97Y-3.6882
X6.0684Y-3.6882
X6.27Y-3.9402
X6.27Y-4.0402
X6.395Y-3.8402
X6.395Y-4.1402
T6
X5.3508Y-3.5354
X5.3508Y-4.0354
T7
X3.4Y-3.0
X3.4Y-4.7
X6.6Y-3.0
X6.6Y-4.7
T5
G00X5.7968Y-3.4185
M15
G01X5.7968Y-3.4067
M16
G05
G00X6.1432Y-3.4185
M15
G01X6.1432Y-3.4067
M16
G05
T0
M30
